0
SECTION
2
HEADER
9
$INSUNITS
70
4
9
$ACADVER
1
AC1014
9
$HANDSEED
5
FFFF
0
ENDSEC
0
SECTION
2
TABLES
0
TABLE
2
VPORT
5
8
100
AcDbSymbolTable
0
ENDTAB
0
TABLE
2
LTYPE
5
5
100
AcDbSymbolTable
0
LTYPE
5
14
100
AcDbSymbolTableRecord
100
AcDbLinetypeTableRecord
2
BYBLOCK
70
0
0
LTYPE
5
15
100
AcDbSymbolTableRecord
100
AcDbLinetypeTableRecord
2
BYLAYER
70
0
0
ENDTAB
0
TABLE
2
LAYER
5
2
100
AcDbSymbolTable
70
2
0
LAYER
5
50
100
AcDbSymbolTableRecord
100
AcDbLayerTableRecord
2
0
70
0
6
CONTINUOUS
0
ENDTAB
0
TABLE
2
STYLE
5
3
100
AcDbSymbolTable
70
1
0
STYLE
5
11
100
AcDbSymbolTableRecord
100
AcDbTextStyleTableRecord
2
STANDARD
70
0
0
ENDTAB
0
TABLE
2
VIEW
5
6
100
AcDbSymbolTable
70
0
0
ENDTAB
0
TABLE
2
UCS
5
7
100
AcDbSymbolTable
70
0
0
ENDTAB
0
TABLE
2
APPID
5
9
100
AcDbSymbolTable
70
2
0
APPID
5
12
100
AcDbSymbolTableRecord
100
AcDbRegAppTableRecord
2
ACAD
70
0
0
ENDTAB
0
TABLE
2
DIMSTYLE
5
A
100
AcDbSymbolTable
70
1
0
ENDTAB
0
TABLE
2
BLOCK_RECORD
5
1
100
AcDbSymbolTable
70
1
0
BLOCK_RECORD
5
1F
100
AcDbSymbolTableRecord
100
AcDbBlockTableRecord
2
*MODEL_SPACE
0
BLOCK_RECORD
5
1B
100
AcDbSymbolTableRecord
100
AcDbBlockTableRecord
2
*PAPER_SPACE
0
ENDTAB
0
ENDSEC
0
SECTION
2
BLOCKS
0
BLOCK
5
20
100
AcDbEntity
100
AcDbBlockBegin
2
*MODEL_SPACE
0
ENDBLK
5
21
100
AcDbEntity
100
AcDbBlockEnd
0
BLOCK
5
1C
100
AcDbEntity
100
AcDbBlockBegin
2
*PAPER_SPACE
0
ENDBLK
5
1D
100
AcDbEntity
100
AcDbBlockEnd
0
ENDSEC
0
SECTION
2
ENTITIES
0
SPLINE
5
100
100
AcDbEntity
8
0
100
AcDbSpline
70
4
71
5
72
21
73
15
74
0
42
0.000000001
43
0.0000000001
44
0.0000000001
40
0
40
0
40
0
40
0
40
0
40
0
40
0.10000000000000001
40
0.20000000000000001
40
0.30000000000000004
40
0.40000000000000002
40
0.5
40
0.59999999999999998
40
0.69999999999999996
40
0.79999999999999993
40
0.89999999999999991
40
1
40
1
40
1
40
1
40
1
40
1
41
1
41
1
41
1
41
1
41
1
41
1
41
1
41
1
41
1
41
1
41
1
41
1
41
1
41
1
41
1
10
0
20
8.8216490907108618
30
0
10
0.24930728555291587
20
8.8170058825442883
30
0
10
0.75559381112153778
20
8.7996268887216225
30
0
10
1.5380559109075493
20
8.7492922007911886
30
0
10
2.6280197365111055
20
8.63274865056413
30
0
10
4.0644187380454868
20
8.396682743723856
30
0
10
5.551537995766048
20
8.0532564426410378
30
0
10
7.0390102041456704
20
7.5790935766223875
30
0
10
8.4219295802453189
20
6.9368532857259613
30
0
10
9.5505874434934217
20
6.0942029218343965
30
0
10
10.37289145570684
20
5.0885879598812398
30
0
10
10.766580865435964
20
4.1966776381387554
30
0
10
10.91383772440722
20
3.5029817578363782
30
0
10
10.946549890792683
20
3.0329019848763816
30
0
10
10.946549890792683
20
2.7959637993234496
30
0
0
LINE
5
101
100
AcDbEntity
8
0
100
AcDbLine
10
10.946549890792683
20
2.7959637993234496
30
0
11
10.946549890792683
21
-8.1838738875251504
31
0
0
LINE
5
102
100
AcDbEntity
8
0
100
AcDbLine
10
8.1842415567109548
20
-8.1838738875251504
30
0
11
8.1842415567109548
21
-7.0838739121120664
31
0
0
LINE
5
103
100
AcDbEntity
8
0
100
AcDbLine
10
9.1205166672963873
20
-9.1528480460213189
30
0
11
10.002220320064962
21
-9.1528480460213189
31
0
0
ARC
5
104
100
AcDbEntity
8
0
100
AcDbCircle
10
9.153786716039134
20
-8.1838738875251504
30
0
40
0.96954515932817897
210
0
220
0
230
1
100
AcDbArc
50
180
51
268.03350296374646
0
ARC
5
105
100
AcDbEntity
8
0
100
AcDbCircle
10
10.002220320064962
20
-8.2082050738984478
30
0
40
0.94464297212287218
210
0
220
0
230
1
100
AcDbArc
50
-90
51
1.4759316701013845
0
LINE
5
106
100
AcDbEntity
8
0
100
AcDbLine
10
8.9109453827544858
20
-6.366184721083763
30
0
11
9.1499997954815626
21
-6.366184721083763
31
0
0
ARC
5
107
100
AcDbEntity
8
0
100
AcDbCircle
10
8.901986660231767
20
-7.0838739121120664
30
0
40
0.717745103520811
210
0
220
-0
230
1
100
AcDbArc
50
89.284829228475004
51
180
0
LINE
5
108
100
AcDbEntity
8
0
100
AcDbLine
10
9.5045145976055405
20
-3.0795418764438427
30
0
11
9.6830127270060977
21
-5.7922371292058106
31
0
0
ARC
5
109
100
AcDbEntity
8
0
100
AcDbCircle
10
9.1499997954815626
20
-5.8317120339631048
30
0
40
0.53447268712065843
210
0
220
0
230
1
100
AcDbArc
50
-90
51
4.2355892908836896
0
SPLINE
5
110
100
AcDbEntity
8
0
100
AcDbSpline
70
4
71
5
72
36
73
30
74
0
42
0.000000001
43
0.0000000001
44
0.0000000001
40
0
40
0
40
0
40
0
40
0
40
0
40
0.040000000000000001
40
0.080000000000000002
40
0.12
40
0.16
40
0.20000000000000001
40
0.24000000000000002
40
0.28000000000000003
40
0.32000000000000001
40
0.35999999999999999
40
0.39999999999999997
40
0.43999999999999995
40
0.47999999999999993
40
0.51999999999999991
40
0.55999999999999994
40
0.59999999999999998
40
0.64000000000000001
40
0.68000000000000005
40
0.72000000000000008
40
0.76000000000000012
40
0.80000000000000016
40
0.84000000000000019
40
0.88000000000000023
40
0.92000000000000026
40
0.9600000000000003
40
1
40
1
40
1
40
1
40
1
40
1
41
1
41
1
41
1
41
1
41
1
41
1
41
1
41
1
41
1
41
1
41
1
41
1
41
1
41
1
41
1
41
1
41
1
41
1
41
1
41
1
41
1
41
1
41
1
41
1
41
1
41
1
41
1
41
1
41
1
41
1
10
3.4694469519536142e-17
20
-0.049999998882412924
30
0
10
0.13422578369150184
20
-0.049999998882412924
30
0
10
0.39824558229746232
20
-0.053057706058654577
30
0
10
0.78097995003173515
20
-0.066817355448037324
30
0
10
1.2646570527729764
20
-0.10321624633941609
30
0
10
1.8248423004454528
20
-0.17691210049804523
30
0
10
2.3410305921489423
20
-0.27605334803567683
30
0
10
2.8144103695190212
20
-0.39730044420928212
30
0
10
3.2473420767845562
20
-0.53700057889842023
30
0
10
3.6436943408639841
20
-0.69142132595322314
30
0
10
4.0094135951665608
20
-0.85705492391309546
30
0
10
4.3522371418782724
20
-1.0305966995524636
30
0
10
4.6808675276374698
20
-1.2087300726096375
30
0
10
5.0043199865694312
20
-1.3879404874144932
30
0
10
5.3312348420880902
20
-1.5643705550882181
30
0
10
5.6691494834719833
20
-1.7335108283866822
30
0
10
6.0240124472969629
20
-1.8906060777491061
30
0
10
6.3997570043650871
20
-2.0315238079518507
30
0
10
6.7979928383868238
20
-2.1535126170137824
30
0
10
7.2172587263714538
20
-2.2559817744878634
30
0
10
7.6532613975078032
20
-2.3414163992264903
30
0
10
8.096207978236226
20
-2.4156163215050825
30
0
10
8.530625404474014
20
-2.486325581056879
30
0
10
8.9268598734705034
20
-2.5637907280263486
30
0
10
9.2524063901567075
20
-2.657380187549867
30
0
10
9.4342415840409259
20
-2.7816628262669902
30
0
10
9.4824470466278825
20
-2.8994984074089265
30
0
10
9.496777708996003
20
-2.9899795119479027
30
0
10
9.5025560158228508
20
-3.0497766597332436
30
0
10
9.5045145976055405
20
-3.0795418764438427
30
0
0
SPLINE
5
111
100
AcDbEntity
8
0
100
AcDbSpline
70
4
71
5
72
41
73
35
74
0
42
0.000000001
43
0.0000000001
44
0.0000000001
40
0
40
0
40
0
40
0
40
0
40
0
40
0.033333333333333333
40
0.066666666666666666
40
0.10000000000000001
40
0.13333333333333333
40
0.16666666666666666
40
0.19999999999999998
40
0.23333333333333331
40
0.26666666666666666
40
0.29999999999999999
40
0.33333333333333331
40
0.36666666666666664
40
0.39999999999999997
40
0.43333333333333329
40
0.46666666666666662
40
0.49999999999999994
40
0.53333333333333333
40
0.56666666666666665
40
0.59999999999999998
40
0.6333333333333333
40
0.66666666666666663
40
0.69999999999999996
40
0.73333333333333328
40
0.76666666666666661
40
0.79999999999999993
40
0.83333333333333326
40
0.86666666666666659
40
0.89999999999999991
40
0.93333333333333324
40
0.96666666666666656
40
1
40
1
40
1
40
1
40
1
40
1
41
1
41
1
41
1
41
1
41
1
41
1
41
1
41
1
41
1
41
1
41
1
41
1
41
1
41
1
41
1
41
1
41
1
41
1
41
1
41
1
41
1
41
1
41
1
41
1
41
1
41
1
41
1
41
1
41
1
41
1
41
1
41
1
41
1
41
1
41
1
10
0
20
0.74999998323619366
30
0
10
0.048116262816793119
20
0.74999998323619366
30
0
10
0.14956794998900474
20
0.7495329607877661
30
0
10
0.31740278081319206
20
0.74743146762557977
30
0
10
0.57247421835024392
20
0.74085483471967539
30
0
10
0.94225781172980061
20
0.72088460149628453
30
0
10
1.3596195985664974
20
0.6824691623066913
30
0
10
1.8179271270589821
20
0.61952118700019365
30
0
10
2.3063326430854083
20
0.52827576724559533
30
0
10
2.8083202353049943
20
0.40937496963692133
30
0
10
3.3042929422986242
20
0.26697217432248294
30
0
10
3.7749146654737693
20
0.10731867312102272
30
0
10
4.2040641438917499
20
-0.062412371597548234
30
0
10
4.582243683649506
20
-0.23546301551868806
30
0
10
4.9092162189769839
20
-0.40658070148123954
30
0
10
5.1986275543799625
20
-0.57366283742095492
30
0
10
5.4744537393484238
20
-0.73710502401383771
30
0
10
5.7628983996919256
20
-0.8978587485821039
30
0
10
6.0852247822559367
20
-1.0557806286189388
30
0
10
6.4512500042911096
20
-1.2080987506879164
30
0
10
6.849774247115139
20
-1.3472015221730622
30
0
10
7.2550025772789928
20
-1.4620985522297036
30
0
10
7.6381766552392971
20
-1.5412239555092568
30
0
10
7.9797538401818668
20
-1.5750857849978068
30
0
10
8.2762778896906255
20
-1.5583554764563203
30
0
10
8.5632672498283338
20
-1.4938929997962043
30
0
10
8.8444297613132914
20
-1.3867553436409652
30
0
10
9.106765530922651
20
-1.2427781905629056
30
0
10
9.3301505524127677
20
-1.0674482232165876
30
0
10
9.4988986189421869
20
-0.86454969430111273
30
0
10
9.6112620392333934
20
-0.63508429696414814
30
0
10
9.6606512229086334
20
-0.42976885755578031
30
0
10
9.6784988962875449
20
-0.26300350283921353
30
0
10
9.6824648347234525
20
-0.14604656652590056
30
0
10
9.6824648347234525
20
-0.086123066284314875
30
0
0
LINE
5
112
100
AcDbEntity
8
0
100
AcDbLine
10
9.6824648347234525
20
-0.086123066284314875
30
0
11
9.6824648347234525
21
2.3999999463558197
31
0
0
SPLINE
5
113
100
AcDbEntity
8
0
100
AcDbSpline
70
4
71
5
72
36
73
30
74
0
42
0.000000001
43
0.0000000001
44
0.0000000001
40
0
40
0
40
0
40
0
40
0
40
0
40
0.040000000000000001
40
0.080000000000000002
40
0.12
40
0.16
40
0.20000000000000001
40
0.24000000000000002
40
0.28000000000000003
40
0.32000000000000001
40
0.35999999999999999
40
0.39999999999999997
40
0.43999999999999995
40
0.47999999999999993
40
0.51999999999999991
40
0.55999999999999994
40
0.59999999999999998
40
0.64000000000000001
40
0.68000000000000005
40
0.72000000000000008
40
0.76000000000000012
40
0.80000000000000016
40
0.84000000000000019
40
0.88000000000000023
40
0.92000000000000026
40
0.9600000000000003
40
1
40
1
40
1
40
1
40
1
40
1
41
1
41
1
41
1
41
1
41
1
41
1
41
1
41
1
41
1
41
1
41
1
41
1
41
1
41
1
41
1
41
1
41
1
41
1
41
1
41
1
41
1
41
1
41
1
41
1
41
1
41
1
41
1
41
1
41
1
41
1
10
9.6824648347234525
20
2.3999999463558197
30
0
10
9.6785026794273428
20
2.4711162964621121
30
0
10
9.6652694514049671
20
2.6129531233646612
30
0
10
9.6294925218317839
20
2.8245210069289199
30
0
10
9.5498555677069827
20
3.1042283382039386
30
0
10
9.3971879136762588
20
3.4494364123458259
30
0
10
9.1926138008679192
20
3.7888734936584934
30
0
10
8.939132365263136
20
4.1199639125485277
30
0
10
8.6426181303425
20
4.4382603942452485
30
0
10
8.3111462205115298
20
4.738144964714869
30
0
10
7.9534781720904082
20
5.0141636157630733
30
0
10
7.5777941291032214
20
5.2622236518284629
30
0
10
7.1904301075818813
20
5.4807442344441357
30
0
10
6.7943553728776793
20
5.6721875361668488
30
0
10
6.389731589395474
20
5.8419067339511423
30
0
10
5.974943232239899
20
5.9964083430365998
30
0
10
5.547457150226597
20
6.1418123778537588
30
0
10
5.1047248472378817
20
6.28230613932375
30
0
10
4.6451237581379337
20
6.4184080227476397
30
0
10
4.168057204380089
20
6.5479283207403043
30
0
10
3.6739656698886822
20
6.6671606247761117
30
0
10
3.1644097711540287
20
6.7720231568199871
30
0
10
2.6420951393350567
20
6.8591048420327274
30
0
10
2.1110611859596715
20
6.9270433525891892
30
0
10
1.5762865755968749
20
6.9765268002820928
30
0
10
1.0428926411286461
20
7.0093379896871273
30
0
10
0.62095532674394627
20
7.0240305186312044
30
0
10
0.30869030627876348
20
7.0294078966344617
30
0
10
0.10255632225368545
20
7.0306028933369236
30
0
10
0
20
7.0306028933369236
30
0
0
LINE
5
114
100
AcDbEntity
8
0
100
AcDbLine
10
0
20
8.8216490907108618
30
0
11
0
21
7.0306028933369236
31
0
0
LINE
5
115
100
AcDbEntity
8
0
100
AcDbLine
10
0
20
0.74999998323619366
30
0
11
3.4694469519536142e-17
21
-0.049999998882412924
31
0
0
LINE
5
116
100
AcDbEntity
8
0
100
AcDbLine
10
-17.056723975049231
20
307.63060289333691
30
0
11
22.943276024950769
21
307.63060289333691
31
0
0
LINE
5
117
100
AcDbEntity
8
0
100
AcDbLine
10
-0.69999998435378075
20
5.0306028933369245
30
0
11
0.89999997988343239
21
5.0306028933369245
31
0
0
ENDSEC
0
SECTION
2
OBJECTS
0
DICTIONARY
5
C
100
AcDbDictionary
3
ACAD_GROUP
350
D
3
ACAD_MLINESTYLE
350
17
0
DICTIONARY
5
D
100
AcDbDictionary
0
DICTIONARY
5
1A
330
C
100
AcDbDictionary
0
DICTIONARY
5
17
100
AcDbDictionary
0
ENDSEC
0
EOF
