0
SECTION
2
HEADER
9
$INSUNITS
70
4
9
$ACADVER
1
AC1014
9
$HANDSEED
5
FFFF
0
ENDSEC
0
SECTION
2
TABLES
0
TABLE
2
VPORT
5
8
100
AcDbSymbolTable
0
ENDTAB
0
TABLE
2
LTYPE
5
5
100
AcDbSymbolTable
0
LTYPE
5
14
100
AcDbSymbolTableRecord
100
AcDbLinetypeTableRecord
2
BYBLOCK
70
0
0
LTYPE
5
15
100
AcDbSymbolTableRecord
100
AcDbLinetypeTableRecord
2
BYLAYER
70
0
0
ENDTAB
0
TABLE
2
LAYER
5
2
100
AcDbSymbolTable
70
2
0
LAYER
5
50
100
AcDbSymbolTableRecord
100
AcDbLayerTableRecord
2
0
70
0
6
CONTINUOUS
0
ENDTAB
0
TABLE
2
STYLE
5
3
100
AcDbSymbolTable
70
1
0
STYLE
5
11
100
AcDbSymbolTableRecord
100
AcDbTextStyleTableRecord
2
STANDARD
70
0
0
ENDTAB
0
TABLE
2
VIEW
5
6
100
AcDbSymbolTable
70
0
0
ENDTAB
0
TABLE
2
UCS
5
7
100
AcDbSymbolTable
70
0
0
ENDTAB
0
TABLE
2
APPID
5
9
100
AcDbSymbolTable
70
2
0
APPID
5
12
100
AcDbSymbolTableRecord
100
AcDbRegAppTableRecord
2
ACAD
70
0
0
ENDTAB
0
TABLE
2
DIMSTYLE
5
A
100
AcDbSymbolTable
70
1
0
ENDTAB
0
TABLE
2
BLOCK_RECORD
5
1
100
AcDbSymbolTable
70
1
0
BLOCK_RECORD
5
1F
100
AcDbSymbolTableRecord
100
AcDbBlockTableRecord
2
*MODEL_SPACE
0
BLOCK_RECORD
5
1B
100
AcDbSymbolTableRecord
100
AcDbBlockTableRecord
2
*PAPER_SPACE
0
ENDTAB
0
ENDSEC
0
SECTION
2
BLOCKS
0
BLOCK
5
20
100
AcDbEntity
100
AcDbBlockBegin
2
*MODEL_SPACE
0
ENDBLK
5
21
100
AcDbEntity
100
AcDbBlockEnd
0
BLOCK
5
1C
100
AcDbEntity
100
AcDbBlockBegin
2
*PAPER_SPACE
0
ENDBLK
5
1D
100
AcDbEntity
100
AcDbBlockEnd
0
ENDSEC
0
SECTION
2
ENTITIES
0
CIRCLE
5
100
100
AcDbEntity
8
0
100
AcDbCircle
10
-3.0715997349562122e-14
20
-1.5269684057478357e-14
30
0
40
15
210
0
220
0
230
1
0
LWPOLYLINE
5
101
100
AcDbEntity
8
0
100
AcDbPolyline
90
208
70
1
43
0.0
10
-12.414468412270992
20
12.000248915781944
10
-12.917078913508124
20
12.111526424947689
42
0.014121477173485676
10
-13.580201571748983
20
11.36301567677652
10
-13.409152399632111
20
10.87748279352537
42
0.0084823774023219233
10
-13.770423126617167
20
10.416354780532737
10
-14.282782052952125
20
10.466237950088297
42
0.014121477173489118
10
-14.850846799683543
20
9.6432540841942362
10
-14.622520246713936
20
9.181878981692206
42
0.008482377402324378
10
-14.925574063485069
20
8.6805667369948818
10
-15.440210068039818
20
8.6683281580011595
42
0.014121477173473873
10
-15.904933240083531
20
7.782872132348051
10
-15.622658821550715
20
7.3523826985150809
42
0.0084823774023235592
10
-15.863076521041544
20
6.8181964834977338
10
-16.372485052010628
20
6.7440146219956087
42
0.014121477173498461
10
-16.727089939053613
20
5.8089983793088953
10
-16.394983851605325
20
5.4156721194696624
42
0.0084823774023235592
10
-16.569259602383731
20
4.8564015720299309
10
-17.066012336297327
20
4.7213581666028279
42
0.014121477173451745
10
-17.305328000584474
20
3.7504163491786628
10
-16.928233098815085
20
3.399988845890821
42
0.0084823774023219233
10
-17.033825567999948
20
2.8237893899778896
10
-17.510678731407971
20
2.6298536775683559
42
0.014121477173484692
10
-17.631215411663309
20
1.6371448034702292
10
-17.214630588382938
20
1.3347260788307802
42
0.0084823774023235592
10
-17.250000000000011
20
0.75000000000005151
10
-17.699999999999129
20
0.49999999999775468
42
0.014121477173441418
10
-17.699999999999065
20
-0.49999999999991529
10
-17.250000000000018
20
-0.75000000000001077
42
0.0084823774023202875
10
-17.214630588382953
20
-1.3347260788305975
10
-17.631215411663227
20
-1.6371448034701626
42
0.014121477173397651
10
-17.510678731408696
20
-2.629853677562966
10
-17.033825567999955
20
-2.823789389977863
42
0.0084823774023219233
10
-16.928233098815102
20
-3.3999888458907614
10
-17.305328000584925
20
-3.7504163491767226
42
0.014121477173453219
10
-17.066012336297806
20
-4.7213581666012034
10
-16.569259602383749
20
-4.8564015720299079
42
0.008482377402324378
10
-16.394983851605311
20
-5.4156721194697237
10
-16.727089939048334
20
-5.8089983793144171
42
0.014121477173445843
10
-16.372485052006439
20
-6.7440146219974366
10
-15.863076521041521
20
-6.8181964834978039
42
0.0084823774023251967
10
-15.622658821550706
20
-7.3523826985151199
10
-15.904933240083725
20
-7.7828721323480803
42
0.014121477173477807
10
-15.440210068040013
20
-8.6683281580011968
10
-14.925574063485051
20
-8.6805667369949351
42
0.0084823774023251967
10
-14.622520246713893
20
-9.1818789816923125
10
-14.850846799683326
20
-9.6432540841946128
42
0.014121477173478791
10
-14.282782052952161
20
-10.466237950088281
10
-13.77042312661721
20
-10.416354780532702
42
0.0084823774023211045
10
-13.409152399632141
20
-10.877482793525356
10
-13.580201571748923
20
-11.363015676776513
42
0.014121477173481249
10
-12.917078913508167
20
-12.111526424947577
10
-12.414468412270947
20
-12.00024891578202
42
0.008482377402324378
10
-12.000248915782077
20
-12.414468412270885
10
-12.111526424947725
20
-12.91707891350811
42
0.014121477173480758
10
-11.3630156767766
20
-13.580201571748926
10
-10.877482793525415
20
-13.409152399632092
42
0.0084823774023219233
10
-10.416354780532725
20
-13.770423126617191
10
-10.466237950088326
20
-14.282782052952111
42
0.014121477173428139
10
-9.6432540841979204
20
-14.850846799681161
10
-9.181878981692245
20
-14.622520246713922
42
0.0084823774023235592
10
-8.6805667369950505
20
-14.92557406348498
10
-8.6683281580013762
20
-15.440210068039912
42
0.014121477173481249
10
-7.7828721323481549
20
-15.904933240083691
10
-7.3523826985151288
20
-15.622658821550694
42
0.008482377402324378
10
-6.8181964834978404
20
-15.863076521041501
10
-6.7440146219956487
20
-16.372485052010614
42
0.014121477173472889
10
-5.8089983793102054
20
-16.727089939053162
10
-5.4156721194697166
20
-16.394983851605307
42
0.0084823774023219233
10
-4.8564015720301228
20
-16.569259602383678
10
-4.7213581666000319
20
-17.066012336296652
42
0.014121477173444367
10
-3.7504163491765166
20
-17.305328000583515
10
-3.3999888458908489
20
-16.92823309881507
42
0.0084823774023211045
10
-2.8237893899780317
20
-17.033825567999919
10
-2.6298536775683146
20
-17.510678731407911
42
0.014121477173434533
10
-1.6371448034730491
20
-17.631215411662975
10
-1.3347260788308279
20
-17.214630588382924
42
0.0084823774023202875
10
-0.75000000000025668
20
-17.249999999999993
10
-0.50000000000006273
20
-17.700000000000014
42
0.014121477173468957
10
0.49999999999987899
20
-17.700000000000017
10
0.74999999999996625
20
-17.250000000000004
42
0.008482377402324378
10
1.3347260788307911
20
-17.214630588382928
10
1.6371448034716063
20
-17.631215411662431
42
0.014121477173455677
10
2.6298536775680721
20
-17.510678731407257
10
2.8237893899778088
20
-17.033825567999948
42
0.008482377402324378
10
3.3999888458908294
20
-16.928233098815063
10
3.7504163491802145
20
-17.305328000581913
42
0.014121477173419779
10
4.7213581666021076
20
-17.066012336295262
10
4.8564015720298643
20
-16.569259602383738
42
0.0084823774023235592
10
5.4156721194696082
20
-16.394983851605325
10
5.8089983793101183
20
-16.727089939053116
42
0.014121477173469447
10
6.7440146219954293
20
-16.372485052010617
10
6.8181964834977693
20
-15.863076521041508
42
0.0084823774023219233
10
7.3523826985149521
20
-15.622658821550759
10
7.7828721323480341
20
-15.904933240083716
42
0.014121477173478791
10
8.6683281580013354
20
-15.440210068039892
10
8.6805667369948516
20
-14.925574063485067
42
0.0084823774023251967
10
9.1818789816922131
20
-14.622520246713913
10
9.6432540841944689
20
-14.850846799682833
42
0.014121477173475842
10
10.466237950088031
20
-14.282782052951731
10
10.416354780532661
20
-13.770423126617201
42
0.0084823774023219233
10
10.877482793525266
20
-13.409152399632173
10
11.363015676776328
20
-13.580201571749361
42
0.014121477173487643
10
12.111526424947774
20
-12.917078913508275
10
12.000248915781979
20
-12.414468412270933
42
0.0084823774023235592
10
12.414468412270796
20
-12.000248915782121
10
12.917078913508073
20
-12.111526424947712
42
0.014121477173473873
10
13.580201571748532
20
-11.363015676777019
10
13.409152399632053
20
-10.877482793525402
42
0.008482377402324378
10
13.770423126617144
20
-10.416354780532725
10
14.282782052952074
20
-10.46623795008831
42
0.014121477173483216
10
14.850846799683183
20
-9.6432540841947407
10
14.622520246713883
20
-9.1818789816922397
42
0.0084823774023235592
10
14.92557406348501
20
-8.6805667369949351
10
15.440210068039875
20
-8.6683281580013638
42
0.014121477173481249
10
15.904933240083652
20
-7.7828721323481442
10
15.622658821550658
20
-7.3523826985151182
42
0.0084823774023251967
10
15.863076521041508
20
-6.8181964834977311
10
16.372485052010578
20
-6.7440146219956434
42
0.014121477173476333
10
16.727089939053137
20
-5.8089983793101831
10
16.394983851605271
20
-5.4156721194697059
42
0.0084823774023235592
10
16.569259602383696
20
-4.8564015720299194
10
17.066012336297277
20
-4.7213581666028634
42
0.014121477173477807
10
17.305328000584819
20
-3.7504163491768909
10
16.928233098815028
20
-3.3999888458908565
42
0.0084823774023235592
10
17.033825567999898
20
-2.8237893899779447
10
17.510678731406209
20
-2.6298536775639936
42
0.014121477173424206
10
17.631215411660929
20
-1.6371448034699658
10
17.214630588382889
20
-1.3347260788308168
42
0.008482377402324378
10
17.249999999999972
20
-0.74999999999998523
10
17.700000000001442
20
-0.50000000000289024
42
0.014121477173513215
10
17.700000000001523
20
0.50000000000001488
10
17.249999999999964
20
0.74999999999998457
42
0.0084823774023235592
10
17.214630588382892
20
1.3347260788307249
10
17.631215411663174
20
1.6371448034701475
42
0.014121477173469447
10
17.510678731407857
20
2.6298536775681702
10
17.033825567999909
20
2.8237893899778319
42
0.0084823774023219233
10
16.928233098815053
20
3.3999888458907201
10
17.305328000586307
20
3.7504163491757971
42
0.014121477173490592
10
17.066012336298471
20
4.7213581666031317
10
16.569259602383696
20
4.8564015720298883
42
0.0084823774023235592
10
16.394983851605318
20
5.4156721194695461
10
16.727089939053073
20
5.808998379310129
42
0.014121477173471415
10
16.372485052010521
20
6.7440146219955786
10
15.863076521041471
20
6.8181964834977862
42
0.0084823774023219233
10
15.622658821550724
20
7.3523826985149618
10
15.904933240083675
20
7.7828721323480572
42
0.014121477173471415
10
15.440210068039896
20
8.668328158001291
10
14.925574063485008
20
8.6805667369949049
42
0.0084823774023211045
10
14.622520246713959
20
9.1818789816920976
10
14.850846799685931
20
9.6432540841931349
42
0.014121477173520591
10
14.282782052953195
20
10.466237950089194
10
13.77042312661716
20
10.416354780532679
42
0.0084823774023235592
10
13.409152399632109
20
10.877482793525314
10
13.580201571754047
20
11.363015676773951
42
0.014121477173558949
10
12.917078913509826
20
12.111526424949151
10
12.414468412270899
20
12.000248915781995
42
0.008482377402324378
10
12.000248915782006
20
12.414468412270887
10
12.111526424950764
20
12.917078913507719
42
0.0141214771735201
10
11.363015676777756
20
13.580201571750298
10
10.877482793525363
20
13.409152399632076
42
0.0084823774023219233
10
10.416354780532679
20
13.770423126617166
10
10.466237950088274
20
14.282782052952092
42
0.014121477173432566
10
9.643254084197789
20
14.850846799681189
10
9.1818789816921988
20
14.622520246713901
42
0.0084823774023219233
10
8.6805667369949262
20
14.925574063485003
10
8.6683281580013158
20
15.440210068039891
42
0.014121477173481249
10
7.7828721323481158
20
15.904933240083652
10
7.3523826985150684
20
15.622658821550681
42
0.008482377402324378
10
6.8181964834977213
20
15.863076521041508
10
6.744014621995599
20
16.372485052010589
42
0.014121477173481741
10
5.8089983793101929
20
16.72708993905313
10
5.41567211946965
20
16.394983851605289
42
0.0084823774023219233
10
4.8564015720299478
20
16.569259602383688
10
4.7213581666033804
20
17.066012336297316
42
0.014121477173492561
10
3.7504163491767502
20
17.305328000585035
10
3.3999888458908023
20
16.928233098815046
42
0.0084823774023219233
10
2.8237893899779327
20
17.033825567999905
10
2.6298536775682546
20
17.510678731407889
42
0.014121477173482232
10
1.6371448034702678
20
17.631215411663202
10
1.3347260788307702
20
17.214630588382903
42
0.0084823774023235592
10
0.74999999999999645
20
17.249999999999979
10
0.49999999999393874
20
17.699999999996713
42
0.014121477173388798
10
-0.4999999999998806
20
17.699999999996546
10
-0.7500000000000262
20
17.249999999999982
42
0.008482377402324378
10
-1.3347260788308022
20
17.21463058838291
10
-1.6371448034701741
20
17.631215411663188
42
0.014121477173479774
10
-2.6298536775682138
20
17.510678731407868
10
-2.8237893899778754
20
17.033825567999919
42
0.0084823774023219233
10
-3.3999888458907321
20
16.92823309881507
10
-3.7504163491767355
20
17.305328000584893
42
0.014121477173479282
10
-4.7213581666024531
20
17.06601233629743
10
-4.8564015720299327
20
16.56925960238371
42
0.0084823774023235592
10
-5.4156721194696198
20
16.394983851605311
10
-5.8089983793101645
20
16.727089939053091
42
0.014121477173478791
10
-6.7440146219955812
20
16.372485052010553
10
-6.8181964834978288
20
15.863076521041481
42
0.0084823774023235592
10
-7.3523826985151235
20
15.622658821550676
10
-7.7828721323480989
20
15.904933240083663
42
0.0141214771734783
10
-8.6683281580013407
20
15.440210068039875
10
-8.6805667369949582
20
14.92557406348501
42
0.0084823774023235592
10
-9.1818789816922184
20
14.622520246713917
10
-9.643254084193341
20
14.85084679968663
42
0.014121477173503871
10
-10.466237950088546
20
14.282782052954545
10
-10.416354780532719
20
13.770423126617173
42
0.0084823774023251967
10
-10.87748279352553
20
13.409152399631974
10
-11.363015676776524
20
13.580201571748894
42
0.014121477173488134
10
-12.111526424947614
20
12.917078913508114
10
-12.000248915782034
20
12.414468412270907
42
0.0084823774023251967
0
ENDSEC
0
SECTION
2
OBJECTS
0
DICTIONARY
5
C
100
AcDbDictionary
3
ACAD_GROUP
350
D
3
ACAD_MLINESTYLE
350
17
0
DICTIONARY
5
D
100
AcDbDictionary
0
DICTIONARY
5
1A
330
C
100
AcDbDictionary
0
DICTIONARY
5
17
100
AcDbDictionary
0
ENDSEC
0
EOF
