0
SECTION
2
HEADER
9
$INSUNITS
70
1
9
$ACADVER
1
AC1014
9
$HANDSEED
5
FFFF
0
ENDSEC
0
SECTION
2
TABLES
0
TABLE
2
VPORT
5
8
100
AcDbSymbolTable
0
ENDTAB
0
TABLE
2
LTYPE
5
5
100
AcDbSymbolTable
0
LTYPE
5
14
100
AcDbSymbolTableRecord
100
AcDbLinetypeTableRecord
2
BYBLOCK
70
0
0
LTYPE
5
15
100
AcDbSymbolTableRecord
100
AcDbLinetypeTableRecord
2
BYLAYER
70
0
0
ENDTAB
0
TABLE
2
LAYER
5
2
100
AcDbSymbolTable
70
2
0
LAYER
5
50
100
AcDbSymbolTableRecord
100
AcDbLayerTableRecord
2
0
70
0
6
CONTINUOUS
0
ENDTAB
0
TABLE
2
STYLE
5
3
100
AcDbSymbolTable
70
1
0
STYLE
5
11
100
AcDbSymbolTableRecord
100
AcDbTextStyleTableRecord
2
STANDARD
70
0
0
ENDTAB
0
TABLE
2
VIEW
5
6
100
AcDbSymbolTable
70
0
0
ENDTAB
0
TABLE
2
UCS
5
7
100
AcDbSymbolTable
70
0
0
ENDTAB
0
TABLE
2
APPID
5
9
100
AcDbSymbolTable
70
2
0
APPID
5
12
100
AcDbSymbolTableRecord
100
AcDbRegAppTableRecord
2
ACAD
70
0
0
ENDTAB
0
TABLE
2
DIMSTYLE
5
A
100
AcDbSymbolTable
70
1
0
ENDTAB
0
TABLE
2
BLOCK_RECORD
5
1
100
AcDbSymbolTable
70
1
0
BLOCK_RECORD
5
1F
100
AcDbSymbolTableRecord
100
AcDbBlockTableRecord
2
*MODEL_SPACE
0
BLOCK_RECORD
5
1B
100
AcDbSymbolTableRecord
100
AcDbBlockTableRecord
2
*PAPER_SPACE
0
ENDTAB
0
ENDSEC
0
SECTION
2
BLOCKS
0
BLOCK
5
20
100
AcDbEntity
100
AcDbBlockBegin
2
*MODEL_SPACE
0
ENDBLK
5
21
100
AcDbEntity
100
AcDbBlockEnd
0
BLOCK
5
1C
100
AcDbEntity
100
AcDbBlockBegin
2
*PAPER_SPACE
0
ENDBLK
5
1D
100
AcDbEntity
100
AcDbBlockEnd
0
ENDSEC
0
SECTION
2
ENTITIES
0
CIRCLE
5
100
100
AcDbEntity
8
0
100
AcDbCircle
10
8.7419135797299992e-18
20
5.4636959873299995e-19
30
0
40
0.39370078740199999
210
0
220
-0
230
1
0
LWPOLYLINE
5
101
100
AcDbEntity
8
0
100
AcDbPolyline
90
36
70
1
43
0.0
10
-0.31260217221793357
20
0.55819134310788188
42
0.046940153775889858
10
-0.41123223060703679
20
0.49008748821604536
10
-0.4397021542640337
20
0.52401662201504073
42
0.12832470699710816
10
-0.63968402631058408
20
0.24235459784284244
10
-0.59826563611848205
20
0.22666257352218352
42
0.094087618142990465
10
-0.63970896941294542
20
-0.0083742491352090265
10
-0.68399651344851864
20
-0.0089540048445633427
42
0.080897261972417214
10
-0.64580892635112452
20
-0.22552657328504314
10
-0.60399395989744153
20
-0.21092413328815413
42
0.094087618143192775
10
-0.48466263764750483
20
-0.41761204635943466
10
-0.51821620486907249
20
-0.44652364956806195
42
0.080897261972595252
10
-0.3497526523851211
20
-0.58788135432420252
10
-0.32710679719538599
20
-0.54981709397264811
42
0.094087618143036303
10
-0.10283727130198959
20
-0.63144452585093502
10
-0.10995677469900023
20
-0.67515991610199999
42
0.080897261972027013
10
0.10995677469900007
20
-0.67515991610199999
10
0.10283727130198883
20
-0.63144452585093513
42
0.094087618143036553
10
0.3271067971953856
20
-0.54981709397264833
10
0.34975265238499986
20
-0.58788135432400046
42
0.080897261972595336
10
0.51821620486889342
20
-0.44652364956790852
10
0.48466263764750417
20
-0.41761204635943544
42
0.094087618143193399
10
0.60399395989744153
20
-0.21092413328815438
10
0.64580892635112452
20
-0.22552657328504375
42
0.080897261972413537
10
0.68399651344851864
20
-0.0089540048445742107
10
0.63970896941294519
20
-0.0083742491352194505
42
0.094087618142994212
10
0.59826563611848238
20
0.22666257352218261
10
0.63968402631058441
20
0.24235459784284202
42
0.080897261972531331
10
0.52972725161092549
20
0.43280531825893881
10
0.49542836481674318
20
0.40478195232860764
42
0.094087618142995738
10
0.31260217221793374
20
0.55819134310788132
10
0.33424386106292719
20
0.59683535916886876
42
0.080897261972417131
10
0.1275927214818898
20
0.67205022285341931
10
0.11933132225011288
20
0.62853617964759279
42
0.094087618143328777
10
-0.11933132225011234
20
0.62853617964759279
10
-0.12759272148188938
20
0.67205022285341953
42
0.080897261972416867
10
-0.33424386106292642
20
0.5968353591688691
0
ENDSEC
0
SECTION
2
OBJECTS
0
DICTIONARY
5
C
100
AcDbDictionary
3
ACAD_GROUP
350
D
3
ACAD_MLINESTYLE
350
17
0
DICTIONARY
5
D
100
AcDbDictionary
0
DICTIONARY
5
1A
330
C
100
AcDbDictionary
0
DICTIONARY
5
17
100
AcDbDictionary
0
ENDSEC
0
EOF
