0
SECTION
2
HEADER
9
$INSUNITS
70
1
9
$ACADVER
1
AC1014
9
$HANDSEED
5
FFFF
0
ENDSEC
0
SECTION
2
TABLES
0
TABLE
2
VPORT
5
8
100
AcDbSymbolTable
0
ENDTAB
0
TABLE
2
LTYPE
5
5
100
AcDbSymbolTable
0
LTYPE
5
14
100
AcDbSymbolTableRecord
100
AcDbLinetypeTableRecord
2
BYBLOCK
70
0
0
LTYPE
5
15
100
AcDbSymbolTableRecord
100
AcDbLinetypeTableRecord
2
BYLAYER
70
0
0
ENDTAB
0
TABLE
2
LAYER
5
2
100
AcDbSymbolTable
70
2
0
LAYER
5
50
100
AcDbSymbolTableRecord
100
AcDbLayerTableRecord
2
0
70
0
6
CONTINUOUS
0
ENDTAB
0
TABLE
2
STYLE
5
3
100
AcDbSymbolTable
70
1
0
STYLE
5
11
100
AcDbSymbolTableRecord
100
AcDbTextStyleTableRecord
2
STANDARD
70
0
0
ENDTAB
0
TABLE
2
VIEW
5
6
100
AcDbSymbolTable
70
0
0
ENDTAB
0
TABLE
2
UCS
5
7
100
AcDbSymbolTable
70
0
0
ENDTAB
0
TABLE
2
APPID
5
9
100
AcDbSymbolTable
70
2
0
APPID
5
12
100
AcDbSymbolTableRecord
100
AcDbRegAppTableRecord
2
ACAD
70
0
0
ENDTAB
0
TABLE
2
DIMSTYLE
5
A
100
AcDbSymbolTable
70
1
0
ENDTAB
0
TABLE
2
BLOCK_RECORD
5
1
100
AcDbSymbolTable
70
1
0
BLOCK_RECORD
5
1F
100
AcDbSymbolTableRecord
100
AcDbBlockTableRecord
2
*MODEL_SPACE
0
BLOCK_RECORD
5
1B
100
AcDbSymbolTableRecord
100
AcDbBlockTableRecord
2
*PAPER_SPACE
0
ENDTAB
0
ENDSEC
0
SECTION
2
BLOCKS
0
BLOCK
5
20
100
AcDbEntity
100
AcDbBlockBegin
2
*MODEL_SPACE
0
ENDBLK
5
21
100
AcDbEntity
100
AcDbBlockEnd
0
BLOCK
5
1C
100
AcDbEntity
100
AcDbBlockBegin
2
*PAPER_SPACE
0
ENDBLK
5
1D
100
AcDbEntity
100
AcDbBlockEnd
0
ENDSEC
0
SECTION
2
ENTITIES
0
LWPOLYLINE
5
100
100
AcDbEntity
8
0
100
AcDbPolyline
90
24
70
1
43
0.0
10
0.48642939178572225
20
0.82247566042363418
42
0.49780472146963028
10
0.28554062004946196
20
0.91189161608427649
10
-0.02396050786927471
20
0.74079285480841561
42
-0.20280421089689585
10
-0.13073709314524448
20
0.72955875167723394
10
-0.46907012002844212
20
0.83249804064562716
42
0.4978047214681241
10
-0.64695099500179265
20
0.70323123881746563
10
-0.65352568514103737
20
0.34964601890175989
42
-0.2028042108968956
10
-0.69718495907821765
20
0.2515577319576161
10
-0.95549951181397497
20
0.010022380222036876
42
0.49780472146963134
10
-0.93249161505151823
20
-0.20866037726634112
10
-0.62956517727138983
20
-0.39114683590646787
42
-0.20280421089752648
10
-0.56644786593267982
20
-0.47800101971932107
10
-0.48642939178553279
20
-0.8224756604235901
42
0.49780472146962984
10
-0.28554062004946196
20
-0.91189161608427649
10
0.02396050786927471
20
-0.74079285480841572
42
-0.20280421089689585
10
0.13073709314524451
20
-0.72955875167723394
10
0.46907012002844212
20
-0.83249804064562716
42
0.49780472146812293
10
0.64695099500179254
20
-0.70323123881746596
10
0.65352568514103737
20
-0.34964601890175989
42
-0.2028042108968956
10
0.69718495907821765
20
-0.2515577319576161
10
0.95549951181397497
20
-0.010022380222036898
42
0.4978047214696304
10
0.93249161505151845
20
0.20866037726634121
10
0.62956517727138994
20
0.39114683590646809
42
-0.20280421089752648
10
0.56644786593267982
20
0.47800101971932107
0
CIRCLE
5
101
100
AcDbEntity
8
0
100
AcDbCircle
10
0.35220779074925956
20
0.79129714553904928
30
-4.3709567898628207e-17
40
0.081377952755899999
210
0
220
0
230
1
0
CIRCLE
5
102
100
AcDbEntity
8
0
100
AcDbCircle
10
0.86138732535364293
20
0.090627678569072306
30
-4.3709567898628207e-17
40
0.081377952755899999
210
0
220
0
230
1
0
CIRCLE
5
103
100
AcDbEntity
8
0
100
AcDbCircle
10
0.50917953460379528
20
-0.70066946696916821
30
-4.3709567898628207e-17
40
0.081377952755899999
210
0
220
0
230
1
0
CIRCLE
5
104
100
AcDbEntity
8
0
100
AcDbCircle
10
-0.35220779074925956
20
-0.79129714553904928
30
-4.3709567898628207e-17
40
0.081377952755899999
210
0
220
0
230
1
0
CIRCLE
5
105
100
AcDbEntity
8
0
100
AcDbCircle
10
-0.86138732535364293
20
-0.090627678569072306
30
-4.3709567898628207e-17
40
0.081377952755899999
210
0
220
0
230
1
0
CIRCLE
5
106
100
AcDbEntity
8
0
100
AcDbCircle
10
-0.50917953460379528
20
0.70066946696916821
30
-4.3709567898628207e-17
40
0.081377952755899999
210
0
220
0
230
1
0
CIRCLE
5
107
100
AcDbEntity
8
0
100
AcDbCircle
10
0
20
2.7318479936600005e-19
30
-4.3709567898628207e-17
40
0.51181102362199993
210
0
220
0
230
1
0
ENDSEC
0
SECTION
2
OBJECTS
0
DICTIONARY
5
C
100
AcDbDictionary
3
ACAD_GROUP
350
D
3
ACAD_MLINESTYLE
350
17
0
DICTIONARY
5
D
100
AcDbDictionary
0
DICTIONARY
5
1A
330
C
100
AcDbDictionary
0
DICTIONARY
5
17
100
AcDbDictionary
0
ENDSEC
0
EOF
