0
SECTION
2
HEADER
9
$INSUNITS
70
4
9
$ACADVER
1
AC1014
9
$HANDSEED
5
FFFF
0
ENDSEC
0
SECTION
2
TABLES
0
TABLE
2
VPORT
5
8
100
AcDbSymbolTable
0
ENDTAB
0
TABLE
2
LTYPE
5
5
100
AcDbSymbolTable
0
LTYPE
5
14
100
AcDbSymbolTableRecord
100
AcDbLinetypeTableRecord
2
BYBLOCK
70
0
0
LTYPE
5
15
100
AcDbSymbolTableRecord
100
AcDbLinetypeTableRecord
2
BYLAYER
70
0
0
ENDTAB
0
TABLE
2
LAYER
5
2
100
AcDbSymbolTable
70
2
0
LAYER
5
50
100
AcDbSymbolTableRecord
100
AcDbLayerTableRecord
2
0
70
0
6
CONTINUOUS
0
ENDTAB
0
TABLE
2
STYLE
5
3
100
AcDbSymbolTable
70
1
0
STYLE
5
11
100
AcDbSymbolTableRecord
100
AcDbTextStyleTableRecord
2
STANDARD
70
0
0
ENDTAB
0
TABLE
2
VIEW
5
6
100
AcDbSymbolTable
70
0
0
ENDTAB
0
TABLE
2
UCS
5
7
100
AcDbSymbolTable
70
0
0
ENDTAB
0
TABLE
2
APPID
5
9
100
AcDbSymbolTable
70
2
0
APPID
5
12
100
AcDbSymbolTableRecord
100
AcDbRegAppTableRecord
2
ACAD
70
0
0
ENDTAB
0
TABLE
2
DIMSTYLE
5
A
100
AcDbSymbolTable
70
1
0
ENDTAB
0
TABLE
2
BLOCK_RECORD
5
1
100
AcDbSymbolTable
70
1
0
BLOCK_RECORD
5
1F
100
AcDbSymbolTableRecord
100
AcDbBlockTableRecord
2
*MODEL_SPACE
0
BLOCK_RECORD
5
1B
100
AcDbSymbolTableRecord
100
AcDbBlockTableRecord
2
*PAPER_SPACE
0
ENDTAB
0
ENDSEC
0
SECTION
2
BLOCKS
0
BLOCK
5
20
100
AcDbEntity
100
AcDbBlockBegin
2
*MODEL_SPACE
0
ENDBLK
5
21
100
AcDbEntity
100
AcDbBlockEnd
0
BLOCK
5
1C
100
AcDbEntity
100
AcDbBlockBegin
2
*PAPER_SPACE
0
ENDBLK
5
1D
100
AcDbEntity
100
AcDbBlockEnd
0
ENDSEC
0
SECTION
2
ENTITIES
0
SPLINE
5
100
100
AcDbEntity
8
0
100
AcDbSpline
70
4
71
5
72
46
73
40
74
0
42
0.000000001
43
0.0000000001
44
0.0000000001
40
0
40
0
40
0
40
0
40
0
40
0
40
0.028571428571428567
40
0.057142857142857134
40
0.085714285714285715
40
0.11428571428571427
40
0.14285714285714285
40
0.17142857142857146
40
0.20000000000000001
40
0.22857142857142854
40
0.25714285714285717
40
0.2857142857142857
40
0.31428571428571433
40
0.34285714285714292
40
0.3714285714285715
40
0.40000000000000008
40
0.42857142857142871
40
0.4571428571428573
40
0.48571428571428582
40
0.51428571428571435
40
0.54285714285714293
40
0.57142857142857151
40
0.60000000000000009
40
0.62857142857142867
40
0.65714285714285725
40
0.68571428571428583
40
0.71428571428571441
40
0.74285714285714299
40
0.77142857142857146
40
0.80000000000000016
40
0.82857142857142863
40
0.85714285714285732
40
0.8857142857142859
40
0.91428571428571459
40
0.94285714285714295
40
0.97142857142857164
40
1
40
1
40
1
40
1
40
1
40
1
41
1
41
1
41
1
41
1
41
1
41
1
41
1
41
1
41
1
41
1
41
1
41
1
41
1
41
1
41
1
41
1
41
1
41
1
41
1
41
1
41
1
41
1
41
1
41
1
41
1
41
1
41
1
41
1
41
1
41
1
41
1
41
1
41
1
41
1
41
1
41
1
41
1
41
1
41
1
41
1
10
0
20
-5.6483185768843294
30
0
10
0.10035729511618373
20
-5.6483185768843294
30
0
10
0.30955629189071132
20
-5.6515914565647716
30
0
10
0.64880634977941776
20
-5.6663195223088252
30
0
10
1.1521348699666498
20
-5.7054564052239467
30
0
10
1.8631962368319068
20
-5.7854684004926495
30
0
10
2.646355649284025
20
-5.8936923177571066
30
0
10
3.4809032355166103
20
-6.0254147799462343
30
0
10
4.3326920401522644
20
-6.173596203128513
30
0
10
5.1473959765828816
20
-6.3286979737620186
30
0
10
5.8589241010389443
20
-6.4761833975643963
30
0
10
6.4116084630430228
20
-6.5857777134760287
30
0
10
6.7801142425260297
20
-6.6115275518173933
30
0
10
6.9872558197391532
20
-6.4687740746176221
30
0
10
7.1313707829787996
20
-6.0613152152598868
30
0
10
7.3470584339564668
20
-5.4879653070743872
30
0
10
7.7279503441992254
20
-4.8993499367014328
30
0
10
8.2929271781168374
20
-4.4513138934677432
30
0
10
8.8578459190446672
20
-4.2089181881920998
30
0
10
9.3361126222852384
20
-4.0974699705532034
30
0
10
9.6874189454663941
20
-3.9907410932505067
30
0
10
9.8775051664225995
20
-3.7650398039177202
30
0
10
9.801428111366068
20
-3.391274358699925
30
0
10
9.4498448818955438
20
-2.8765930517409881
30
0
10
8.8738350317397785
20
-2.2523063377533186
30
0
10
8.1619832767184857
20
-1.567395432129739
30
0
10
7.4146552598576898
20
-0.87911095513894544
30
0
10
6.7186789998912557
20
-0.24513530054769395
30
0
10
6.1247508924544158
20
0.28534124747987788
30
0
10
5.65041079306841
20
0.67659641539634885
30
0
10
5.2722011415511183
20
0.91659966159750295
30
0
10
4.936452543164676
20
1.0158932734732471
30
0
10
4.5274078291825788
20
1.0336777758636146
30
0
10
3.9607208375325893
20
1.0234243590796916
30
0
10
3.2137527231173975
20
1.0087814575293621
30
0
10
2.2918985318212952
20
1.0009864179490644
30
0
10
1.4349719444974915
20
0.99986791344594483
30
0
10
0.73721156870244664
20
0.999977224039032
30
0
10
0.24949545831644132
20
0.99999997764825821
30
0
10
0
20
0.99999997764825821
30
0
0
SPLINE
5
101
100
AcDbEntity
8
0
100
AcDbSpline
70
4
71
5
72
86
73
80
74
0
42
0.000000001
43
0.0000000001
44
0.0000000001
40
0
40
0
40
0
40
0
40
0
40
0
40
0.013333333333333334
40
0.026666666666666668
40
0.040000000000000001
40
0.053333333333333337
40
0.066666666666666666
40
0.080000000000000002
40
0.09333333333333331
40
0.10666666666666667
40
0.12
40
0.13333333333333333
40
0.14666666666666667
40
0.16
40
0.17333333333333334
40
0.18666666666666668
40
0.20000000000000001
40
0.21333333333333332
40
0.22666666666666671
40
0.23999999999999999
40
0.2533333333333333
40
0.26666666666666666
40
0.28000000000000003
40
0.29333333333333328
40
0.30666666666666653
40
0.3199999999999999
40
0.3333333333333332
40
0.34666666666666651
40
0.35999999999999988
40
0.37333333333333307
40
0.38666666666666638
40
0.39999999999999969
40
0.41333333333333305
40
0.42666666666666642
40
0.43999999999999972
40
0.45333333333333298
40
0.46666666666666629
40
0.47999999999999959
40
0.4933333333333329
40
0.50666666666666627
40
0.51999999999999957
40
0.53333333333333288
40
0.54666666666666619
40
0.5599999999999995
40
0.57333333333333281
40
0.58666666666666611
40
0.59999999999999942
40
0.61333333333333273
40
0.62666666666666615
40
0.63999999999999935
40
0.65333333333333266
40
0.66666666666666596
40
0.67999999999999927
40
0.69333333333333258
40
0.70666666666666578
40
0.7199999999999992
40
0.7333333333333325
40
0.74666666666666581
40
0.75999999999999901
40
0.77333333333333254
40
0.78666666666666585
40
0.79999999999999905
40
0.81333333333333235
40
0.82666666666666555
40
0.83999999999999886
40
0.85333333333333217
40
0.86666666666666559
40
0.87999999999999889
40
0.8933333333333322
40
0.90666666666666562
40
0.91999999999999882
40
0.93333333333333202
40
0.94666666666666544
40
0.95999999999999885
40
0.97333333333333205
40
0.98666666666666525
40
1
40
1
40
1
40
1
40
1
40
1
41
1
41
1
41
1
41
1
41
1
41
1
41
1
41
1
41
1
41
1
41
1
41
1
41
1
41
1
41
1
41
1
41
1
41
1
41
1
41
1
41
1
41
1
41
1
41
1
41
1
41
1
41
1
41
1
41
1
41
1
41
1
41
1
41
1
41
1
41
1
41
1
41
1
41
1
41
1
41
1
41
1
41
1
41
1
41
1
41
1
41
1
41
1
41
1
41
1
41
1
41
1
41
1
41
1
41
1
41
1
41
1
41
1
41
1
41
1
41
1
41
1
41
1
41
1
41
1
41
1
41
1
41
1
41
1
41
1
41
1
41
1
41
1
41
1
41
1
41
1
41
1
41
1
41
1
41
1
41
1
10
0
20
3.1978143738252802
30
0
10
0.24987871081596857
20
3.1978143738252802
30
0
10
0.73100069069171603
20
3.1946803442882095
30
0
10
1.3967768233441062
20
3.1805777922568468
30
0
10
2.1727789540951372
20
3.145576989747751
30
0
10
2.9601583541955496
20
3.0886387601401681
30
0
10
3.574529441379513
20
3.0337472716382878
30
0
10
4.0341624012148429
20
2.9919605048548541
30
0
10
4.3691032464299342
20
2.963966475495496
30
0
10
4.6230743286516223
20
2.9352484572780631
30
0
10
4.8585119038828593
20
2.8677603887840535
30
0
10
5.1417326091014557
20
2.7138485560483225
30
0
10
5.5240327164463663
20
2.4349279265126547
30
0
10
6.0220419092641819
20
2.0204966565166602
30
0
10
6.6236334028781654
20
1.4837542827826886
30
0
10
7.2973127212964428
20
0.85394891501989756
30
0
10
8.0003834661730995
20
0.16988258819605015
30
0
10
8.6874737352035289
20
-0.52694272796947583
30
0
10
9.3192219883273903
20
-1.1992854948024176
30
0
10
9.8701437798719525
20
-1.8204549075463796
30
0
10
10.33883002925057
20
-2.382513261714045
30
0
10
10.74227512528152
20
-2.8922619251110655
30
0
10
11.106686443732652
20
-3.3656392983070842
30
0
10
11.458932875377743
20
-3.8202163691744828
30
0
10
11.819016572544665
20
-4.2739883518081694
30
0
10
12.1890625951026
20
-4.7285010344194616
30
0
10
12.552319556053309
20
-5.1951092309061417
30
0
10
12.885816048977905
20
-5.711846288392235
30
0
10
13.163627596899623
20
-6.3207821058570302
30
0
10
13.363766812744675
20
-7.0599952603021841
30
0
10
13.473292639398469
20
-7.9498082425898673
30
0
10
13.494782947271846
20
-8.9803657445619383
30
0
10
13.450481077908199
20
-10.101885410856893
30
0
10
13.371896410019257
20
-11.24207512776298
30
0
10
13.291518209496068
20
-12.319810258439574
30
0
10
13.232541548121048
20
-13.261546290086052
30
0
10
13.202116873738577
20
-14.013611574935613
30
0
10
13.176836964145
20
-14.563156754676767
30
0
10
13.106178571107778
20
-14.939287488177055
30
0
10
12.869972750592694
20
-15.264800113839431
30
0
10
12.464618047498162
20
-15.558331261867639
30
0
10
11.95745161799602
20
-15.77905448307912
30
0
10
11.448407615388765
20
-15.864950087656094
30
0
10
11.026361359620584
20
-15.776449528726575
30
0
10
10.741560094930652
20
-15.522537229341101
30
0
10
10.615913774225907
20
-15.148401835676664
30
0
10
10.642512685289233
20
-14.73043654286335
30
0
10
10.795670495957301
20
-14.369758419893046
30
0
10
11.034203603890145
20
-14.146815868402008
30
0
10
11.349472198317464
20
-14.074644188276315
30
0
10
11.709421471558164
20
-14.049499845655136
30
0
10
11.844659241579043
20
-13.950062898161127
30
0
10
11.803734381927512
20
-13.619769660581698
30
0
10
11.780991594460366
20
-13.007323148967116
30
0
10
11.796276154613006
20
-12.201443270704729
30
0
10
11.835620842906476
20
-11.348859859375873
30
0
10
11.813877578749404
20
-10.614366270826039
30
0
10
11.625359227710696
20
-10.127567222760664
30
0
10
11.120510538379127
20
-9.924489546719963
30
0
10
10.430909814171256
20
-9.9244323750526409
30
0
10
9.7654475179328646
20
-10.002450312853703
30
0
10
9.3141120042874199
20
-10.031103499861837
30
0
10
9.0278949304583271
20
-9.9538746053687674
30
0
10
8.6485045320639014
20
-9.7993696357492119
30
0
10
8.2081017082175762
20
-9.55563994544457
30
0
10
7.7770472660669432
20
-9.2243455095214486
30
0
10
7.4502233043799837
20
-8.8178334585702522
30
0
10
7.2164984259969955
20
-8.3849083586003523
30
0
10
6.9888855440450834
20
-7.9921422841963334
30
0
10
6.6691919202003209
20
-7.6915255683799364
30
0
10
6.1908393055763211
20
-7.5005078920379997
30
0
10
5.6023934367250297
20
-7.3552210515483196
30
0
10
4.9244306319234408
20
-7.2240219621509638
30
0
10
4.1617950151758674
20
-7.0944846536662141
30
0
10
3.306812343984519
20
-6.9697785683462108
30
0
10
2.3449162507616554
20
-6.8621868855279704
30
0
10
1.4764129645387605
20
-6.8026949175606219
30
0
10
0.7630503947339583
20
-6.7793934943249576
30
0
10
0.25908226731715456
20
-6.7742155086093643
30
0
10
0
20
-6.7742155086093643
30
0
0
SPLINE
5
102
100
AcDbEntity
8
0
100
AcDbSpline
70
4
71
5
72
46
73
40
74
0
42
0.000000001
43
0.0000000001
44
0.0000000001
40
0
40
0
40
0
40
0
40
0
40
0
40
0.028571428571428567
40
0.057142857142857134
40
0.085714285714285715
40
0.11428571428571427
40
0.14285714285714285
40
0.17142857142857146
40
0.20000000000000001
40
0.22857142857142854
40
0.25714285714285717
40
0.2857142857142857
40
0.31428571428571433
40
0.34285714285714292
40
0.3714285714285715
40
0.40000000000000008
40
0.42857142857142871
40
0.4571428571428573
40
0.48571428571428582
40
0.51428571428571435
40
0.54285714285714293
40
0.57142857142857151
40
0.60000000000000009
40
0.62857142857142867
40
0.65714285714285725
40
0.68571428571428583
40
0.71428571428571441
40
0.74285714285714299
40
0.77142857142857146
40
0.80000000000000016
40
0.82857142857142863
40
0.85714285714285732
40
0.8857142857142859
40
0.91428571428571459
40
0.94285714285714295
40
0.97142857142857164
40
1
40
1
40
1
40
1
40
1
40
1
41
1
41
1
41
1
41
1
41
1
41
1
41
1
41
1
41
1
41
1
41
1
41
1
41
1
41
1
41
1
41
1
41
1
41
1
41
1
41
1
41
1
41
1
41
1
41
1
41
1
41
1
41
1
41
1
41
1
41
1
41
1
41
1
41
1
41
1
41
1
41
1
41
1
41
1
41
1
41
1
10
0
20
-5.6483185768843294
30
0
10
-0.10035729511618373
20
-5.6483185768843294
30
0
10
-0.30955629189071132
20
-5.6515914565647716
30
0
10
-0.64880634977941776
20
-5.6663195223088252
30
0
10
-1.1521348699666498
20
-5.7054564052239467
30
0
10
-1.8631962368319068
20
-5.7854684004926495
30
0
10
-2.646355649284025
20
-5.8936923177571066
30
0
10
-3.4809032355166103
20
-6.0254147799462343
30
0
10
-4.3326920401522644
20
-6.173596203128513
30
0
10
-5.1473959765828816
20
-6.3286979737620186
30
0
10
-5.8589241010389443
20
-6.4761833975643963
30
0
10
-6.4116084630430228
20
-6.5857777134760287
30
0
10
-6.7801142425260297
20
-6.6115275518173933
30
0
10
-6.9872558197391532
20
-6.4687740746176221
30
0
10
-7.1313707829787996
20
-6.0613152152598868
30
0
10
-7.3470584339564668
20
-5.4879653070743872
30
0
10
-7.7279503441992254
20
-4.8993499367014328
30
0
10
-8.2929271781168374
20
-4.4513138934677432
30
0
10
-8.8578459190446672
20
-4.2089181881920998
30
0
10
-9.3361126222852384
20
-4.0974699705532034
30
0
10
-9.6874189454663941
20
-3.9907410932505067
30
0
10
-9.8775051664225995
20
-3.7650398039177202
30
0
10
-9.801428111366068
20
-3.391274358699925
30
0
10
-9.4498448818955438
20
-2.8765930517409881
30
0
10
-8.8738350317397785
20
-2.2523063377533186
30
0
10
-8.1619832767184857
20
-1.567395432129739
30
0
10
-7.4146552598576898
20
-0.87911095513894544
30
0
10
-6.7186789998912557
20
-0.24513530054769395
30
0
10
-6.1247508924544158
20
0.28534124747987788
30
0
10
-5.65041079306841
20
0.67659641539634885
30
0
10
-5.2722011415511183
20
0.91659966159750295
30
0
10
-4.936452543164676
20
1.0158932734732471
30
0
10
-4.5274078291825788
20
1.0336777758636146
30
0
10
-3.9607208375325893
20
1.0234243590796916
30
0
10
-3.2137527231173975
20
1.0087814575293621
30
0
10
-2.2918985318212952
20
1.0009864179490644
30
0
10
-1.4349719444974915
20
0.99986791344594483
30
0
10
-0.73721156870244664
20
0.999977224039032
30
0
10
-0.24949545831644132
20
0.99999997764825821
30
0
10
0
20
0.99999997764825821
30
0
0
SPLINE
5
103
100
AcDbEntity
8
0
100
AcDbSpline
70
4
71
5
72
86
73
80
74
0
42
0.000000001
43
0.0000000001
44
0.0000000001
40
0
40
0
40
0
40
0
40
0
40
0
40
0.013333333333333334
40
0.026666666666666668
40
0.040000000000000001
40
0.053333333333333337
40
0.066666666666666666
40
0.080000000000000002
40
0.09333333333333331
40
0.10666666666666667
40
0.12
40
0.13333333333333333
40
0.14666666666666667
40
0.16
40
0.17333333333333334
40
0.18666666666666668
40
0.20000000000000001
40
0.21333333333333332
40
0.22666666666666671
40
0.23999999999999999
40
0.2533333333333333
40
0.26666666666666666
40
0.28000000000000003
40
0.29333333333333328
40
0.30666666666666653
40
0.3199999999999999
40
0.3333333333333332
40
0.34666666666666651
40
0.35999999999999988
40
0.37333333333333307
40
0.38666666666666638
40
0.39999999999999969
40
0.41333333333333305
40
0.42666666666666642
40
0.43999999999999972
40
0.45333333333333298
40
0.46666666666666629
40
0.47999999999999959
40
0.4933333333333329
40
0.50666666666666627
40
0.51999999999999957
40
0.53333333333333288
40
0.54666666666666619
40
0.5599999999999995
40
0.57333333333333281
40
0.58666666666666611
40
0.59999999999999942
40
0.61333333333333273
40
0.62666666666666615
40
0.63999999999999935
40
0.65333333333333266
40
0.66666666666666596
40
0.67999999999999927
40
0.69333333333333258
40
0.70666666666666578
40
0.7199999999999992
40
0.7333333333333325
40
0.74666666666666581
40
0.75999999999999901
40
0.77333333333333254
40
0.78666666666666585
40
0.79999999999999905
40
0.81333333333333235
40
0.82666666666666555
40
0.83999999999999886
40
0.85333333333333217
40
0.86666666666666559
40
0.87999999999999889
40
0.8933333333333322
40
0.90666666666666562
40
0.91999999999999882
40
0.93333333333333202
40
0.94666666666666544
40
0.95999999999999885
40
0.97333333333333205
40
0.98666666666666525
40
1
40
1
40
1
40
1
40
1
40
1
41
1
41
1
41
1
41
1
41
1
41
1
41
1
41
1
41
1
41
1
41
1
41
1
41
1
41
1
41
1
41
1
41
1
41
1
41
1
41
1
41
1
41
1
41
1
41
1
41
1
41
1
41
1
41
1
41
1
41
1
41
1
41
1
41
1
41
1
41
1
41
1
41
1
41
1
41
1
41
1
41
1
41
1
41
1
41
1
41
1
41
1
41
1
41
1
41
1
41
1
41
1
41
1
41
1
41
1
41
1
41
1
41
1
41
1
41
1
41
1
41
1
41
1
41
1
41
1
41
1
41
1
41
1
41
1
41
1
41
1
41
1
41
1
41
1
41
1
41
1
41
1
41
1
41
1
41
1
41
1
10
0
20
3.1978143738252802
30
0
10
-0.24987871081596857
20
3.1978143738252802
30
0
10
-0.73100069069171603
20
3.1946803442882095
30
0
10
-1.3967768233441062
20
3.1805777922568468
30
0
10
-2.1727789540951372
20
3.145576989747751
30
0
10
-2.9601583541955496
20
3.0886387601401681
30
0
10
-3.574529441379513
20
3.0337472716382878
30
0
10
-4.0341624012148429
20
2.9919605048548541
30
0
10
-4.3691032464299342
20
2.963966475495496
30
0
10
-4.6230743286516223
20
2.9352484572780631
30
0
10
-4.8585119038828593
20
2.8677603887840535
30
0
10
-5.1417326091014557
20
2.7138485560483225
30
0
10
-5.5240327164463663
20
2.4349279265126547
30
0
10
-6.0220419092641819
20
2.0204966565166602
30
0
10
-6.6236334028781654
20
1.4837542827826886
30
0
10
-7.2973127212964428
20
0.85394891501989756
30
0
10
-8.0003834661730995
20
0.16988258819605015
30
0
10
-8.6874737352035289
20
-0.52694272796947583
30
0
10
-9.3192219883273903
20
-1.1992854948024176
30
0
10
-9.8701437798719525
20
-1.8204549075463796
30
0
10
-10.33883002925057
20
-2.382513261714045
30
0
10
-10.74227512528152
20
-2.8922619251110655
30
0
10
-11.106686443732652
20
-3.3656392983070842
30
0
10
-11.458932875377743
20
-3.8202163691744828
30
0
10
-11.819016572544665
20
-4.2739883518081694
30
0
10
-12.1890625951026
20
-4.7285010344194616
30
0
10
-12.552319556053309
20
-5.1951092309061417
30
0
10
-12.885816048977905
20
-5.711846288392235
30
0
10
-13.163627596899623
20
-6.3207821058570302
30
0
10
-13.363766812744675
20
-7.0599952603021841
30
0
10
-13.473292639398469
20
-7.9498082425898673
30
0
10
-13.494782947271846
20
-8.9803657445619383
30
0
10
-13.450481077908199
20
-10.101885410856893
30
0
10
-13.371896410019257
20
-11.24207512776298
30
0
10
-13.291518209496068
20
-12.319810258439574
30
0
10
-13.232541548121048
20
-13.261546290086052
30
0
10
-13.202116873738577
20
-14.013611574935613
30
0
10
-13.176836964145
20
-14.563156754676767
30
0
10
-13.106178571107778
20
-14.939287488177055
30
0
10
-12.869972750592694
20
-15.264800113839431
30
0
10
-12.464618047498162
20
-15.558331261867639
30
0
10
-11.95745161799602
20
-15.77905448307912
30
0
10
-11.448407615388765
20
-15.864950087656094
30
0
10
-11.026361359620584
20
-15.776449528726575
30
0
10
-10.741560094930652
20
-15.522537229341101
30
0
10
-10.615913774225907
20
-15.148401835676664
30
0
10
-10.642512685289233
20
-14.73043654286335
30
0
10
-10.795670495957301
20
-14.369758419893046
30
0
10
-11.034203603890145
20
-14.146815868402008
30
0
10
-11.349472198317464
20
-14.074644188276315
30
0
10
-11.709421471558164
20
-14.049499845655136
30
0
10
-11.844659241579043
20
-13.950062898161127
30
0
10
-11.803734381927512
20
-13.619769660581698
30
0
10
-11.780991594460366
20
-13.007323148967116
30
0
10
-11.796276154613006
20
-12.201443270704729
30
0
10
-11.835620842906476
20
-11.348859859375873
30
0
10
-11.813877578749404
20
-10.614366270826039
30
0
10
-11.625359227710696
20
-10.127567222760664
30
0
10
-11.120510538379127
20
-9.924489546719963
30
0
10
-10.430909814171256
20
-9.9244323750526409
30
0
10
-9.7654475179328646
20
-10.002450312853703
30
0
10
-9.3141120042874199
20
-10.031103499861837
30
0
10
-9.0278949304583271
20
-9.9538746053687674
30
0
10
-8.6485045320639014
20
-9.7993696357492119
30
0
10
-8.2081017082175762
20
-9.55563994544457
30
0
10
-7.7770472660669432
20
-9.2243455095214486
30
0
10
-7.4502233043799837
20
-8.8178334585702522
30
0
10
-7.2164984259969955
20
-8.3849083586003523
30
0
10
-6.9888855440450834
20
-7.9921422841963334
30
0
10
-6.6691919202003209
20
-7.6915255683799364
30
0
10
-6.1908393055763211
20
-7.5005078920379997
30
0
10
-5.6023934367250297
20
-7.3552210515483196
30
0
10
-4.9244306319234408
20
-7.2240219621509638
30
0
10
-4.1617950151758674
20
-7.0944846536662141
30
0
10
-3.306812343984519
20
-6.9697785683462108
30
0
10
-2.3449162507616554
20
-6.8621868855279704
30
0
10
-1.4764129645387605
20
-6.8026949175606219
30
0
10
-0.7630503947339583
20
-6.7793934943249576
30
0
10
-0.25908226731715456
20
-6.7742155086093643
30
0
10
0
20
-6.7742155086093643
30
0
0
LINE
5
104
100
AcDbEntity
8
0
100
AcDbLine
10
0
20
2.5
30
0
11
0
21
20
31
0
0
CIRCLE
5
105
100
AcDbEntity
8
0
100
AcDbCircle
10
9.9460700918971963
20
-7.0021853981869544
30
0
40
2.0064362360692241
210
0
220
0
230
1
0
CIRCLE
5
106
100
AcDbEntity
8
0
100
AcDbCircle
10
-9.9460700918971963
20
-7.0021853981869544
30
0
40
2.0064362360692241
210
0
220
0
230
1
0
ENDSEC
0
SECTION
2
OBJECTS
0
DICTIONARY
5
C
100
AcDbDictionary
3
ACAD_GROUP
350
D
3
ACAD_MLINESTYLE
350
17
0
DICTIONARY
5
D
100
AcDbDictionary
0
DICTIONARY
5
1A
330
C
100
AcDbDictionary
0
DICTIONARY
5
17
100
AcDbDictionary
0
ENDSEC
0
EOF
