0
SECTION
2
HEADER
9
$INSUNITS
70
4
9
$ACADVER
1
AC1014
9
$HANDSEED
5
FFFF
0
ENDSEC
0
SECTION
2
TABLES
0
TABLE
2
VPORT
5
8
100
AcDbSymbolTable
0
ENDTAB
0
TABLE
2
LTYPE
5
5
100
AcDbSymbolTable
0
LTYPE
5
14
100
AcDbSymbolTableRecord
100
AcDbLinetypeTableRecord
2
BYBLOCK
70
0
0
LTYPE
5
15
100
AcDbSymbolTableRecord
100
AcDbLinetypeTableRecord
2
BYLAYER
70
0
0
ENDTAB
0
TABLE
2
LAYER
5
2
100
AcDbSymbolTable
70
2
0
LAYER
5
50
100
AcDbSymbolTableRecord
100
AcDbLayerTableRecord
2
0
70
0
6
CONTINUOUS
0
ENDTAB
0
TABLE
2
STYLE
5
3
100
AcDbSymbolTable
70
1
0
STYLE
5
11
100
AcDbSymbolTableRecord
100
AcDbTextStyleTableRecord
2
STANDARD
70
0
0
ENDTAB
0
TABLE
2
VIEW
5
6
100
AcDbSymbolTable
70
0
0
ENDTAB
0
TABLE
2
UCS
5
7
100
AcDbSymbolTable
70
0
0
ENDTAB
0
TABLE
2
APPID
5
9
100
AcDbSymbolTable
70
2
0
APPID
5
12
100
AcDbSymbolTableRecord
100
AcDbRegAppTableRecord
2
ACAD
70
0
0
ENDTAB
0
TABLE
2
DIMSTYLE
5
A
100
AcDbSymbolTable
70
1
0
ENDTAB
0
TABLE
2
BLOCK_RECORD
5
1
100
AcDbSymbolTable
70
1
0
BLOCK_RECORD
5
1F
100
AcDbSymbolTableRecord
100
AcDbBlockTableRecord
2
*MODEL_SPACE
0
BLOCK_RECORD
5
1B
100
AcDbSymbolTableRecord
100
AcDbBlockTableRecord
2
*PAPER_SPACE
0
ENDTAB
0
ENDSEC
0
SECTION
2
BLOCKS
0
BLOCK
5
20
100
AcDbEntity
100
AcDbBlockBegin
2
*MODEL_SPACE
0
ENDBLK
5
21
100
AcDbEntity
100
AcDbBlockEnd
0
BLOCK
5
1C
100
AcDbEntity
100
AcDbBlockBegin
2
*PAPER_SPACE
0
ENDBLK
5
1D
100
AcDbEntity
100
AcDbBlockEnd
0
ENDSEC
0
SECTION
2
ENTITIES
0
LINE
5
100
100
AcDbEntity
8
0
100
AcDbLine
10
9.4999997876584565
20
-11.069139770302934
30
0
11
9.499999787658453
21
-20.299999546259642
31
0
0
LINE
5
101
100
AcDbEntity
8
0
100
AcDbLine
10
0
20
-12.799999713897705
30
0
11
3.3999999240040779
21
-12.799999713897705
31
0
0
LINE
5
102
100
AcDbEntity
8
0
100
AcDbLine
10
3.3999999240040779
20
-12.799999713897705
30
0
11
3.3385987720569652
21
-12.799999713897705
31
0
0
LINE
5
103
100
AcDbEntity
8
0
100
AcDbLine
10
0
20
-13.699999693781137
30
0
11
3.2132783600388359
21
-13.699999693781137
31
0
0
LINE
5
104
100
AcDbEntity
8
0
100
AcDbLine
10
3.2132783600388359
20
-13.699999693781137
30
0
11
4.6422865739153929
21
-14.254619348549937
31
0
0
LINE
5
105
100
AcDbEntity
8
0
100
AcDbLine
10
4.6422865739153929
20
-14.254619348549937
30
0
11
8.0184527302412807
21
-16.709162885645071
31
0
0
SPLINE
5
106
100
AcDbEntity
8
0
100
AcDbSpline
70
4
71
5
72
16
73
10
74
0
42
0.000000001
43
0.0000000001
44
0.0000000001
40
0
40
0
40
0
40
0
40
0
40
0
40
0.20000000000000001
40
0.40000000000000002
40
0.60000000000000009
40
0.80000000000000004
40
1
40
1
40
1
40
1
40
1
40
1
41
1
41
1
41
1
41
1
41
1
41
1
41
1
41
1
41
1
41
1
10
8.0184527302412807
20
-16.709162885645071
30
0
10
8.0561367032847127
20
-16.736559923647039
30
0
10
8.1254041750036414
20
-16.783659464176878
30
0
10
8.2110200429569051
20
-16.831251285478888
30
0
10
8.2933196134747469
20
-16.859585039921285
30
0
10
8.3585247606905178
20
-16.888813469060775
30
0
10
8.3887769161600509
20
-16.957362666381574
30
0
10
8.4006230049235189
20
-17.061954135762317
30
0
10
8.403550303516905
20
-17.160312695407892
30
0
10
8.4037706197125388
20
-17.216656753172284
30
0
0
LINE
5
107
100
AcDbEntity
8
0
100
AcDbLine
10
3.3999999240040779
20
-12.799999713897705
30
0
11
5.0489422068254868
21
-13.437241078064712
31
0
0
LINE
5
108
100
AcDbEntity
8
0
100
AcDbLine
10
5.0489422068254868
20
-13.437241078064712
30
0
11
7.5739763971849783
21
-15.281853282548518
31
0
0
SPLINE
5
109
100
AcDbEntity
8
0
100
AcDbSpline
70
4
71
5
72
16
73
10
74
0
42
0.000000001
43
0.0000000001
44
0.0000000001
40
0
40
0
40
0
40
0
40
0
40
0
40
0.20000000000000001
40
0.40000000000000002
40
0.60000000000000009
40
0.80000000000000004
40
1
40
1
40
1
40
1
40
1
40
1
41
1
41
1
41
1
41
1
41
1
41
1
41
1
41
1
41
1
41
1
10
7.5739763971849783
20
-15.281853282548518
30
0
10
7.609031686253096
20
-15.307462208674604
30
0
10
7.6829780410159634
20
-15.352065764916702
30
0
10
7.8053902813025156
20
-15.39914064700389
30
0
10
7.9847256172317778
20
-15.423031011499704
30
0
10
8.2006244367523227
20
-15.376599538829065
30
0
10
8.330821576873614
20
-15.253236747143127
30
0
10
8.3835874408478102
20
-15.091601306028883
30
0
10
8.3949017433953372
20
-14.948514467554517
30
0
10
8.3945874275721817
20
-14.868130776989956
30
0
0
SPLINE
5
110
100
AcDbEntity
8
0
100
AcDbSpline
70
4
71
5
72
31
73
25
74
0
42
0.000000001
43
0.0000000001
44
0.0000000001
40
0
40
0
40
0
40
0
40
0
40
0
40
0.050000000000000003
40
0.10000000000000001
40
0.15000000000000002
40
0.20000000000000001
40
0.25
40
0.29999999999999999
40
0.34999999999999998
40
0.39999999999999997
40
0.44999999999999996
40
0.49999999999999994
40
0.54999999999999993
40
0.59999999999999998
40
0.65000000000000002
40
0.70000000000000007
40
0.75000000000000011
40
0.80000000000000016
40
0.8500000000000002
40
0.90000000000000024
40
0.95000000000000029
40
1
40
1
40
1
40
1
40
1
40
1
41
1
41
1
41
1
41
1
41
1
41
1
41
1
41
1
41
1
41
1
41
1
41
1
41
1
41
1
41
1
41
1
41
1
41
1
41
1
41
1
41
1
41
1
41
1
41
1
41
1
10
8.4137454024371205
20
-19.767625520613343
30
0
10
8.4138176582485027
20
-19.786104350998869
30
0
10
8.4057964073143037
20
-19.828565684883888
30
0
10
8.3692691952479397
20
-19.908766136178716
30
0
10
8.2710858424036857
20
-20.037363854725605
30
0
10
8.070800125039348
20
-20.183859291208513
30
0
10
7.8122494310038704
20
-20.278744478545292
30
0
10
7.5383797065300051
20
-20.331722713380923
30
0
10
7.3258597518080624
20
-20.440887844350534
30
0
10
7.1869640051499308
20
-20.619689368050253
30
0
10
7.1136107125607069
20
-20.852606014054111
30
0
10
7.0869965210626615
20
-21.102831195079787
30
0
10
7.111855849066524
20
-21.344713439407634
30
0
10
7.2091574497575834
20
-21.567967777693667
30
0
10
7.3873032479388048
20
-21.760284025706909
30
0
10
7.6470288911728073
20
-21.901529574167714
30
0
10
7.9763715509794411
20
-21.966410884966351
30
0
10
8.3430328903378719
20
-21.893431079529549
30
0
10
8.7086985457811981
20
-21.666350288082299
30
0
10
9.038713044174175
20
-21.325333418376317
30
0
10
9.3011936667845188
20
-20.933692567886986
30
0
10
9.4366752965173788
20
-20.637591573028477
30
0
10
9.4884858703948805
20
-20.451640655414536
30
0
10
9.499999787658453
20
-20.347279656755582
30
0
10
9.499999787658453
20
-20.299999546259642
30
0
0
LINE
5
111
100
AcDbEntity
8
0
100
AcDbLine
10
8.4137454024371205
20
-19.767625520613343
30
0
11
8.4037706197125388
21
-17.216656753172284
31
0
0
LINE
5
112
100
AcDbEntity
8
0
100
AcDbLine
10
8.3945874275721817
20
-14.868130776989956
30
0
11
8.3810591730470758
21
-11.408390778193676
31
0
0
SPLINE
5
113
100
AcDbEntity
8
0
100
AcDbSpline
70
4
71
5
72
36
73
30
74
0
42
0.000000001
43
0.0000000001
44
0.0000000001
40
0
40
0
40
0
40
0
40
0
40
0
40
0.040000000000000001
40
0.080000000000000002
40
0.12
40
0.16
40
0.20000000000000001
40
0.24000000000000002
40
0.28000000000000003
40
0.32000000000000001
40
0.35999999999999999
40
0.39999999999999997
40
0.43999999999999995
40
0.47999999999999993
40
0.51999999999999991
40
0.55999999999999994
40
0.59999999999999998
40
0.64000000000000001
40
0.68000000000000005
40
0.72000000000000008
40
0.76000000000000012
40
0.80000000000000016
40
0.84000000000000019
40
0.88000000000000023
40
0.92000000000000026
40
0.9600000000000003
40
1
40
1
40
1
40
1
40
1
40
1
41
1
41
1
41
1
41
1
41
1
41
1
41
1
41
1
41
1
41
1
41
1
41
1
41
1
41
1
41
1
41
1
41
1
41
1
41
1
41
1
41
1
41
1
41
1
41
1
41
1
41
1
41
1
41
1
41
1
41
1
10
8.6736173798840355e-18
20
0.99999997764825821
30
0
10
0.013530311882243715
20
0.99999997764825821
30
0
10
0.054424359757971982
20
0.99896518162909764
30
0
10
0.15650582825261022
20
0.99434842255936484
30
0
10
0.3442888098109953
20
0.97615429748290428
30
0
10
0.52888405667231386
20
0.90255041295715954
30
0
10
0.74663428973215706
20
0.7343914666851783
30
0
10
1.095488657608471
20
0.44424124399012233
30
0
10
1.5751610192499688
20
0.025797541353325213
30
0
10
2.1577939083319322
20
-0.51014470984287508
30
0
10
2.7834787167486579
20
-1.1354966121572676
30
0
10
3.3869090676890212
20
-1.8069254958338545
30
0
10
3.9120481618644911
20
-2.4650754977650711
30
0
10
4.3265786367342347
20
-3.0402688953059478
30
0
10
4.6186307770639639
20
-3.4717566121796466
30
0
10
4.8001493302338032
20
-3.7240200289858638
30
0
10
4.903304641560096
20
-3.8050679338372766
30
0
10
4.9910038725723016
20
-3.7830306732266199
30
0
10
5.127777126002159
20
-3.8099884476366688
30
0
10
5.35779789390749
20
-4.0541996875835125
30
0
10
5.6993147913998872
20
-4.6164369230450477
30
0
10
6.1399666669499506
20
-5.4967136819569404
30
0
10
6.6471296004908043
20
-6.6286230035865099
30
0
10
7.1736999673173463
20
-7.8962363977376153
30
0
10
7.6655519808729613
20
-9.1573479465581382
30
0
10
8.0681586538963739
20
-10.26355543917089
30
0
10
8.280476267125966
20
-10.917953759684115
30
0
10
8.3624430539179766
20
-11.235274119534227
30
0
10
8.3808872349776546
20
-11.364419028919668
30
0
10
8.3810591730470758
20
-11.408390778193676
30
0
0
SPLINE
5
114
100
AcDbEntity
8
0
100
AcDbSpline
70
4
71
5
72
26
73
20
74
0
42
0.000000001
43
0.0000000001
44
0.0000000001
40
0
40
0
40
0
40
0
40
0
40
0
40
0.066666666666666666
40
0.13333333333333333
40
0.20000000000000001
40
0.26666666666666666
40
0.33333333333333331
40
0.39999999999999997
40
0.46666666666666662
40
0.53333333333333333
40
0.59999999999999998
40
0.66666666666666663
40
0.73333333333333328
40
0.79999999999999993
40
0.86666666666666659
40
0.93333333333333324
40
1
40
1
40
1
40
1
40
1
40
1
41
1
41
1
41
1
41
1
41
1
41
1
41
1
41
1
41
1
41
1
41
1
41
1
41
1
41
1
41
1
41
1
41
1
41
1
41
1
41
1
10
0
20
2.249999949708581
30
0
10
0.091751312057786069
20
2.249999949708581
30
0
10
0.27677451169382983
20
2.2392521009247046
30
0
10
0.55903371378066147
20
2.1908508159506814
30
0
10
0.973266500431753
20
2.0361510743038691
30
0
10
1.6947977566153261
20
1.5627828514249231
30
0
10
2.7190154242737647
20
0.68365822471007198
30
0
10
4.065625712411836
20
-0.66833414772001887
30
0
10
5.4634747333631086
20
-2.4088086226915899
30
0
10
6.6671459130616508
20
-4.3136866016390032
30
0
10
7.5782699647851617
20
-6.1200974684753522
30
0
10
8.1681645869764132
20
-7.5877003492411657
30
0
10
8.4825489102773837
20
-8.558123910623765
30
0
10
8.6217943760340336
20
-9.0595382143884109
30
0
10
8.7171409239014856
20
-9.3005922433325026
30
0
10
8.957901803219654
20
-9.9802927545952222
30
0
10
9.2156140016754655
20
-10.657679904901622
30
0
10
9.3802837866655775
20
-10.980165800595024
30
0
10
9.4643697556469508
20
-11.061701322670025
30
0
10
9.4999997876584565
20
-11.069139770302934
30
0
0
LINE
5
115
100
AcDbEntity
8
0
100
AcDbLine
10
0
20
2.5
30
0
11
0
21
20
31
0
0
SPLINE
5
116
100
AcDbEntity
8
0
100
AcDbSpline
70
4
71
5
72
26
73
20
74
0
42
0.000000001
43
0.0000000001
44
0.0000000001
40
0
40
0
40
0
40
0
40
0
40
0
40
0.066666666666666666
40
0.13333333333333333
40
0.20000000000000001
40
0.26666666666666666
40
0.33333333333333331
40
0.39999999999999997
40
0.46666666666666662
40
0.53333333333333333
40
0.59999999999999998
40
0.66666666666666663
40
0.73333333333333328
40
0.79999999999999993
40
0.86666666666666659
40
0.93333333333333324
40
1
40
1
40
1
40
1
40
1
40
1
41
1
41
1
41
1
41
1
41
1
41
1
41
1
41
1
41
1
41
1
41
1
41
1
41
1
41
1
41
1
41
1
41
1
41
1
41
1
41
1
10
0
20
2.249999949708581
30
0
10
-0.091751312057786069
20
2.249999949708581
30
0
10
-0.27677451169382983
20
2.2392521009247046
30
0
10
-0.55903371378066147
20
2.1908508159506814
30
0
10
-0.973266500431753
20
2.0361510743038691
30
0
10
-1.6947977566153261
20
1.5627828514249231
30
0
10
-2.7190154242737647
20
0.68365822471007198
30
0
10
-4.065625712411836
20
-0.66833414772001887
30
0
10
-5.4634747333631086
20
-2.4088086226915899
30
0
10
-6.6671459130616508
20
-4.3136866016390032
30
0
10
-7.5782699647851617
20
-6.1200974684753522
30
0
10
-8.1681645869764132
20
-7.5877003492411657
30
0
10
-8.4825489102773837
20
-8.558123910623765
30
0
10
-8.6217943760340336
20
-9.0595382143884109
30
0
10
-8.7171409239014856
20
-9.3005922433325026
30
0
10
-8.957901803219654
20
-9.9802927545952222
30
0
10
-9.2156140016754655
20
-10.657679904901622
30
0
10
-9.3802837866655775
20
-10.980165800595024
30
0
10
-9.4643697556469508
20
-11.061701322670025
30
0
10
-9.4999997876584565
20
-11.069139770302934
30
0
0
LWPOLYLINE
5
117
100
AcDbEntity
8
0
100
AcDbPolyline
90
2
70
1
43
0.0
10
0.79999998211860657
20
2.249999949708581
10
-0.79999998211860657
20
2.249999949708581
0
LWPOLYLINE
5
118
100
AcDbEntity
8
0
100
AcDbPolyline
90
2
70
1
43
0.0
10
-1.8927868004622128
20
1.6342202904006613
10
-5.7632985681197724
20
-2.6039900951843564
0
LWPOLYLINE
5
119
100
AcDbEntity
8
0
100
AcDbPolyline
90
2
70
1
43
0.0
10
-8.4694374816724807
20
-8.6072793541350645
10
-8.9023413510640754
20
-9.8324840641085043
0
LWPOLYLINE
5
120
100
AcDbEntity
8
0
100
AcDbPolyline
90
2
70
1
43
0.0
10
-9.0346625373126592
20
-10.971991758557646
10
-9.9653370380042627
20
-11.16628778204822
0
LINE
5
121
100
AcDbEntity
8
0
100
AcDbLine
10
-9.4999997876584565
20
-11.069139770302934
30
0
11
-9.499999787658453
21
-20.299999546259642
31
0
0
SPLINE
5
122
100
AcDbEntity
8
0
100
AcDbSpline
70
4
71
5
72
16
73
10
74
0
42
0.000000001
43
0.0000000001
44
0.0000000001
40
0
40
0
40
0
40
0
40
0
40
0
40
0.20000000000000001
40
0.40000000000000002
40
0.60000000000000009
40
0.80000000000000004
40
1
40
1
40
1
40
1
40
1
40
1
41
1
41
1
41
1
41
1
41
1
41
1
41
1
41
1
41
1
41
1
10
-8.0184527302412807
20
-16.709162885645071
30
0
10
-8.0561367032847127
20
-16.736559923647039
30
0
10
-8.1254041750036414
20
-16.783659464176878
30
0
10
-8.2110200429569051
20
-16.831251285478888
30
0
10
-8.2933196134747469
20
-16.859585039921285
30
0
10
-8.3585247606905178
20
-16.888813469060775
30
0
10
-8.3887769161600509
20
-16.957362666381574
30
0
10
-8.4006230049235189
20
-17.061954135762317
30
0
10
-8.403550303516905
20
-17.160312695407892
30
0
10
-8.4037706197125388
20
-17.216656753172284
30
0
0
LWPOLYLINE
5
123
100
AcDbEntity
8
0
100
AcDbPolyline
90
2
70
1
43
0.0
10
-7.9409656067801579
20
-16.652828123286522
10
-8.0959398537024025
20
-16.765497648003617
0
LWPOLYLINE
5
124
100
AcDbEntity
8
0
100
AcDbPolyline
90
2
70
1
43
0.0
10
-8.403350247711348
20
-17.10915006602459
10
-8.4041909917137225
20
-17.324163440319968
0
LWPOLYLINE
5
125
100
AcDbEntity
8
0
100
AcDbPolyline
90
2
70
1
43
0.0
10
-9.4999997876584512
20
-20.539718035790322
10
-9.499999787658453
20
-20.060281056728964
0
LINE
5
126
100
AcDbEntity
8
0
100
AcDbLine
10
0
20
-12.799999713897705
30
0
11
-3.3999999240040779
21
-12.799999713897705
31
0
0
LWPOLYLINE
5
127
100
AcDbEntity
8
0
100
AcDbPolyline
90
2
70
1
43
0.0
10
-4.4661963463001877
20
-3.5611348638585936
10
-5.3034755617789111
20
-3.9858417122898171
0
LWPOLYLINE
5
128
100
AcDbEntity
8
0
100
AcDbPolyline
90
2
70
1
43
0.0
10
0.21344614008342283
20
1.2775365047294005
10
-1.2134461177316807
20
0.5224634550374635
0
SPLINE
5
129
100
AcDbEntity
8
0
100
AcDbSpline
70
4
71
5
72
36
73
30
74
0
42
0.000000001
43
0.0000000001
44
0.0000000001
40
0
40
0
40
0
40
0
40
0
40
0
40
0.040000000000000001
40
0.080000000000000002
40
0.12
40
0.16
40
0.20000000000000001
40
0.24000000000000002
40
0.28000000000000003
40
0.32000000000000001
40
0.35999999999999999
40
0.39999999999999997
40
0.43999999999999995
40
0.47999999999999993
40
0.51999999999999991
40
0.55999999999999994
40
0.59999999999999998
40
0.64000000000000001
40
0.68000000000000005
40
0.72000000000000008
40
0.76000000000000012
40
0.80000000000000016
40
0.84000000000000019
40
0.88000000000000023
40
0.92000000000000026
40
0.9600000000000003
40
1
40
1
40
1
40
1
40
1
40
1
41
1
41
1
41
1
41
1
41
1
41
1
41
1
41
1
41
1
41
1
41
1
41
1
41
1
41
1
41
1
41
1
41
1
41
1
41
1
41
1
41
1
41
1
41
1
41
1
41
1
41
1
41
1
41
1
41
1
41
1
10
-8.6736173798840355e-18
20
0.99999997764825821
30
0
10
-0.013530311882243715
20
0.99999997764825821
30
0
10
-0.054424359757971982
20
0.99896518162909764
30
0
10
-0.15650582825261022
20
0.99434842255936484
30
0
10
-0.3442888098109953
20
0.97615429748290428
30
0
10
-0.52888405667231386
20
0.90255041295715954
30
0
10
-0.74663428973215706
20
0.7343914666851783
30
0
10
-1.095488657608471
20
0.44424124399012233
30
0
10
-1.5751610192499688
20
0.025797541353325213
30
0
10
-2.1577939083319322
20
-0.51014470984287508
30
0
10
-2.7834787167486579
20
-1.1354966121572676
30
0
10
-3.3869090676890212
20
-1.8069254958338545
30
0
10
-3.9120481618644911
20
-2.4650754977650711
30
0
10
-4.3265786367342347
20
-3.0402688953059478
30
0
10
-4.6186307770639639
20
-3.4717566121796466
30
0
10
-4.8001493302338032
20
-3.7240200289858638
30
0
10
-4.903304641560096
20
-3.8050679338372766
30
0
10
-4.9910038725723016
20
-3.7830306732266199
30
0
10
-5.127777126002159
20
-3.8099884476366688
30
0
10
-5.35779789390749
20
-4.0541996875835125
30
0
10
-5.6993147913998872
20
-4.6164369230450477
30
0
10
-6.1399666669499506
20
-5.4967136819569404
30
0
10
-6.6471296004908043
20
-6.6286230035865099
30
0
10
-7.1736999673173463
20
-7.8962363977376153
30
0
10
-7.6655519808729613
20
-9.1573479465581382
30
0
10
-8.0681586538963739
20
-10.26355543917089
30
0
10
-8.280476267125966
20
-10.917953759684115
30
0
10
-8.3624430539179766
20
-11.235274119534227
30
0
10
-8.3808872349776546
20
-11.364419028919668
30
0
10
-8.3810591730470758
20
-11.408390778193676
30
0
0
LWPOLYLINE
5
130
100
AcDbEntity
8
0
100
AcDbPolyline
90
2
70
1
43
0.0
10
0.63405954465029812
20
0.99999997764825799
10
-0.63405954465029812
20
0.99999997764825821
0
LWPOLYLINE
5
131
100
AcDbEntity
8
0
100
AcDbPolyline
90
2
70
1
43
0.0
10
-8.3795747212787077
20
-11.028754428968096
10
-8.3825436248154439
20
-11.788027127419255
0
LINE
5
132
100
AcDbEntity
8
0
100
AcDbLine
10
-4.6422865739153929
20
-14.254619348549937
30
0
11
-8.0184527302412807
21
-16.709162885645071
31
0
0
LINE
5
133
100
AcDbEntity
8
0
100
AcDbLine
10
-5.0489422068254868
20
-13.437241078064712
30
0
11
-7.5739763971849783
21
-15.281853282548518
31
0
0
LINE
5
134
100
AcDbEntity
8
0
100
AcDbLine
10
0
20
-13.699999693781137
30
0
11
-3.2132783600388359
21
-13.699999693781137
31
0
0
LINE
5
135
100
AcDbEntity
8
0
100
AcDbLine
10
-8.3945874275721817
20
-14.868130776989956
30
0
11
-8.3810591730470758
21
-11.408390778193676
31
0
0
LWPOLYLINE
5
136
100
AcDbEntity
8
0
100
AcDbPolyline
90
2
70
1
43
0.0
10
-7.5285682675092138
20
-21.914060127647645
10
-8.3227134777873761
20
-21.949199296243989
0
LINE
5
137
100
AcDbEntity
8
0
100
AcDbLine
10
-3.3999999240040779
20
-12.799999713897705
30
0
11
-3.3385987720569652
21
-12.799999713897705
31
0
0
LINE
5
138
100
AcDbEntity
8
0
100
AcDbLine
10
-3.2132783600388359
20
-13.699999693781137
30
0
11
-4.6422865739153929
21
-14.254619348549937
31
0
0
LINE
5
139
100
AcDbEntity
8
0
100
AcDbLine
10
-3.3999999240040779
20
-12.799999713897705
30
0
11
-5.0489422068254868
21
-13.437241078064712
31
0
0
LWPOLYLINE
5
140
100
AcDbEntity
8
0
100
AcDbPolyline
90
2
70
1
43
0.0
10
-7.5073708516974254
20
-15.233195960377707
10
-7.640581942672533
20
-15.330510604719329
0
LWPOLYLINE
5
141
100
AcDbEntity
8
0
100
AcDbPolyline
90
2
70
1
43
0.0
10
-8.1902839725849663
20
-20.162945555246647
10
-7.2097156831982057
20
-20.437053537272636
0
LINE
5
142
100
AcDbEntity
8
0
100
AcDbLine
10
-8.4137454024371205
20
-19.767625520613343
30
0
11
-8.4037706197125388
21
-17.216656753172284
31
0
0
LWPOLYLINE
5
143
100
AcDbEntity
8
0
100
AcDbPolyline
90
2
70
1
43
0.0
10
-7.0999998413026315
20
-20.699999537318941
10
-7.0999998413026351
20
-21.499999519437555
0
LWPOLYLINE
5
144
100
AcDbEntity
8
0
100
AcDbPolyline
90
2
70
1
43
0.0
10
-8.3951825786800214
20
-15.020335785349335
10
-8.3939922764643562
20
-14.715925768630617
0
LWPOLYLINE
5
145
100
AcDbEntity
8
0
100
AcDbPolyline
90
2
70
1
43
0.0
10
-8.4131130092489919
20
-19.605896156055962
10
-8.4143777956252404
20
-19.929354885170724
0
SPLINE
5
146
100
AcDbEntity
8
0
100
AcDbSpline
70
4
71
5
72
16
73
10
74
0
42
0.000000001
43
0.0000000001
44
0.0000000001
40
0
40
0
40
0
40
0
40
0
40
0
40
0.20000000000000001
40
0.40000000000000002
40
0.60000000000000009
40
0.80000000000000004
40
1
40
1
40
1
40
1
40
1
40
1
41
1
41
1
41
1
41
1
41
1
41
1
41
1
41
1
41
1
41
1
10
-7.5739763971849783
20
-15.281853282548518
30
0
10
-7.609031686253096
20
-15.307462208674604
30
0
10
-7.6829780410159634
20
-15.352065764916702
30
0
10
-7.8053902813025156
20
-15.39914064700389
30
0
10
-7.9847256172317778
20
-15.423031011499704
30
0
10
-8.2006244367523227
20
-15.376599538829065
30
0
10
-8.330821576873614
20
-15.253236747143127
30
0
10
-8.3835874408478102
20
-15.091601306028883
30
0
10
-8.3949017433953372
20
-14.948514467554517
30
0
10
-8.3945874275721817
20
-14.868130776989956
30
0
0
SPLINE
5
147
100
AcDbEntity
8
0
100
AcDbSpline
70
4
71
5
72
31
73
25
74
0
42
0.000000001
43
0.0000000001
44
0.0000000001
40
0
40
0
40
0
40
0
40
0
40
0
40
0.050000000000000003
40
0.10000000000000001
40
0.15000000000000002
40
0.20000000000000001
40
0.25
40
0.29999999999999999
40
0.34999999999999998
40
0.39999999999999997
40
0.44999999999999996
40
0.49999999999999994
40
0.54999999999999993
40
0.59999999999999998
40
0.65000000000000002
40
0.70000000000000007
40
0.75000000000000011
40
0.80000000000000016
40
0.8500000000000002
40
0.90000000000000024
40
0.95000000000000029
40
1
40
1
40
1
40
1
40
1
40
1
41
1
41
1
41
1
41
1
41
1
41
1
41
1
41
1
41
1
41
1
41
1
41
1
41
1
41
1
41
1
41
1
41
1
41
1
41
1
41
1
41
1
41
1
41
1
41
1
41
1
10
-8.4137454024371205
20
-19.767625520613343
30
0
10
-8.4138176582485027
20
-19.786104350998869
30
0
10
-8.4057964073143037
20
-19.828565684883888
30
0
10
-8.3692691952479397
20
-19.908766136178716
30
0
10
-8.2710858424036857
20
-20.037363854725605
30
0
10
-8.070800125039348
20
-20.183859291208513
30
0
10
-7.8122494310038704
20
-20.278744478545292
30
0
10
-7.5383797065300051
20
-20.331722713380923
30
0
10
-7.3258597518080624
20
-20.440887844350534
30
0
10
-7.1869640051499308
20
-20.619689368050253
30
0
10
-7.1136107125607069
20
-20.852606014054111
30
0
10
-7.0869965210626615
20
-21.102831195079787
30
0
10
-7.111855849066524
20
-21.344713439407634
30
0
10
-7.2091574497575834
20
-21.567967777693667
30
0
10
-7.3873032479388048
20
-21.760284025706909
30
0
10
-7.6470288911728073
20
-21.901529574167714
30
0
10
-7.9763715509794411
20
-21.966410884966351
30
0
10
-8.3430328903378719
20
-21.893431079529549
30
0
10
-8.7086985457811981
20
-21.666350288082299
30
0
10
-9.038713044174175
20
-21.325333418376317
30
0
10
-9.3011936667845188
20
-20.933692567886986
30
0
10
-9.4366752965173788
20
-20.637591573028477
30
0
10
-9.4884858703948805
20
-20.451640655414536
30
0
10
-9.499999787658453
20
-20.347279656755582
30
0
10
-9.499999787658453
20
-20.299999546259642
30
0
0
ENDSEC
0
SECTION
2
OBJECTS
0
DICTIONARY
5
C
100
AcDbDictionary
3
ACAD_GROUP
350
D
3
ACAD_MLINESTYLE
350
17
0
DICTIONARY
5
D
100
AcDbDictionary
0
DICTIONARY
5
1A
330
C
100
AcDbDictionary
0
DICTIONARY
5
17
100
AcDbDictionary
0
ENDSEC
0
EOF
