0
SECTION
2
HEADER
9
$INSUNITS
70
4
9
$ACADVER
1
AC1014
9
$HANDSEED
5
FFFF
0
ENDSEC
0
SECTION
2
TABLES
0
TABLE
2
VPORT
5
8
100
AcDbSymbolTable
0
ENDTAB
0
TABLE
2
LTYPE
5
5
100
AcDbSymbolTable
0
LTYPE
5
14
100
AcDbSymbolTableRecord
100
AcDbLinetypeTableRecord
2
BYBLOCK
70
0
0
LTYPE
5
15
100
AcDbSymbolTableRecord
100
AcDbLinetypeTableRecord
2
BYLAYER
70
0
0
ENDTAB
0
TABLE
2
LAYER
5
2
100
AcDbSymbolTable
70
2
0
LAYER
5
50
100
AcDbSymbolTableRecord
100
AcDbLayerTableRecord
2
0
70
0
6
CONTINUOUS
0
ENDTAB
0
TABLE
2
STYLE
5
3
100
AcDbSymbolTable
70
1
0
STYLE
5
11
100
AcDbSymbolTableRecord
100
AcDbTextStyleTableRecord
2
STANDARD
70
0
0
ENDTAB
0
TABLE
2
VIEW
5
6
100
AcDbSymbolTable
70
0
0
ENDTAB
0
TABLE
2
UCS
5
7
100
AcDbSymbolTable
70
0
0
ENDTAB
0
TABLE
2
APPID
5
9
100
AcDbSymbolTable
70
2
0
APPID
5
12
100
AcDbSymbolTableRecord
100
AcDbRegAppTableRecord
2
ACAD
70
0
0
ENDTAB
0
TABLE
2
DIMSTYLE
5
A
100
AcDbSymbolTable
70
1
0
ENDTAB
0
TABLE
2
BLOCK_RECORD
5
1
100
AcDbSymbolTable
70
1
0
BLOCK_RECORD
5
1F
100
AcDbSymbolTableRecord
100
AcDbBlockTableRecord
2
*MODEL_SPACE
0
BLOCK_RECORD
5
1B
100
AcDbSymbolTableRecord
100
AcDbBlockTableRecord
2
*PAPER_SPACE
0
ENDTAB
0
ENDSEC
0
SECTION
2
BLOCKS
0
BLOCK
5
20
100
AcDbEntity
100
AcDbBlockBegin
2
*MODEL_SPACE
0
ENDBLK
5
21
100
AcDbEntity
100
AcDbBlockEnd
0
BLOCK
5
1C
100
AcDbEntity
100
AcDbBlockBegin
2
*PAPER_SPACE
0
ENDBLK
5
1D
100
AcDbEntity
100
AcDbBlockEnd
0
ENDSEC
0
SECTION
2
ENTITIES
0
LINE
5
100
100
AcDbEntity
8
0
100
AcDbLine
10
0
20
-3.7999999150633812
30
0
11
3.6999999172985554
21
-3.7999999150633812
31
0
0
LINE
5
101
100
AcDbEntity
8
0
100
AcDbLine
10
-0.0056651687028796971
20
-4.6679819216165459
30
0
11
3.3943347553011982
21
-4.6679819216165459
31
0
0
SPLINE
5
102
100
AcDbEntity
8
0
100
AcDbSpline
70
4
71
5
72
26
73
20
74
0
42
0.000000001
43
0.0000000001
44
0.0000000001
40
0
40
0
40
0
40
0
40
0
40
0
40
0.066666666666666666
40
0.13333333333333333
40
0.20000000000000001
40
0.26666666666666666
40
0.33333333333333331
40
0.39999999999999997
40
0.46666666666666662
40
0.53333333333333333
40
0.59999999999999998
40
0.66666666666666663
40
0.73333333333333328
40
0.79999999999999993
40
0.86666666666666659
40
0.93333333333333324
40
1
40
1
40
1
40
1
40
1
40
1
41
1
41
1
41
1
41
1
41
1
41
1
41
1
41
1
41
1
41
1
41
1
41
1
41
1
41
1
41
1
41
1
41
1
41
1
41
1
41
1
10
0
20
3.0499999318271875
30
0
10
0.19933125609571098
20
3.0499999318271875
30
0
10
0.59481554443732454
20
3.0423543628824969
30
0
10
1.17850848474089
20
3.0079493136630604
30
0
10
1.9331229072210228
20
2.917913533512253
30
0
10
2.8121454854561523
20
2.7413284893497836
30
0
10
3.5975806250591114
20
2.5126573120925273
30
0
10
4.2652850826517366
20
2.2434024488370956
30
0
10
4.8047126242136295
20
1.9422449623284612
30
0
10
5.2319027380941483
20
1.6118507812103156
30
0
10
5.5877890280495581
20
1.2489876605780124
30
0
10
5.9233209923539398
20
0.8476239833491338
30
0
10
6.2899158634137651
20
0.40095711594481609
30
0
10
6.7256542850024488
20
-0.095489859406443139
30
0
10
7.2517675067622109
20
-0.64311751015160845
30
0
10
7.8789061610971292
20
-1.2417575251081894
30
0
10
8.4639822187328164
20
-1.7606525803837914
30
0
10
8.9494693236210363
20
-2.171830662127054
30
0
10
9.2937207081718221
20
-2.4556586066330994
30
0
10
9.4709949385636332
20
-2.5999999418854713
30
0
0
ARC
5
103
100
AcDbEntity
8
0
100
AcDbCircle
10
9.4709949385636332
20
-6.7538966178689233
30
0
40
0.58334450131258819
210
0
220
-0
230
1
100
AcDbArc
50
90
51
270
0
LINE
5
104
100
AcDbEntity
8
0
100
AcDbLine
10
9.4709949385636332
20
-2.5999999418854713
30
0
11
9.4709949385636332
21
-6.1705521165563351
31
0
0
LINE
5
105
100
AcDbEntity
8
0
100
AcDbLine
10
9.4709949385636332
20
-7.3372411191815115
30
0
11
9.4709949385636332
21
-11.899999734014273
31
0
0
SPLINE
5
106
100
AcDbEntity
8
0
100
AcDbSpline
70
4
71
5
72
31
73
25
74
0
42
0.000000001
43
0.0000000001
44
0.0000000001
40
0
40
0
40
0
40
0
40
0
40
0
40
0.050000000000000003
40
0.10000000000000001
40
0.15000000000000002
40
0.20000000000000001
40
0.25
40
0.29999999999999999
40
0.34999999999999998
40
0.39999999999999997
40
0.44999999999999996
40
0.49999999999999994
40
0.54999999999999993
40
0.59999999999999998
40
0.65000000000000002
40
0.70000000000000007
40
0.75000000000000011
40
0.80000000000000016
40
0.8500000000000002
40
0.90000000000000024
40
0.95000000000000029
40
1
40
1
40
1
40
1
40
1
40
1
41
1
41
1
41
1
41
1
41
1
41
1
41
1
41
1
41
1
41
1
41
1
41
1
41
1
41
1
41
1
41
1
41
1
41
1
41
1
41
1
41
1
41
1
41
1
41
1
41
1
10
9.4709949385636332
20
-11.899999734014273
30
0
10
9.4709949385636332
20
-11.938626955802526
30
0
10
9.4570283896641865
20
-12.020175803682484
30
0
10
9.3941745731558495
20
-12.155384909274851
30
0
10
9.2324246702544404
20
-12.355988960970913
30
0
10
8.9340042698205373
20
-12.609911025591254
30
0
10
8.5832582705752962
20
-12.828373332821192
30
0
10
8.2235093885422295
20
-12.975289432671143
30
0
10
7.8916606609220015
20
-13.024562956113328
30
0
10
7.6007200518815576
20
-12.974886319445771
30
0
10
7.3530503688864552
20
-12.845675008120477
30
0
10
7.1607127789201606
20
-12.658707948922146
30
0
10
7.0340044100732637
20
-12.439675623101646
30
0
10
6.9816667299369506
20
-12.212456885719705
30
0
10
7.0061592659242047
20
-11.996615182164076
30
0
10
7.1006044641139923
20
-11.803203591412943
30
0
10
7.2505623576117584
20
-11.63649032583371
30
0
10
7.4364561448153754
20
-11.495715234940052
30
0
10
7.6355831970600381
20
-11.37672074005549
30
0
10
7.8241761957162792
20
-11.273570518763496
30
0
10
7.9794387936310187
20
-11.180014841393589
30
0
10
8.0614227941694931
20
-11.10829838080809
30
0
10
8.0929857745158778
20
-11.054394618114696
30
0
10
8.0999998189508915
20
-11.018178144941896
30
0
10
8.0999998189508915
20
-10.99999975413084
30
0
0
LINE
5
107
100
AcDbEntity
8
0
100
AcDbLine
10
8.0999998189508915
20
-10.99999975413084
30
0
11
8.0999998189508915
21
-9.469368743456684
31
0
0
SPLINE
5
108
100
AcDbEntity
8
0
100
AcDbSpline
70
4
71
5
72
36
73
30
74
0
42
0.000000001
43
0.0000000001
44
0.0000000001
40
0
40
0
40
0
40
0
40
0
40
0
40
0.040000000000000001
40
0.080000000000000002
40
0.12
40
0.16
40
0.20000000000000001
40
0.24000000000000002
40
0.28000000000000003
40
0.32000000000000001
40
0.35999999999999999
40
0.39999999999999997
40
0.43999999999999995
40
0.47999999999999993
40
0.51999999999999991
40
0.55999999999999994
40
0.59999999999999998
40
0.64000000000000001
40
0.68000000000000005
40
0.72000000000000008
40
0.76000000000000012
40
0.80000000000000016
40
0.84000000000000019
40
0.88000000000000023
40
0.92000000000000026
40
0.9600000000000003
40
1
40
1
40
1
40
1
40
1
40
1
41
1
41
1
41
1
41
1
41
1
41
1
41
1
41
1
41
1
41
1
41
1
41
1
41
1
41
1
41
1
41
1
41
1
41
1
41
1
41
1
41
1
41
1
41
1
41
1
41
1
41
1
41
1
41
1
41
1
41
1
10
8.0999998189508915
20
-9.469368743456684
30
0
10
8.0999998189508915
20
-9.4363115874838304
30
0
10
8.0998979940200204
20
-9.362683632980179
30
0
10
8.0994354255987773
20
-9.229694403716838
30
0
10
8.0943566235166049
20
-9.0103012558976907
30
0
10
8.0602947299692751
20
-8.6850056930902291
30
0
10
7.9770812672010427
20
-8.3373852380388751
30
0
10
7.8296564953723653
20
-8.0010255392282268
30
0
10
7.6213162972758646
20
-7.7163648611454336
30
0
10
7.3753267769263564
20
-7.5162799467468542
30
0
10
7.1107832532999105
20
-7.4025875078360119
30
0
10
6.8409563351369158
20
-7.357430710169357
30
0
10
6.5699304820254181
20
-7.3474649735126381
30
0
10
6.277498255477159
20
-7.3210636845674317
30
0
10
5.9394360447029975
20
-7.2324790588680852
30
0
10
5.5779310705913518
20
-7.0796347606016923
30
0
10
5.2271108719887751
20
-6.8766903598083129
30
0
10
4.9238485630135118
20
-6.6446498382878962
30
0
10
4.6936079235231203
20
-6.4022113422372575
30
0
10
4.5252532949768485
20
-6.138438356772248
30
0
10
4.3887281238512266
20
-5.8463287746262385
30
0
10
4.2617161076873256
20
-5.5454001576681708
30
0
10
4.124432652515825
20
-5.2611811998694344
30
0
10
3.9670900468203776
20
-5.0212089745140167
30
0
10
3.7914091791406825
20
-4.8448108313492186
30
0
10
3.6164981700677101
20
-4.7334481389408767
30
0
10
3.499522489615897
20
-4.6876130341795728
30
0
10
3.4360712367851276
20
-4.67155185808938
30
0
10
3.4061790250924417
20
-4.667981921616545
30
0
10
3.3943347553011982
20
-4.6679819216165459
30
0
0
SPLINE
5
109
100
AcDbEntity
8
0
100
AcDbSpline
70
4
71
5
72
41
73
35
74
0
42
0.000000001
43
0.0000000001
44
0.0000000001
40
0
40
0
40
0
40
0
40
0
40
0
40
0.033333333333333333
40
0.066666666666666666
40
0.10000000000000001
40
0.13333333333333333
40
0.16666666666666666
40
0.19999999999999998
40
0.23333333333333331
40
0.26666666666666666
40
0.29999999999999999
40
0.33333333333333331
40
0.36666666666666664
40
0.39999999999999997
40
0.43333333333333329
40
0.46666666666666662
40
0.49999999999999994
40
0.53333333333333333
40
0.56666666666666665
40
0.59999999999999998
40
0.6333333333333333
40
0.66666666666666663
40
0.69999999999999996
40
0.73333333333333328
40
0.76666666666666661
40
0.79999999999999993
40
0.83333333333333326
40
0.86666666666666659
40
0.89999999999999991
40
0.93333333333333324
40
0.96666666666666656
40
1
40
1
40
1
40
1
40
1
40
1
41
1
41
1
41
1
41
1
41
1
41
1
41
1
41
1
41
1
41
1
41
1
41
1
41
1
41
1
41
1
41
1
41
1
41
1
41
1
41
1
41
1
41
1
41
1
41
1
41
1
41
1
41
1
41
1
41
1
41
1
41
1
41
1
41
1
41
1
41
1
10
3.6999999172985554
20
-3.7999999150633812
30
0
10
3.7273183410508253
20
-3.7999999150633812
30
0
10
3.7826572320771783
20
-3.7938889849569395
30
0
10
3.8677779993142098
20
-3.7663878134312756
30
0
10
3.9813110485562673
20
-3.6960031834989997
30
0
10
4.1044876056568222
20
-3.5676864573694731
30
0
10
4.1927319583310103
20
-3.4176457218382552
30
0
10
4.2465415468316561
20
-3.2605437175446199
30
0
10
4.2877891545550382
20
-3.1034009771234876
30
0
10
4.3437764898965296
20
-2.9481036131406242
30
0
10
4.4370938770641652
20
-2.7925494436880323
30
0
10
4.5699124927135903
20
-2.6323662890551751
30
0
10
4.7238157014989248
20
-2.4621159515268811
30
0
10
4.8724626826196848
20
-2.2763564832434913
30
0
10
4.9900493934986159
20
-2.0707172205803928
30
0
10
5.0627148280342631
20
-1.8430081033904275
30
0
10
5.0952492766258892
20
-1.5942259621858335
30
0
10
5.0993852001786593
20
-1.3282229392790543
30
0
10
5.0810837582836257
20
-1.0519738240384289
30
0
10
5.0347224756473574
20
-0.77477597553967892
30
0
10
4.9179669943351962
20
-0.51009601822060102
30
0
10
4.7128768120476563
20
-0.26558772894084248
30
0
10
4.4219596569565196
20
-0.044353689833057784
30
0
10
4.0603420286725473
20
0.15360974268359773
30
0
10
3.6500922416077728
20
0.33013060627189944
30
0
10
3.2140868039638617
20
0.48761069195744267
30
0
10
2.7691066815690899
20
0.62757094728129903
30
0
10
2.3228247845150509
20
0.75001235011548473
30
0
10
1.876795562690591
20
0.8539885599817596
30
0
10
1.4279370002016967
20
0.93788122398863016
30
0
10
0.9705847157304287
20
0.99979382479808088
30
0
10
0.59273823832955252
20
1.0302755670054877
30
0
10
0.30020808283703437
20
1.041794901672727
30
0
10
0.10080058452270094
20
1.0443547511943938
30
0
10
0
20
1.0443547511943938
30
0
0
SPLINE
5
110
100
AcDbEntity
8
0
100
AcDbSpline
70
6
71
5
72
76
73
70
74
0
42
0.000000001
43
0.0000000001
44
0.0000000001
40
0
40
0
40
0
40
0
40
0
40
0
40
0.015384615384615385
40
0.030769230769230771
40
0.046153846153846156
40
0.061538461538461542
40
0.076923076923076927
40
0.092307692307692313
40
0.1076923076923077
40
0.12307692307692308
40
0.13846153846153847
40
0.15384615384615385
40
0.16923076923076924
40
0.18461538461538463
40
0.20000000000000001
40
0.2153846153846154
40
0.23076923076923078
40
0.24615384615384617
40
0.26153846153846155
40
0.27692307692307694
40
0.29230769230769232
40
0.30769230769230771
40
0.32307692307692309
40
0.33846153846153848
40
0.35384615384615387
40
0.36923076923076925
40
0.38461538461538464
40
0.40000000000000002
40
0.41538461538461541
40
0.43076923076923079
40
0.44615384615384618
40
0.46153846153846156
40
0.47692307692307695
40
0.49230769230769234
40
0.50769230769230766
40
0.52307692307692299
40
0.53846153846153832
40
0.55384615384615365
40
0.56923076923076898
40
0.58461538461538431
40
0.59999999999999964
40
0.61538461538461497
40
0.6307692307692303
40
0.64615384615384563
40
0.66153846153846096
40
0.67692307692307629
40
0.69230769230769162
40
0.70769230769230695
40
0.72307692307692228
40
0.73846153846153761
40
0.75384615384615294
40
0.76923076923076827
40
0.7846153846153836
40
0.79999999999999893
40
0.81538461538461426
40
0.83076923076922959
40
0.84615384615384492
40
0.86153846153846025
40
0.87692307692307558
40
0.89230769230769091
40
0.90769230769230624
40
0.92307692307692157
40
0.9384615384615369
40
0.95384615384615223
40
0.96923076923076756
40
0.98461538461538289
40
1
40
1
40
1
40
1
40
1
40
1
41
1
41
1
41
1
41
1
41
1
41
1
41
1
41
1
41
1
41
1
41
1
41
1
41
1
41
1
41
1
41
1
41
1
41
1
41
1
41
1
41
1
41
1
41
1
41
1
41
1
41
1
41
1
41
1
41
1
41
1
41
1
41
1
41
1
41
1
41
1
41
1
41
1
41
1
41
1
41
1
41
1
41
1
41
1
41
1
41
1
41
1
41
1
41
1
41
1
41
1
41
1
41
1
41
1
41
1
41
1
41
1
41
1
41
1
41
1
41
1
41
1
41
1
41
1
41
1
41
1
41
1
41
1
41
1
41
1
41
1
10
6.3876214123396169
20
-1.6238558237279264
30
0
10
6.3619563658954696
20
-1.622895848645395
30
0
10
6.308861037804685
20
-1.6253667968683738
30
0
10
6.224713042427231
20
-1.64130128493936
30
0
10
6.1141737872095936
20
-1.6808639596320865
30
0
10
6.011152422515428
20
-1.7488519870420236
30
0
10
5.9621830248846175
20
-1.832517194257651
30
0
10
5.9206935486403385
20
-1.9675311687150283
30
0
10
5.8605683573224345
20
-2.1565778964179856
30
0
10
5.7770429213854175
20
-2.3778840219692103
30
0
10
5.6758427713513271
20
-2.6003050804901431
30
0
10
5.568468891815705
20
-2.7940230720992498
30
0
10
5.4638229659053437
20
-2.9454534780908528
30
0
10
5.36486360384772
20
-3.0624029343805375
30
0
10
5.2715957206067463
20
-3.1638436758267723
30
0
10
5.1826908770536271
20
-3.2732122690314176
30
0
10
5.0976871037590943
20
-3.4101687042455007
30
0
10
5.018836553515623
20
-3.5833923318768819
30
0
10
4.9502820861206951
20
-3.793165532696205
30
0
10
4.8973134385560595
20
-4.0336235665119951
30
0
10
4.8655827112412471
20
-4.2951650612229306
30
0
10
4.860372489642625
20
-4.5666674689373083
30
0
10
4.8857521567189641
20
-4.8380889673751106
30
0
10
4.9443227173670472
20
-5.101019979325244
30
0
10
5.0371590124696937
20
-5.3485211972928202
30
0
10
5.1636970676026115
20
-5.5751958653261289
30
0
10
5.3216134297088216
20
-5.7771721820633823
30
0
10
5.5067698231126148
20
-5.9521147029743728
30
0
10
5.7129625821031169
20
-6.0992569192040946
30
0
10
5.9325324085946365
20
-6.2192824917374416
30
0
10
6.1575095144783765
20
-6.3141119575745472
30
0
10
6.3805744190800926
20
-6.3867136112699203
30
0
10
6.5961409297013258
20
-6.4409221196268609
30
0
10
6.8012829742608085
20
-6.4812188922278926
30
0
10
6.9970132121834041
20
-6.5126270398659987
30
0
10
7.1864791230426821
20
-6.5395609578470211
30
0
10
7.3727195282355771
20
-6.5645373710108679
30
0
10
7.5565277904296178
20
-6.5868912169535152
30
0
10
7.7343780773103674
20
-6.6015795892763904
30
0
10
7.8960189364249311
20
-6.5976845472224364
30
0
10
8.0288347175396062
20
-6.562749397324394
30
0
10
8.1226716653986379
20
-6.4875220474500903
30
0
10
8.1744248206229848
20
-6.3704735668997401
30
0
10
8.1929296571729395
20
-6.2226385525077399
30
0
10
8.1940894014542227
20
-6.0614209878127259
30
0
10
8.1957217763645378
20
-5.9040537061136629
30
0
10
8.2126049952446856
20
-5.7613375711033585
30
0
10
8.2511943315650331
20
-5.6308537760038559
30
0
10
8.3110724021932008
20
-5.501627314648716
30
0
10
8.3867245765600487
20
-5.3594402380721125
30
0
10
8.469164997307967
20
-5.1916902158768474
30
0
10
8.5476769651616031
20
-4.9929868231399714
30
0
10
8.6108215579967791
20
-4.7640935068258266
30
0
10
8.6473576601984981
20
-4.5100191234572113
30
0
10
8.6471972425815729
20
-4.2383980866002799
30
0
10
8.602337247581314
20
-3.9577968086425273
30
0
10
8.507829506390074
20
-3.6759534168716796
30
0
10
8.3626590552923297
20
-3.3983456374855376
30
0
10
8.1698038969323044
20
-3.1289135310087985
30
0
10
7.9365566081971393
20
-2.870513699207887
30
0
10
7.6744206657463661
20
-2.6255078390497739
30
0
10
7.3999491855543562
20
-2.3962189496225115
30
0
10
7.1334405414553679
20
-2.1856153989746971
30
0
10
6.9025964235246295
20
-1.9974992879744997
30
0
10
6.7351827923202201
20
-1.8378413146050356
30
0
10
6.6142963432157202
20
-1.7158072850488872
30
0
10
6.5311121950117901
20
-1.6547102447816744
30
0
10
6.4628513164695782
20
-1.6311266473635588
30
0
10
6.4132864587837668
20
-1.6248157988104572
30
0
10
6.3876214123396169
20
-1.6238558237279264
30
0
0
LINE
5
111
100
AcDbEntity
8
0
100
AcDbLine
10
0
20
2.5
30
0
11
0
21
20
31
0
0
SPLINE
5
112
100
AcDbEntity
8
0
100
AcDbSpline
70
4
71
5
72
26
73
20
74
0
42
0.000000001
43
0.0000000001
44
0.0000000001
40
0
40
0
40
0
40
0
40
0
40
0
40
0.066666666666666666
40
0.13333333333333333
40
0.20000000000000001
40
0.26666666666666666
40
0.33333333333333331
40
0.39999999999999997
40
0.46666666666666662
40
0.53333333333333333
40
0.59999999999999998
40
0.66666666666666663
40
0.73333333333333328
40
0.79999999999999993
40
0.86666666666666659
40
0.93333333333333324
40
1
40
1
40
1
40
1
40
1
40
1
41
1
41
1
41
1
41
1
41
1
41
1
41
1
41
1
41
1
41
1
41
1
41
1
41
1
41
1
41
1
41
1
41
1
41
1
41
1
41
1
10
0
20
3.0499999318271875
30
0
10
-0.19933125609571098
20
3.0499999318271875
30
0
10
-0.59481554443732454
20
3.0423543628824969
30
0
10
-1.17850848474089
20
3.0079493136630604
30
0
10
-1.9331229072210228
20
2.917913533512253
30
0
10
-2.8121454854561523
20
2.7413284893497836
30
0
10
-3.5975806250591114
20
2.5126573120925273
30
0
10
-4.2652850826517366
20
2.2434024488370956
30
0
10
-4.8047126242136295
20
1.9422449623284612
30
0
10
-5.2319027380941483
20
1.6118507812103156
30
0
10
-5.5877890280495581
20
1.2489876605780124
30
0
10
-5.9233209923539398
20
0.8476239833491338
30
0
10
-6.2899158634137651
20
0.40095711594481609
30
0
10
-6.7256542850024488
20
-0.095489859406443139
30
0
10
-7.2517675067622109
20
-0.64311751015160845
30
0
10
-7.8789061610971292
20
-1.2417575251081894
30
0
10
-8.4639822187328164
20
-1.7606525803837914
30
0
10
-8.9494693236210363
20
-2.171830662127054
30
0
10
-9.2937207081718221
20
-2.4556586066330994
30
0
10
-9.4709949385636332
20
-2.5999999418854713
30
0
0
LINE
5
113
100
AcDbEntity
8
0
100
AcDbLine
10
-9.4709949385636332
20
-2.5999999418854713
30
0
11
-9.4709949385636332
21
-6.1705521165563351
31
0
0
ARC
5
114
100
AcDbEntity
8
0
100
AcDbCircle
10
-9.4709949385636332
20
-6.7538966178689233
30
0
40
0.58334450131258819
210
-0
220
0
230
1
100
AcDbArc
50
-90
51
90
0
LINE
5
115
100
AcDbEntity
8
0
100
AcDbLine
10
-9.4709949385636332
20
-7.3372411191815115
30
0
11
-9.4709949385636332
21
-11.899999734014273
31
0
0
SPLINE
5
116
100
AcDbEntity
8
0
100
AcDbSpline
70
4
71
5
72
31
73
25
74
0
42
0.000000001
43
0.0000000001
44
0.0000000001
40
0
40
0
40
0
40
0
40
0
40
0
40
0.050000000000000003
40
0.10000000000000001
40
0.15000000000000002
40
0.20000000000000001
40
0.25
40
0.29999999999999999
40
0.34999999999999998
40
0.39999999999999997
40
0.44999999999999996
40
0.49999999999999994
40
0.54999999999999993
40
0.59999999999999998
40
0.65000000000000002
40
0.70000000000000007
40
0.75000000000000011
40
0.80000000000000016
40
0.8500000000000002
40
0.90000000000000024
40
0.95000000000000029
40
1
40
1
40
1
40
1
40
1
40
1
41
1
41
1
41
1
41
1
41
1
41
1
41
1
41
1
41
1
41
1
41
1
41
1
41
1
41
1
41
1
41
1
41
1
41
1
41
1
41
1
41
1
41
1
41
1
41
1
41
1
10
-9.4709949385636332
20
-11.899999734014273
30
0
10
-9.4709949385636332
20
-11.938626955802526
30
0
10
-9.4570283896641865
20
-12.020175803682484
30
0
10
-9.3941745731558495
20
-12.155384909274851
30
0
10
-9.2324246702544404
20
-12.355988960970913
30
0
10
-8.9340042698205373
20
-12.609911025591254
30
0
10
-8.5832582705752962
20
-12.828373332821192
30
0
10
-8.2235093885422295
20
-12.975289432671143
30
0
10
-7.8916606609220015
20
-13.024562956113328
30
0
10
-7.6007200518815576
20
-12.974886319445771
30
0
10
-7.3530503688864552
20
-12.845675008120477
30
0
10
-7.1607127789201606
20
-12.658707948922146
30
0
10
-7.0340044100732637
20
-12.439675623101646
30
0
10
-6.9816667299369506
20
-12.212456885719705
30
0
10
-7.0061592659242047
20
-11.996615182164076
30
0
10
-7.1006044641139923
20
-11.803203591412943
30
0
10
-7.2505623576117584
20
-11.63649032583371
30
0
10
-7.4364561448153754
20
-11.495715234940052
30
0
10
-7.6355831970600381
20
-11.37672074005549
30
0
10
-7.8241761957162792
20
-11.273570518763496
30
0
10
-7.9794387936310187
20
-11.180014841393589
30
0
10
-8.0614227941694931
20
-11.10829838080809
30
0
10
-8.0929857745158778
20
-11.054394618114696
30
0
10
-8.0999998189508915
20
-11.018178144941896
30
0
10
-8.0999998189508915
20
-10.99999975413084
30
0
0
LINE
5
117
100
AcDbEntity
8
0
100
AcDbLine
10
-8.0999998189508915
20
-10.99999975413084
30
0
11
-8.0999998189508915
21
-9.469368743456684
31
0
0
SPLINE
5
118
100
AcDbEntity
8
0
100
AcDbSpline
70
4
71
5
72
36
73
30
74
0
42
0.000000001
43
0.0000000001
44
0.0000000001
40
0
40
0
40
0
40
0
40
0
40
0
40
0.040000000000000001
40
0.080000000000000002
40
0.12
40
0.16
40
0.20000000000000001
40
0.24000000000000002
40
0.28000000000000003
40
0.32000000000000001
40
0.35999999999999999
40
0.39999999999999997
40
0.43999999999999995
40
0.47999999999999993
40
0.51999999999999991
40
0.55999999999999994
40
0.59999999999999998
40
0.64000000000000001
40
0.68000000000000005
40
0.72000000000000008
40
0.76000000000000012
40
0.80000000000000016
40
0.84000000000000019
40
0.88000000000000023
40
0.92000000000000026
40
0.9600000000000003
40
1
40
1
40
1
40
1
40
1
40
1
41
1
41
1
41
1
41
1
41
1
41
1
41
1
41
1
41
1
41
1
41
1
41
1
41
1
41
1
41
1
41
1
41
1
41
1
41
1
41
1
41
1
41
1
41
1
41
1
41
1
41
1
41
1
41
1
41
1
41
1
10
-8.0999998189508915
20
-9.469368743456684
30
0
10
-8.0999998189508915
20
-9.4363115874838304
30
0
10
-8.0998979940200204
20
-9.362683632980179
30
0
10
-8.0994354255987773
20
-9.229694403716838
30
0
10
-8.0943566235166049
20
-9.0103012558976907
30
0
10
-8.0602947299692751
20
-8.6850056930902291
30
0
10
-7.9770812672010427
20
-8.3373852380388751
30
0
10
-7.8296564953723653
20
-8.0010255392282268
30
0
10
-7.6213162972758646
20
-7.7163648611454336
30
0
10
-7.3753267769263564
20
-7.5162799467468542
30
0
10
-7.1107832532999105
20
-7.4025875078360119
30
0
10
-6.8409563351369158
20
-7.357430710169357
30
0
10
-6.5699304820254181
20
-7.3474649735126381
30
0
10
-6.277498255477159
20
-7.3210636845674317
30
0
10
-5.9394360447029975
20
-7.2324790588680852
30
0
10
-5.5779310705913518
20
-7.0796347606016923
30
0
10
-5.2271108719887751
20
-6.8766903598083129
30
0
10
-4.9238485630135118
20
-6.6446498382878962
30
0
10
-4.6936079235231203
20
-6.4022113422372575
30
0
10
-4.5252532949768485
20
-6.138438356772248
30
0
10
-4.3887281238512266
20
-5.8463287746262385
30
0
10
-4.2617161076873256
20
-5.5454001576681708
30
0
10
-4.124432652515825
20
-5.2611811998694344
30
0
10
-3.9670900468203776
20
-5.0212089745140167
30
0
10
-3.7914091791406825
20
-4.8448108313492186
30
0
10
-3.6164981700677101
20
-4.7334481389408767
30
0
10
-3.499522489615897
20
-4.6876130341795728
30
0
10
-3.4360712367851276
20
-4.67155185808938
30
0
10
-3.4061790250924417
20
-4.667981921616545
30
0
10
-3.3943347553011982
20
-4.6679819216165459
30
0
0
LINE
5
119
100
AcDbEntity
8
0
100
AcDbLine
10
0.0056651687028796971
20
-4.6679819216165459
30
0
11
-3.3943347553011982
21
-4.6679819216165459
31
0
0
LINE
5
120
100
AcDbEntity
8
0
100
AcDbLine
10
0
20
-3.7999999150633812
30
0
11
-3.6999999172985554
21
-3.7999999150633812
31
0
0
SPLINE
5
121
100
AcDbEntity
8
0
100
AcDbSpline
70
4
71
5
72
41
73
35
74
0
42
0.000000001
43
0.0000000001
44
0.0000000001
40
0
40
0
40
0
40
0
40
0
40
0
40
0.033333333333333333
40
0.066666666666666666
40
0.10000000000000001
40
0.13333333333333333
40
0.16666666666666666
40
0.19999999999999998
40
0.23333333333333331
40
0.26666666666666666
40
0.29999999999999999
40
0.33333333333333331
40
0.36666666666666664
40
0.39999999999999997
40
0.43333333333333329
40
0.46666666666666662
40
0.49999999999999994
40
0.53333333333333333
40
0.56666666666666665
40
0.59999999999999998
40
0.6333333333333333
40
0.66666666666666663
40
0.69999999999999996
40
0.73333333333333328
40
0.76666666666666661
40
0.79999999999999993
40
0.83333333333333326
40
0.86666666666666659
40
0.89999999999999991
40
0.93333333333333324
40
0.96666666666666656
40
1
40
1
40
1
40
1
40
1
40
1
41
1
41
1
41
1
41
1
41
1
41
1
41
1
41
1
41
1
41
1
41
1
41
1
41
1
41
1
41
1
41
1
41
1
41
1
41
1
41
1
41
1
41
1
41
1
41
1
41
1
41
1
41
1
41
1
41
1
41
1
41
1
41
1
41
1
41
1
41
1
10
-3.6999999172985554
20
-3.7999999150633812
30
0
10
-3.7273183410508253
20
-3.7999999150633812
30
0
10
-3.7826572320771783
20
-3.7938889849569395
30
0
10
-3.8677779993142098
20
-3.7663878134312756
30
0
10
-3.9813110485562673
20
-3.6960031834989997
30
0
10
-4.1044876056568222
20
-3.5676864573694731
30
0
10
-4.1927319583310103
20
-3.4176457218382552
30
0
10
-4.2465415468316561
20
-3.2605437175446199
30
0
10
-4.2877891545550382
20
-3.1034009771234876
30
0
10
-4.3437764898965296
20
-2.9481036131406242
30
0
10
-4.4370938770641652
20
-2.7925494436880323
30
0
10
-4.5699124927135903
20
-2.6323662890551751
30
0
10
-4.7238157014989248
20
-2.4621159515268811
30
0
10
-4.8724626826196848
20
-2.2763564832434913
30
0
10
-4.9900493934986159
20
-2.0707172205803928
30
0
10
-5.0627148280342631
20
-1.8430081033904275
30
0
10
-5.0952492766258892
20
-1.5942259621858335
30
0
10
-5.0993852001786593
20
-1.3282229392790543
30
0
10
-5.0810837582836257
20
-1.0519738240384289
30
0
10
-5.0347224756473574
20
-0.77477597553967892
30
0
10
-4.9179669943351962
20
-0.51009601822060102
30
0
10
-4.7128768120476563
20
-0.26558772894084248
30
0
10
-4.4219596569565196
20
-0.044353689833057784
30
0
10
-4.0603420286725473
20
0.15360974268359773
30
0
10
-3.6500922416077728
20
0.33013060627189944
30
0
10
-3.2140868039638617
20
0.48761069195744267
30
0
10
-2.7691066815690899
20
0.62757094728129903
30
0
10
-2.3228247845150509
20
0.75001235011548473
30
0
10
-1.876795562690591
20
0.8539885599817596
30
0
10
-1.4279370002016967
20
0.93788122398863016
30
0
10
-0.9705847157304287
20
0.99979382479808088
30
0
10
-0.59273823832955252
20
1.0302755670054877
30
0
10
-0.30020808283703437
20
1.041794901672727
30
0
10
-0.10080058452270094
20
1.0443547511943938
30
0
10
0
20
1.0443547511943938
30
0
0
SPLINE
5
122
100
AcDbEntity
8
0
100
AcDbSpline
70
6
71
5
72
76
73
70
74
0
42
0.000000001
43
0.0000000001
44
0.0000000001
40
0
40
0
40
0
40
0
40
0
40
0
40
0.015384615384615385
40
0.030769230769230771
40
0.046153846153846156
40
0.061538461538461542
40
0.076923076923076927
40
0.092307692307692313
40
0.1076923076923077
40
0.12307692307692308
40
0.13846153846153847
40
0.15384615384615385
40
0.16923076923076924
40
0.18461538461538463
40
0.20000000000000001
40
0.2153846153846154
40
0.23076923076923078
40
0.24615384615384617
40
0.26153846153846155
40
0.27692307692307694
40
0.29230769230769232
40
0.30769230769230771
40
0.32307692307692309
40
0.33846153846153848
40
0.35384615384615387
40
0.36923076923076925
40
0.38461538461538464
40
0.40000000000000002
40
0.41538461538461541
40
0.43076923076923079
40
0.44615384615384618
40
0.46153846153846156
40
0.47692307692307695
40
0.49230769230769234
40
0.50769230769230766
40
0.52307692307692299
40
0.53846153846153832
40
0.55384615384615365
40
0.56923076923076898
40
0.58461538461538431
40
0.59999999999999964
40
0.61538461538461497
40
0.6307692307692303
40
0.64615384615384563
40
0.66153846153846096
40
0.67692307692307629
40
0.69230769230769162
40
0.70769230769230695
40
0.72307692307692228
40
0.73846153846153761
40
0.75384615384615294
40
0.76923076923076827
40
0.7846153846153836
40
0.79999999999999893
40
0.81538461538461426
40
0.83076923076922959
40
0.84615384615384492
40
0.86153846153846025
40
0.87692307692307558
40
0.89230769230769091
40
0.90769230769230624
40
0.92307692307692157
40
0.9384615384615369
40
0.95384615384615223
40
0.96923076923076756
40
0.98461538461538289
40
1
40
1
40
1
40
1
40
1
40
1
41
1
41
1
41
1
41
1
41
1
41
1
41
1
41
1
41
1
41
1
41
1
41
1
41
1
41
1
41
1
41
1
41
1
41
1
41
1
41
1
41
1
41
1
41
1
41
1
41
1
41
1
41
1
41
1
41
1
41
1
41
1
41
1
41
1
41
1
41
1
41
1
41
1
41
1
41
1
41
1
41
1
41
1
41
1
41
1
41
1
41
1
41
1
41
1
41
1
41
1
41
1
41
1
41
1
41
1
41
1
41
1
41
1
41
1
41
1
41
1
41
1
41
1
41
1
41
1
41
1
41
1
41
1
41
1
41
1
41
1
10
-6.3876214123396169
20
-1.6238558237279264
30
0
10
-6.3619563658954696
20
-1.622895848645395
30
0
10
-6.308861037804685
20
-1.6253667968683738
30
0
10
-6.224713042427231
20
-1.64130128493936
30
0
10
-6.1141737872095936
20
-1.6808639596320865
30
0
10
-6.011152422515428
20
-1.7488519870420236
30
0
10
-5.9621830248846175
20
-1.832517194257651
30
0
10
-5.9206935486403385
20
-1.9675311687150283
30
0
10
-5.8605683573224345
20
-2.1565778964179856
30
0
10
-5.7770429213854175
20
-2.3778840219692103
30
0
10
-5.6758427713513271
20
-2.6003050804901431
30
0
10
-5.568468891815705
20
-2.7940230720992498
30
0
10
-5.4638229659053437
20
-2.9454534780908528
30
0
10
-5.36486360384772
20
-3.0624029343805375
30
0
10
-5.2715957206067463
20
-3.1638436758267723
30
0
10
-5.1826908770536271
20
-3.2732122690314176
30
0
10
-5.0976871037590943
20
-3.4101687042455007
30
0
10
-5.018836553515623
20
-3.5833923318768819
30
0
10
-4.9502820861206951
20
-3.793165532696205
30
0
10
-4.8973134385560595
20
-4.0336235665119951
30
0
10
-4.8655827112412471
20
-4.2951650612229306
30
0
10
-4.860372489642625
20
-4.5666674689373083
30
0
10
-4.8857521567189641
20
-4.8380889673751106
30
0
10
-4.9443227173670472
20
-5.101019979325244
30
0
10
-5.0371590124696937
20
-5.3485211972928202
30
0
10
-5.1636970676026115
20
-5.5751958653261289
30
0
10
-5.3216134297088216
20
-5.7771721820633823
30
0
10
-5.5067698231126148
20
-5.9521147029743728
30
0
10
-5.7129625821031169
20
-6.0992569192040946
30
0
10
-5.9325324085946365
20
-6.2192824917374416
30
0
10
-6.1575095144783765
20
-6.3141119575745472
30
0
10
-6.3805744190800926
20
-6.3867136112699203
30
0
10
-6.5961409297013258
20
-6.4409221196268609
30
0
10
-6.8012829742608085
20
-6.4812188922278926
30
0
10
-6.9970132121834041
20
-6.5126270398659987
30
0
10
-7.1864791230426821
20
-6.5395609578470211
30
0
10
-7.3727195282355771
20
-6.5645373710108679
30
0
10
-7.5565277904296178
20
-6.5868912169535152
30
0
10
-7.7343780773103674
20
-6.6015795892763904
30
0
10
-7.8960189364249311
20
-6.5976845472224364
30
0
10
-8.0288347175396062
20
-6.562749397324394
30
0
10
-8.1226716653986379
20
-6.4875220474500903
30
0
10
-8.1744248206229848
20
-6.3704735668997401
30
0
10
-8.1929296571729395
20
-6.2226385525077399
30
0
10
-8.1940894014542227
20
-6.0614209878127259
30
0
10
-8.1957217763645378
20
-5.9040537061136629
30
0
10
-8.2126049952446856
20
-5.7613375711033585
30
0
10
-8.2511943315650331
20
-5.6308537760038559
30
0
10
-8.3110724021932008
20
-5.501627314648716
30
0
10
-8.3867245765600487
20
-5.3594402380721125
30
0
10
-8.469164997307967
20
-5.1916902158768474
30
0
10
-8.5476769651616031
20
-4.9929868231399714
30
0
10
-8.6108215579967791
20
-4.7640935068258266
30
0
10
-8.6473576601984981
20
-4.5100191234572113
30
0
10
-8.6471972425815729
20
-4.2383980866002799
30
0
10
-8.602337247581314
20
-3.9577968086425273
30
0
10
-8.507829506390074
20
-3.6759534168716796
30
0
10
-8.3626590552923297
20
-3.3983456374855376
30
0
10
-8.1698038969323044
20
-3.1289135310087985
30
0
10
-7.9365566081971393
20
-2.870513699207887
30
0
10
-7.6744206657463661
20
-2.6255078390497739
30
0
10
-7.3999491855543562
20
-2.3962189496225115
30
0
10
-7.1334405414553679
20
-2.1856153989746971
30
0
10
-6.9025964235246295
20
-1.9974992879744997
30
0
10
-6.7351827923202201
20
-1.8378413146050356
30
0
10
-6.6142963432157202
20
-1.7158072850488872
30
0
10
-6.5311121950117901
20
-1.6547102447816744
30
0
10
-6.4628513164695782
20
-1.6311266473635588
30
0
10
-6.4132864587837668
20
-1.6248157988104572
30
0
10
-6.3876214123396169
20
-1.6238558237279264
30
0
0
ENDSEC
0
SECTION
2
OBJECTS
0
DICTIONARY
5
C
100
AcDbDictionary
3
ACAD_GROUP
350
D
3
ACAD_MLINESTYLE
350
17
0
DICTIONARY
5
D
100
AcDbDictionary
0
DICTIONARY
5
1A
330
C
100
AcDbDictionary
0
DICTIONARY
5
17
100
AcDbDictionary
0
ENDSEC
0
EOF
