0
SECTION
2
HEADER
9
$INSUNITS
70
4
9
$ACADVER
1
AC1014
9
$HANDSEED
5
FFFF
0
ENDSEC
0
SECTION
2
TABLES
0
TABLE
2
VPORT
5
8
100
AcDbSymbolTable
0
ENDTAB
0
TABLE
2
LTYPE
5
5
100
AcDbSymbolTable
0
LTYPE
5
14
100
AcDbSymbolTableRecord
100
AcDbLinetypeTableRecord
2
BYBLOCK
70
0
0
LTYPE
5
15
100
AcDbSymbolTableRecord
100
AcDbLinetypeTableRecord
2
BYLAYER
70
0
0
ENDTAB
0
TABLE
2
LAYER
5
2
100
AcDbSymbolTable
70
2
0
LAYER
5
50
100
AcDbSymbolTableRecord
100
AcDbLayerTableRecord
2
0
70
0
6
CONTINUOUS
0
ENDTAB
0
TABLE
2
STYLE
5
3
100
AcDbSymbolTable
70
1
0
STYLE
5
11
100
AcDbSymbolTableRecord
100
AcDbTextStyleTableRecord
2
STANDARD
70
0
0
ENDTAB
0
TABLE
2
VIEW
5
6
100
AcDbSymbolTable
70
0
0
ENDTAB
0
TABLE
2
UCS
5
7
100
AcDbSymbolTable
70
0
0
ENDTAB
0
TABLE
2
APPID
5
9
100
AcDbSymbolTable
70
2
0
APPID
5
12
100
AcDbSymbolTableRecord
100
AcDbRegAppTableRecord
2
ACAD
70
0
0
ENDTAB
0
TABLE
2
DIMSTYLE
5
A
100
AcDbSymbolTable
70
1
0
ENDTAB
0
TABLE
2
BLOCK_RECORD
5
1
100
AcDbSymbolTable
70
1
0
BLOCK_RECORD
5
1F
100
AcDbSymbolTableRecord
100
AcDbBlockTableRecord
2
*MODEL_SPACE
0
BLOCK_RECORD
5
1B
100
AcDbSymbolTableRecord
100
AcDbBlockTableRecord
2
*PAPER_SPACE
0
ENDTAB
0
ENDSEC
0
SECTION
2
BLOCKS
0
BLOCK
5
20
100
AcDbEntity
100
AcDbBlockBegin
2
*MODEL_SPACE
0
ENDBLK
5
21
100
AcDbEntity
100
AcDbBlockEnd
0
BLOCK
5
1C
100
AcDbEntity
100
AcDbBlockBegin
2
*PAPER_SPACE
0
ENDBLK
5
1D
100
AcDbEntity
100
AcDbBlockEnd
0
ENDSEC
0
SECTION
2
ENTITIES
0
LINE
5
100
100
AcDbEntity
8
0
100
AcDbLine
10
3.6663585686971665
20
1.974507120081902
30
0
11
10.611672083466448
21
-5.2588098259218299
31
0
0
LINE
5
101
100
AcDbEntity
8
0
100
AcDbLine
10
3.6524990453464756
20
0.3458327285598925
30
0
11
9.2508777237195989
21
-5.4612780918395245
31
0
0
LINE
5
102
100
AcDbEntity
8
0
100
AcDbLine
10
11.583229597733977
20
-7.4992429240530445
30
0
11
11.583229597733977
21
-15.000000223517418
31
0
0
LINE
5
103
100
AcDbEntity
8
0
100
AcDbLine
10
10.189545921657629
20
-12.549650939818386
30
0
11
10.189545921657629
21
-13.899999689310789
31
0
0
LINE
5
104
100
AcDbEntity
8
0
100
AcDbLine
10
6.9873592935892024
20
-9.8486985978653578
30
0
11
9.5999997854232788
21
-9.8486985978653578
31
0
0
SPLINE
5
105
100
AcDbEntity
8
0
100
AcDbSpline
70
4
71
5
72
16
73
10
74
0
42
0.000000001
43
0.0000000001
44
0.0000000001
40
0
40
0
40
0
40
0
40
0
40
0
40
0.20000000000000001
40
0.40000000000000002
40
0.60000000000000009
40
0.80000000000000004
40
1
40
1
40
1
40
1
40
1
40
1
41
1
41
1
41
1
41
1
41
1
41
1
41
1
41
1
41
1
41
1
10
0
20
3.5999999195337296
30
0
10
0.24539040674343901
20
3.5999999195337296
30
0
10
0.70735431636662793
20
3.5810234005852175
30
0
10
1.3139272391601153
20
3.4956802784150725
30
0
10
1.9737752558581181
20
3.2838253043250236
30
0
10
2.6333758330539476
20
2.9102127984122661
30
0
10
3.079977615257147
20
2.5579308295017738
30
0
10
3.3843044492268315
20
2.2735524931797899
30
0
10
3.574462504483459
20
2.0755862753337189
30
0
10
3.6663585686971665
20
1.974507120081902
30
0
0
SPLINE
5
106
100
AcDbEntity
8
0
100
AcDbSpline
70
4
71
5
72
16
73
10
74
0
42
0.000000001
43
0.0000000001
44
0.0000000001
40
0
40
0
40
0
40
0
40
0
40
0
40
0.20000000000000001
40
0.40000000000000002
40
0.60000000000000009
40
0.80000000000000004
40
1
40
1
40
1
40
1
40
1
40
1
41
1
41
1
41
1
41
1
41
1
41
1
41
1
41
1
41
1
41
1
10
0
20
1.0449042611211357
30
0
10
0.14740227979119949
20
1.0449042611211357
30
0
10
0.45095659661266529
20
1.0423681085143601
30
0
10
0.93250504170617921
20
1.0309569132394252
30
0
10
1.6122506152058456
20
0.99799374213620007
30
0
10
2.4505204087884893
20
0.90431248026898003
30
0
10
3.037271031025794
20
0.7553936545258827
30
0
10
3.3870124110801525
20
0.57963187564070529
30
0
10
3.5720344019286454
20
0.42929744723930952
30
0
10
3.6524990453464756
20
0.3458327285598925
30
0
0
SPLINE
5
107
100
AcDbEntity
8
0
100
AcDbSpline
70
4
71
5
72
16
73
10
74
0
42
0.000000001
43
0.0000000001
44
0.0000000001
40
0
40
0
40
0
40
0
40
0
40
0
40
0.20000000000000001
40
0.40000000000000002
40
0.60000000000000009
40
0.80000000000000004
40
1
40
1
40
1
40
1
40
1
40
1
41
1
41
1
41
1
41
1
41
1
41
1
41
1
41
1
41
1
41
1
10
10.611672083466448
20
-5.2588098259218299
30
0
10
10.696319074446386
20
-5.3469668994623394
30
0
10
10.854145014796767
20
-5.5248956313628206
30
0
10
11.056508947037313
20
-5.7966269953620682
30
0
10
11.265501036295301
20
-6.1662983285521102
30
0
10
11.448216222470908
20
-6.6296290128347213
30
0
10
11.539610152798067
20
-6.9907154414596127
30
0
10
11.575295486122519
20
-7.2502789290417793
30
0
10
11.583229597733977
20
-7.4172652528594121
30
0
10
11.583229597733977
20
-7.4992429240530445
30
0
0
SPLINE
5
108
100
AcDbEntity
8
0
100
AcDbSpline
70
4
71
5
72
36
73
30
74
0
42
0.000000001
43
0.0000000001
44
0.0000000001
40
0
40
0
40
0
40
0
40
0
40
0
40
0.040000000000000001
40
0.080000000000000002
40
0.12
40
0.16
40
0.20000000000000001
40
0.24000000000000002
40
0.28000000000000003
40
0.32000000000000001
40
0.35999999999999999
40
0.39999999999999997
40
0.43999999999999995
40
0.47999999999999993
40
0.51999999999999991
40
0.55999999999999994
40
0.59999999999999998
40
0.64000000000000001
40
0.68000000000000005
40
0.72000000000000008
40
0.76000000000000012
40
0.80000000000000016
40
0.84000000000000019
40
0.88000000000000023
40
0.92000000000000026
40
0.9600000000000003
40
1
40
1
40
1
40
1
40
1
40
1
41
1
41
1
41
1
41
1
41
1
41
1
41
1
41
1
41
1
41
1
41
1
41
1
41
1
41
1
41
1
41
1
41
1
41
1
41
1
41
1
41
1
41
1
41
1
41
1
41
1
41
1
41
1
41
1
41
1
41
1
10
10.189545921657629
20
-12.549650939818386
30
0
10
10.189545921657629
20
-12.471753188476313
30
0
10
10.170694631908958
20
-12.308712948851198
30
0
10
10.085911860061696
20
-12.042500013298888
30
0
10
9.8715085503995876
20
-11.663009066379747
30
0
10
9.4977934764009007
20
-11.245561756602457
30
0
10
9.0800112186152919
20
-10.971129115537362
30
0
10
8.6648433061582768
20
-10.88924744381659
30
0
10
8.2198888802951515
20
-10.901546849219471
30
0
10
7.7183046116608844
20
-10.903347014281167
30
0
10
7.1808062398784713
20
-10.862780787892362
30
0
10
6.6406397963909036
20
-10.768359608168359
30
0
10
6.1392642150617966
20
-10.629143347793342
30
0
10
5.7096454170904263
20
-10.453246850658067
30
0
10
5.3632140596997999
20
-10.234163637247235
30
0
10
5.0919511357801532
20
-9.9589206726667854
30
0
10
4.8720461014528968
20
-9.6261816338239683
30
0
10
4.6697822597758236
20
-9.2518185003117566
30
0
10
4.4386697932150998
20
-8.9020777670542586
30
0
10
4.1589982778752717
20
-8.609766730076915
30
0
10
3.8284166190728088
20
-8.3810390331423008
30
0
10
3.4527077575541392
20
-8.2074223952409415
30
0
10
3.0373263417775491
20
-8.0743577236489052
30
0
10
2.5777588594594341
20
-7.9719059830085097
30
0
10
2.0620781023701569
20
-7.894398811698129
30
0
10
1.474798060527891
20
-7.8391795884765507
30
0
10
0.93515259106426274
20
-7.8123757450692297
30
0
10
0.48561913865594097
20
-7.8022499720273473
30
0
10
0.16530976991096991
20
-7.799999825656414
30
0
10
0
20
-7.799999825656414
30
0
0
SPLINE
5
109
100
AcDbEntity
8
0
100
AcDbSpline
70
4
71
5
72
26
73
20
74
0
42
0.000000001
43
0.0000000001
44
0.0000000001
40
0
40
0
40
0
40
0
40
0
40
0
40
0.066666666666666666
40
0.13333333333333333
40
0.20000000000000001
40
0.26666666666666666
40
0.33333333333333331
40
0.39999999999999997
40
0.46666666666666662
40
0.53333333333333333
40
0.59999999999999998
40
0.66666666666666663
40
0.73333333333333328
40
0.79999999999999993
40
0.86666666666666659
40
0.93333333333333324
40
1
40
1
40
1
40
1
40
1
40
1
41
1
41
1
41
1
41
1
41
1
41
1
41
1
41
1
41
1
41
1
41
1
41
1
41
1
41
1
41
1
41
1
41
1
41
1
41
1
41
1
10
0
20
-6.7999998480081558
30
0
10
0.1508746705554426
20
-6.7999998480081558
30
0
10
0.44756873543562364
20
-6.8028565352570602
30
0
10
0.87744381964487195
20
-6.8157123158214716
30
0
10
1.4209193584570405
20
-6.8489094834551425
30
0
10
2.0539463516771788
20
-6.9122640677934548
30
0
10
2.6439956583350153
20
-6.9932980429653746
30
0
10
3.1931332190265338
20
-7.0918330723693863
30
0
10
3.7011643808076893
20
-7.2141116642126546
30
0
10
4.1637897002276407
20
-7.3774574923107892
30
0
10
4.5737529417028888
20
-7.6082184402969446
30
0
10
4.9284477714615429
20
-7.9263141039352556
30
0
10
5.2355629722136552
20
-8.332703454639601
30
0
10
5.521597345678674
20
-8.7943841586620835
30
0
10
5.8374417988075722
20
-9.2288060755420762
30
0
10
6.1918222453841043
20
-9.581130624624274
30
0
10
6.5015343721159518
20
-9.7634701417361089
30
0
10
6.7421517131836595
20
-9.8332055616624441
30
0
10
6.9051880820918354
20
-9.8486985978653578
30
0
10
6.9873592935892024
20
-9.8486985978653578
30
0
0
SPLINE
5
110
100
AcDbEntity
8
0
100
AcDbSpline
70
4
71
5
72
26
73
20
74
0
42
0.000000001
43
0.0000000001
44
0.0000000001
40
0
40
0
40
0
40
0
40
0
40
0
40
0.066666666666666666
40
0.13333333333333333
40
0.20000000000000001
40
0.26666666666666666
40
0.33333333333333331
40
0.39999999999999997
40
0.46666666666666662
40
0.53333333333333333
40
0.59999999999999998
40
0.66666666666666663
40
0.73333333333333328
40
0.79999999999999993
40
0.86666666666666659
40
0.93333333333333324
40
1
40
1
40
1
40
1
40
1
40
1
41
1
41
1
41
1
41
1
41
1
41
1
41
1
41
1
41
1
41
1
41
1
41
1
41
1
41
1
41
1
41
1
41
1
41
1
41
1
41
1
10
9.5999997854232788
20
-9.8486985978653578
30
0
10
9.6491990285174047
20
-9.8465318212074564
30
0
10
9.7423699859247623
20
-9.8371827235815008
30
0
10
9.8664444060497498
20
-9.8081134009556905
30
0
10
10.00027989396086
20
-9.7390358363705261
30
0
10
10.115058202982322
20
-9.6019832871983031
30
0
10
10.180112083297143
20
-9.415886629504211
30
0
10
10.2032062769813
20
-9.186257258566684
30
0
10
10.199157477814358
20
-8.9237916774315256
30
0
10
10.184318361947753
20
-8.6397643989765278
30
0
10
10.167999494992925
20
-8.336248371694035
30
0
10
10.15094887249786
20
-8.0082916024278017
30
0
10
10.106388324325501
20
-7.6168387423898238
30
0
10
10.016288109896042
20
-7.1555791327332781
30
0
10
9.8792537816768498
20
-6.6570446334615818
30
0
10
9.7004788220195941
20
-6.1693034698952642
30
0
10
9.5318025758461449
20
-5.8305086467893199
30
0
10
9.3948721079140469
20
-5.6247922251405127
30
0
10
9.2995488990930326
20
-5.5117639423670104
30
0
10
9.2508777237195989
20
-5.4612780918395245
30
0
0
LINE
5
111
100
AcDbEntity
8
0
100
AcDbLine
10
9.6876355273384842
20
-15.864299222654923
30
0
11
10.786311050869624
21
-15.864299222654923
31
0
0
SPLINE
5
112
100
AcDbEntity
8
0
100
AcDbSpline
70
4
71
5
72
26
73
20
74
0
42
0.000000001
43
0.0000000001
44
0.0000000001
40
0
40
0
40
0
40
0
40
0
40
0
40
0.066666666666666666
40
0.13333333333333333
40
0.20000000000000001
40
0.26666666666666666
40
0.33333333333333331
40
0.39999999999999997
40
0.46666666666666662
40
0.53333333333333333
40
0.59999999999999998
40
0.66666666666666663
40
0.73333333333333328
40
0.79999999999999993
40
0.86666666666666659
40
0.93333333333333324
40
1
40
1
40
1
40
1
40
1
40
1
41
1
41
1
41
1
41
1
41
1
41
1
41
1
41
1
41
1
41
1
41
1
41
1
41
1
41
1
41
1
41
1
41
1
41
1
41
1
41
1
10
9.6876355273384842
20
-15.864299222654923
30
0
10
9.6410080151872162
20
-15.864309103683759
30
0
10
9.551891308110708
20
-15.856203536297247
30
0
10
9.430621292229489
20
-15.819677734268048
30
0
10
9.2932996023002641
20
-15.725783984251064
30
0
10
9.1607171871863855
20
-15.553302121250255
30
0
10
9.0692614711809654
20
-15.349335454331881
30
0
10
9.0240695638392161
20
-15.136957098540705
30
0
10
9.0429417143737947
20
-14.926473752455907
30
0
10
9.1415034066582983
20
-14.72304957926853
30
0
10
9.2992609155525496
20
-14.552212738015164
30
0
10
9.4866097452156577
20
-14.433935267589618
30
0
10
9.6713029324300539
20
-14.374757987554521
30
0
10
9.8340230036397003
20
-14.348304030079372
30
0
10
9.9792391729036893
20
-14.286049411052781
30
0
10
10.096902869804957
20
-14.180815213027332
30
0
10
10.15976997650961
20
-14.071562130799581
30
0
10
10.184130182996277
20
-13.985814197383341
30
0
10
10.189545921657629
20
-13.928607903234438
30
0
10
10.189545921657629
20
-13.899999689310789
30
0
0
SPLINE
5
113
100
AcDbEntity
8
0
100
AcDbSpline
70
4
71
5
72
16
73
10
74
0
42
0.000000001
43
0.0000000001
44
0.0000000001
40
0
40
0
40
0
40
0
40
0
40
0
40
0.20000000000000001
40
0.40000000000000002
40
0.60000000000000009
40
0.80000000000000004
40
1
40
1
40
1
40
1
40
1
40
1
41
1
41
1
41
1
41
1
41
1
41
1
41
1
41
1
41
1
41
1
10
11.583229597733977
20
-15.000000223517418
30
0
10
11.583229597733977
20
-15.043766592772778
30
0
10
11.572038309517719
20
-15.132770404861073
30
0
10
11.521709511679619
20
-15.270681420019612
30
0
10
11.398329694565959
20
-15.458736084728281
30
0
10
11.192676536114234
20
-15.674218423684634
30
0
10
11.01909787022864
20
-15.801377960966265
30
0
10
10.897619371948119
20
-15.852978827967505
30
0
10
10.822444112286862
20
-15.864365081292267
30
0
10
10.786311050869624
20
-15.864299222654923
30
0
0
SPLINE
5
114
100
AcDbEntity
8
0
100
AcDbSpline
70
4
71
5
72
16
73
10
74
0
42
0.000000001
43
0.0000000001
44
0.0000000001
40
0
40
0
40
0
40
0
40
0
40
0
40
0.20000000000000001
40
0.40000000000000002
40
0.60000000000000009
40
0.80000000000000004
40
1
40
1
40
1
40
1
40
1
40
1
41
1
41
1
41
1
41
1
41
1
41
1
41
1
41
1
41
1
41
1
10
9.8093888358194157
20
-15.864299222654921
30
0
10
9.8058844563663499
20
-15.864480681078042
30
0
10
9.7988966794896264
20
-15.864775845819423
30
0
10
9.7884779100837189
20
-15.865015533540511
30
0
10
9.7747002359496182
20
-15.864997205214079
30
0
10
9.7576441209446756
20
-15.86468563001535
30
0
10
9.7441387535560775
20
-15.864421506721067
30
0
10
9.7341059400803438
20
-15.864312815171422
30
0
10
9.7274652481957702
20
-15.864294687106966
30
0
10
9.7241568747588261
20
-15.864299222654923
30
0
0
LINE
5
115
100
AcDbEntity
8
0
100
AcDbLine
10
0
20
2.5
30
0
11
0
21
20
31
0
0
LINE
5
116
100
AcDbEntity
8
0
100
AcDbLine
10
-11.583229597733977
20
-7.4992429240530445
30
0
11
-11.583229597733977
21
-15.000000223517418
31
0
0
LWPOLYLINE
5
117
100
AcDbEntity
8
0
100
AcDbPolyline
90
2
70
1
43
0.0
10
-10.189545921657633
20
-14.163546110603168
10
-10.189545921657629
20
-13.636453268018411
0
LINE
5
118
100
AcDbEntity
8
0
100
AcDbLine
10
-3.6524990453464756
20
0.3458327285598925
30
0
11
-9.2508777237195989
21
-5.4612780918395245
31
0
0
SPLINE
5
119
100
AcDbEntity
8
0
100
AcDbSpline
70
4
71
5
72
36
73
30
74
0
42
0.000000001
43
0.0000000001
44
0.0000000001
40
0
40
0
40
0
40
0
40
0
40
0
40
0.040000000000000001
40
0.080000000000000002
40
0.12
40
0.16
40
0.20000000000000001
40
0.24000000000000002
40
0.28000000000000003
40
0.32000000000000001
40
0.35999999999999999
40
0.39999999999999997
40
0.43999999999999995
40
0.47999999999999993
40
0.51999999999999991
40
0.55999999999999994
40
0.59999999999999998
40
0.64000000000000001
40
0.68000000000000005
40
0.72000000000000008
40
0.76000000000000012
40
0.80000000000000016
40
0.84000000000000019
40
0.88000000000000023
40
0.92000000000000026
40
0.9600000000000003
40
1
40
1
40
1
40
1
40
1
40
1
41
1
41
1
41
1
41
1
41
1
41
1
41
1
41
1
41
1
41
1
41
1
41
1
41
1
41
1
41
1
41
1
41
1
41
1
41
1
41
1
41
1
41
1
41
1
41
1
41
1
41
1
41
1
41
1
41
1
41
1
10
-10.189545921657629
20
-12.549650939818386
30
0
10
-10.189545921657629
20
-12.471753188476313
30
0
10
-10.170694631908958
20
-12.308712948851198
30
0
10
-10.085911860061696
20
-12.042500013298888
30
0
10
-9.8715085503995876
20
-11.663009066379747
30
0
10
-9.4977934764009007
20
-11.245561756602457
30
0
10
-9.0800112186152919
20
-10.971129115537362
30
0
10
-8.6648433061582768
20
-10.88924744381659
30
0
10
-8.2198888802951515
20
-10.901546849219471
30
0
10
-7.7183046116608844
20
-10.903347014281167
30
0
10
-7.1808062398784713
20
-10.862780787892362
30
0
10
-6.6406397963909036
20
-10.768359608168359
30
0
10
-6.1392642150617966
20
-10.629143347793342
30
0
10
-5.7096454170904263
20
-10.453246850658067
30
0
10
-5.3632140596997999
20
-10.234163637247235
30
0
10
-5.0919511357801532
20
-9.9589206726667854
30
0
10
-4.8720461014528968
20
-9.6261816338239683
30
0
10
-4.6697822597758236
20
-9.2518185003117566
30
0
10
-4.4386697932150998
20
-8.9020777670542586
30
0
10
-4.1589982778752717
20
-8.609766730076915
30
0
10
-3.8284166190728088
20
-8.3810390331423008
30
0
10
-3.4527077575541392
20
-8.2074223952409415
30
0
10
-3.0373263417775491
20
-8.0743577236489052
30
0
10
-2.5777588594594341
20
-7.9719059830085097
30
0
10
-2.0620781023701569
20
-7.894398811698129
30
0
10
-1.474798060527891
20
-7.8391795884765507
30
0
10
-0.93515259106426274
20
-7.8123757450692297
30
0
10
-0.48561913865594097
20
-7.8022499720273473
30
0
10
-0.16530976991096991
20
-7.799999825656414
30
0
10
0
20
-7.799999825656414
30
0
0
LWPOLYLINE
5
120
100
AcDbEntity
8
0
100
AcDbPolyline
90
2
70
1
43
0.0
10
-1.7642636421179909
20
-7.799999825656414
10
1.7642636421179909
20
-7.799999825656414
0
LWPOLYLINE
5
121
100
AcDbEntity
8
0
100
AcDbPolyline
90
2
70
1
43
0.0
10
-3.4645138357348064
20
0.54082685231005567
10
-3.8404842549581435
20
0.15083860480972822
0
SPLINE
5
122
100
AcDbEntity
8
0
100
AcDbSpline
70
4
71
5
72
16
73
10
74
0
42
0.000000001
43
0.0000000001
44
0.0000000001
40
0
40
0
40
0
40
0
40
0
40
0
40
0.20000000000000001
40
0.40000000000000002
40
0.60000000000000009
40
0.80000000000000004
40
1
40
1
40
1
40
1
40
1
40
1
41
1
41
1
41
1
41
1
41
1
41
1
41
1
41
1
41
1
41
1
10
0
20
3.5999999195337296
30
0
10
-0.24539040674343901
20
3.5999999195337296
30
0
10
-0.70735431636662793
20
3.5810234005852175
30
0
10
-1.3139272391601153
20
3.4956802784150725
30
0
10
-1.9737752558581181
20
3.2838253043250236
30
0
10
-2.6333758330539476
20
2.9102127984122661
30
0
10
-3.079977615257147
20
2.5579308295017738
30
0
10
-3.3843044492268315
20
2.2735524931797899
30
0
10
-3.574462504483459
20
2.0755862753337189
30
0
10
-3.6663585686971665
20
1.974507120081902
30
0
0
SPLINE
5
123
100
AcDbEntity
8
0
100
AcDbSpline
70
4
71
5
72
16
73
10
74
0
42
0.000000001
43
0.0000000001
44
0.0000000001
40
0
40
0
40
0
40
0
40
0
40
0
40
0.20000000000000001
40
0.40000000000000002
40
0.60000000000000009
40
0.80000000000000004
40
1
40
1
40
1
40
1
40
1
40
1
41
1
41
1
41
1
41
1
41
1
41
1
41
1
41
1
41
1
41
1
10
0
20
1.0449042611211357
30
0
10
-0.14740227979119949
20
1.0449042611211357
30
0
10
-0.45095659661266529
20
1.0423681085143601
30
0
10
-0.93250504170617921
20
1.0309569132394252
30
0
10
-1.6122506152058456
20
0.99799374213620007
30
0
10
-2.4505204087884893
20
0.90431248026898003
30
0
10
-3.037271031025794
20
0.7553936545258827
30
0
10
-3.3870124110801525
20
0.57963187564070529
30
0
10
-3.5720344019286454
20
0.42929744723930952
30
0
10
-3.6524990453464756
20
0.3458327285598925
30
0
0
LWPOLYLINE
5
124
100
AcDbEntity
8
0
100
AcDbPolyline
90
2
70
1
43
0.0
10
0.37255492952288227
20
1.0449042611211359
10
-0.37255492952288216
20
1.0449042611211361
0
LINE
5
125
100
AcDbEntity
8
0
100
AcDbLine
10
-3.6663585686971665
20
1.974507120081902
30
0
11
-10.611672083466448
21
-5.2588098259218299
31
0
0
SPLINE
5
126
100
AcDbEntity
8
0
100
AcDbSpline
70
4
71
5
72
16
73
10
74
0
42
0.000000001
43
0.0000000001
44
0.0000000001
40
0
40
0
40
0
40
0
40
0
40
0
40
0.20000000000000001
40
0.40000000000000002
40
0.60000000000000009
40
0.80000000000000004
40
1
40
1
40
1
40
1
40
1
40
1
41
1
41
1
41
1
41
1
41
1
41
1
41
1
41
1
41
1
41
1
10
-11.583229597733977
20
-15.000000223517418
30
0
10
-11.583229597733977
20
-15.043766592772778
30
0
10
-11.572038309517719
20
-15.132770404861073
30
0
10
-11.521709511679619
20
-15.270681420019612
30
0
10
-11.398329694565959
20
-15.458736084728281
30
0
10
-11.192676536114234
20
-15.674218423684634
30
0
10
-11.01909787022864
20
-15.801377960966265
30
0
10
-10.897619371948119
20
-15.852978827967505
30
0
10
-10.822444112286862
20
-15.864365081292267
30
0
10
-10.786311050869624
20
-15.864299222654923
30
0
0
LWPOLYLINE
5
127
100
AcDbEntity
8
0
100
AcDbPolyline
90
2
70
1
43
0.0
10
-6.2747187592868148
20
-9.8486985978653596
10
-7.6999998278915882
20
-9.8486985978653596
0
LWPOLYLINE
5
128
100
AcDbEntity
8
0
100
AcDbPolyline
90
2
70
1
43
0.0
10
1.062600200830371
20
-6.7999998480081558
10
-1.062600200830371
20
-6.7999998480081558
0
SPLINE
5
129
100
AcDbEntity
8
0
100
AcDbSpline
70
4
71
5
72
26
73
20
74
0
42
0.000000001
43
0.0000000001
44
0.0000000001
40
0
40
0
40
0
40
0
40
0
40
0
40
0.066666666666666666
40
0.13333333333333333
40
0.20000000000000001
40
0.26666666666666666
40
0.33333333333333331
40
0.39999999999999997
40
0.46666666666666662
40
0.53333333333333333
40
0.59999999999999998
40
0.66666666666666663
40
0.73333333333333328
40
0.79999999999999993
40
0.86666666666666659
40
0.93333333333333324
40
1
40
1
40
1
40
1
40
1
40
1
41
1
41
1
41
1
41
1
41
1
41
1
41
1
41
1
41
1
41
1
41
1
41
1
41
1
41
1
41
1
41
1
41
1
41
1
41
1
41
1
10
0
20
-6.7999998480081558
30
0
10
-0.1508746705554426
20
-6.7999998480081558
30
0
10
-0.44756873543562364
20
-6.8028565352570602
30
0
10
-0.87744381964487195
20
-6.8157123158214716
30
0
10
-1.4209193584570405
20
-6.8489094834551425
30
0
10
-2.0539463516771788
20
-6.9122640677934548
30
0
10
-2.6439956583350153
20
-6.9932980429653746
30
0
10
-3.1931332190265338
20
-7.0918330723693863
30
0
10
-3.7011643808076893
20
-7.2141116642126546
30
0
10
-4.1637897002276407
20
-7.3774574923107892
30
0
10
-4.5737529417028888
20
-7.6082184402969446
30
0
10
-4.9284477714615429
20
-7.9263141039352556
30
0
10
-5.2355629722136552
20
-8.332703454639601
30
0
10
-5.521597345678674
20
-8.7943841586620835
30
0
10
-5.8374417988075722
20
-9.2288060755420762
30
0
10
-6.1918222453841043
20
-9.581130624624274
30
0
10
-6.5015343721159518
20
-9.7634701417361089
30
0
10
-6.7421517131836595
20
-9.8332055616624441
30
0
10
-6.9051880820918354
20
-9.8486985978653578
30
0
10
-6.9873592935892024
20
-9.8486985978653578
30
0
0
LWPOLYLINE
5
130
100
AcDbEntity
8
0
100
AcDbPolyline
90
2
70
1
43
0.0
10
-4.7999998927116394
20
-7.6999998278915882
10
-5.8897877543376325
20
-9.3280723843572879
0
LINE
5
131
100
AcDbEntity
8
0
100
AcDbLine
10
-9.6876355273384842
20
-15.864299222654923
30
0
11
-10.786311050869624
21
-15.864299222654923
31
0
0
SPLINE
5
132
100
AcDbEntity
8
0
100
AcDbSpline
70
4
71
5
72
16
73
10
74
0
42
0.000000001
43
0.0000000001
44
0.0000000001
40
0
40
0
40
0
40
0
40
0
40
0
40
0.20000000000000001
40
0.40000000000000002
40
0.60000000000000009
40
0.80000000000000004
40
1
40
1
40
1
40
1
40
1
40
1
41
1
41
1
41
1
41
1
41
1
41
1
41
1
41
1
41
1
41
1
10
-10.611672083466448
20
-5.2588098259218299
30
0
10
-10.696319074446386
20
-5.3469668994623394
30
0
10
-10.854145014796767
20
-5.5248956313628206
30
0
10
-11.056508947037313
20
-5.7966269953620682
30
0
10
-11.265501036295301
20
-6.1662983285521102
30
0
10
-11.448216222470908
20
-6.6296290128347213
30
0
10
-11.539610152798067
20
-6.9907154414596127
30
0
10
-11.575295486122519
20
-7.2502789290417793
30
0
10
-11.583229597733977
20
-7.4172652528594121
30
0
10
-11.583229597733977
20
-7.4992429240530445
30
0
0
LWPOLYLINE
5
133
100
AcDbEntity
8
0
100
AcDbPolyline
90
2
70
1
43
0.0
10
-10.40238062990672
20
-5.040839619901889
10
-10.820963537026172
20
-5.4767800319417681
0
LWPOLYLINE
5
134
100
AcDbEntity
8
0
100
AcDbPolyline
90
2
70
1
43
0.0
10
-11.583229597733977
20
-7.2984860202145025
10
-11.583229597733977
20
-7.6999998278915882
0
LINE
5
135
100
AcDbEntity
8
0
100
AcDbLine
10
-6.9873592935892024
20
-9.8486985978653596
30
0
11
-9.5999997854232788
21
-9.8486985978653596
31
0
0
LINE
5
136
100
AcDbEntity
8
0
100
AcDbLine
10
-10.189545921657629
20
-12.549650939818386
30
0
11
-10.189545921657629
21
-13.899999689310789
31
0
0
SPLINE
5
137
100
AcDbEntity
8
0
100
AcDbSpline
70
4
71
5
72
26
73
20
74
0
42
0.000000001
43
0.0000000001
44
0.0000000001
40
0
40
0
40
0
40
0
40
0
40
0
40
0.066666666666666666
40
0.13333333333333333
40
0.20000000000000001
40
0.26666666666666666
40
0.33333333333333331
40
0.39999999999999997
40
0.46666666666666662
40
0.53333333333333333
40
0.59999999999999998
40
0.66666666666666663
40
0.73333333333333328
40
0.79999999999999993
40
0.86666666666666659
40
0.93333333333333324
40
1
40
1
40
1
40
1
40
1
40
1
41
1
41
1
41
1
41
1
41
1
41
1
41
1
41
1
41
1
41
1
41
1
41
1
41
1
41
1
41
1
41
1
41
1
41
1
41
1
41
1
10
-9.6876355273384842
20
-15.864299222654923
30
0
10
-9.6410080151872162
20
-15.864309103683759
30
0
10
-9.551891308110708
20
-15.856203536297247
30
0
10
-9.430621292229489
20
-15.819677734268048
30
0
10
-9.2932996023002641
20
-15.725783984251064
30
0
10
-9.1607171871863855
20
-15.553302121250255
30
0
10
-9.0692614711809654
20
-15.349335454331881
30
0
10
-9.0240695638392161
20
-15.136957098540705
30
0
10
-9.0429417143737947
20
-14.926473752455907
30
0
10
-9.1415034066582983
20
-14.72304957926853
30
0
10
-9.2992609155525496
20
-14.552212738015164
30
0
10
-9.4866097452156577
20
-14.433935267589618
30
0
10
-9.6713029324300539
20
-14.374757987554521
30
0
10
-9.8340230036397003
20
-14.348304030079372
30
0
10
-9.9792391729036893
20
-14.286049411052781
30
0
10
-10.096902869804957
20
-14.180815213027332
30
0
10
-10.15976997650961
20
-14.071562130799581
30
0
10
-10.184130182996277
20
-13.985814197383341
30
0
10
-10.189545921657629
20
-13.928607903234438
30
0
10
-10.189545921657629
20
-13.899999689310789
30
0
0
LWPOLYLINE
5
138
100
AcDbEntity
8
0
100
AcDbPolyline
90
2
70
1
43
0.0
10
-9.0389974238305992
20
-15.38715085544538
10
-9.0389974238305992
20
-14.811577517170981
0
SPLINE
5
139
100
AcDbEntity
8
0
100
AcDbSpline
70
4
71
5
72
16
73
10
74
0
42
0.000000001
43
0.0000000001
44
0.0000000001
40
0
40
0
40
0
40
0
40
0
40
0
40
0.20000000000000001
40
0.40000000000000002
40
0.60000000000000009
40
0.80000000000000004
40
1
40
1
40
1
40
1
40
1
40
1
41
1
41
1
41
1
41
1
41
1
41
1
41
1
41
1
41
1
41
1
10
-9.8093888358194157
20
-15.864299222654921
30
0
10
-9.8058844563663499
20
-15.864480681078042
30
0
10
-9.7988966794896264
20
-15.864775845819423
30
0
10
-9.7884779100837189
20
-15.865015533540511
30
0
10
-9.7747002359496182
20
-15.864997205214079
30
0
10
-9.7576441209446756
20
-15.86468563001535
30
0
10
-9.7441387535560775
20
-15.864421506721067
30
0
10
-9.7341059400803438
20
-15.864312815171422
30
0
10
-9.7274652481957702
20
-15.864294687106966
30
0
10
-9.7241568747588261
20
-15.864299222654923
30
0
0
LWPOLYLINE
5
140
100
AcDbEntity
8
0
100
AcDbPolyline
90
2
70
1
43
0.0
10
-9.4998560585267189
20
-5.7195394323395545
10
-9.0018993889124808
20
-5.2030167513394909
0
SPLINE
5
141
100
AcDbEntity
8
0
100
AcDbSpline
70
4
71
5
72
26
73
20
74
0
42
0.000000001
43
0.0000000001
44
0.0000000001
40
0
40
0
40
0
40
0
40
0
40
0
40
0.066666666666666666
40
0.13333333333333333
40
0.20000000000000001
40
0.26666666666666666
40
0.33333333333333331
40
0.39999999999999997
40
0.46666666666666662
40
0.53333333333333333
40
0.59999999999999998
40
0.66666666666666663
40
0.73333333333333328
40
0.79999999999999993
40
0.86666666666666659
40
0.93333333333333324
40
1
40
1
40
1
40
1
40
1
40
1
41
1
41
1
41
1
41
1
41
1
41
1
41
1
41
1
41
1
41
1
41
1
41
1
41
1
41
1
41
1
41
1
41
1
41
1
41
1
41
1
10
-9.5999997854232788
20
-9.8486985978653578
30
0
10
-9.6491990285174047
20
-9.8465318212074564
30
0
10
-9.7423699859247623
20
-9.8371827235815008
30
0
10
-9.8664444060497498
20
-9.8081134009556905
30
0
10
-10.00027989396086
20
-9.7390358363705261
30
0
10
-10.115058202982322
20
-9.6019832871983031
30
0
10
-10.180112083297143
20
-9.415886629504211
30
0
10
-10.2032062769813
20
-9.186257258566684
30
0
10
-10.199157477814358
20
-8.9237916774315256
30
0
10
-10.184318361947753
20
-8.6397643989765278
30
0
10
-10.167999494992925
20
-8.336248371694035
30
0
10
-10.15094887249786
20
-8.0082916024278017
30
0
10
-10.106388324325501
20
-7.6168387423898238
30
0
10
-10.016288109896042
20
-7.1555791327332781
30
0
10
-9.8792537816768498
20
-6.6570446334615818
30
0
10
-9.7004788220195941
20
-6.1693034698952642
30
0
10
-9.5318025758461449
20
-5.8305086467893199
30
0
10
-9.3948721079140469
20
-5.6247922251405127
30
0
10
-9.2995488990930326
20
-5.5117639423670104
30
0
10
-9.2508777237195989
20
-5.4612780918395245
30
0
0
ENDSEC
0
SECTION
2
OBJECTS
0
DICTIONARY
5
C
100
AcDbDictionary
3
ACAD_GROUP
350
D
3
ACAD_MLINESTYLE
350
17
0
DICTIONARY
5
D
100
AcDbDictionary
0
DICTIONARY
5
1A
330
C
100
AcDbDictionary
0
DICTIONARY
5
17
100
AcDbDictionary
0
ENDSEC
0
EOF
