0
SECTION
2
HEADER
9
$INSUNITS
70
4
9
$ACADVER
1
AC1014
9
$HANDSEED
5
FFFF
0
ENDSEC
0
SECTION
2
TABLES
0
TABLE
2
VPORT
5
8
100
AcDbSymbolTable
0
ENDTAB
0
TABLE
2
LTYPE
5
5
100
AcDbSymbolTable
0
LTYPE
5
14
100
AcDbSymbolTableRecord
100
AcDbLinetypeTableRecord
2
BYBLOCK
70
0
0
LTYPE
5
15
100
AcDbSymbolTableRecord
100
AcDbLinetypeTableRecord
2
BYLAYER
70
0
0
ENDTAB
0
TABLE
2
LAYER
5
2
100
AcDbSymbolTable
70
2
0
LAYER
5
50
100
AcDbSymbolTableRecord
100
AcDbLayerTableRecord
2
0
70
0
6
CONTINUOUS
0
ENDTAB
0
TABLE
2
STYLE
5
3
100
AcDbSymbolTable
70
1
0
STYLE
5
11
100
AcDbSymbolTableRecord
100
AcDbTextStyleTableRecord
2
STANDARD
70
0
0
ENDTAB
0
TABLE
2
VIEW
5
6
100
AcDbSymbolTable
70
0
0
ENDTAB
0
TABLE
2
UCS
5
7
100
AcDbSymbolTable
70
0
0
ENDTAB
0
TABLE
2
APPID
5
9
100
AcDbSymbolTable
70
2
0
APPID
5
12
100
AcDbSymbolTableRecord
100
AcDbRegAppTableRecord
2
ACAD
70
0
0
ENDTAB
0
TABLE
2
DIMSTYLE
5
A
100
AcDbSymbolTable
70
1
0
ENDTAB
0
TABLE
2
BLOCK_RECORD
5
1
100
AcDbSymbolTable
70
1
0
BLOCK_RECORD
5
1F
100
AcDbSymbolTableRecord
100
AcDbBlockTableRecord
2
*MODEL_SPACE
0
BLOCK_RECORD
5
1B
100
AcDbSymbolTableRecord
100
AcDbBlockTableRecord
2
*PAPER_SPACE
0
ENDTAB
0
ENDSEC
0
SECTION
2
BLOCKS
0
BLOCK
5
20
100
AcDbEntity
100
AcDbBlockBegin
2
*MODEL_SPACE
0
ENDBLK
5
21
100
AcDbEntity
100
AcDbBlockEnd
0
BLOCK
5
1C
100
AcDbEntity
100
AcDbBlockBegin
2
*PAPER_SPACE
0
ENDBLK
5
1D
100
AcDbEntity
100
AcDbBlockEnd
0
ENDSEC
0
SECTION
2
ENTITIES
0
LINE
5
100
100
AcDbEntity
8
0
100
AcDbLine
10
2.5412742969574538
20
2.5315465585848704
30
0
11
10.876091674030111
21
-6.2414083236010196
31
0
0
LINE
5
101
100
AcDbEntity
8
0
100
AcDbLine
10
3.7092113322042239
20
-0.054569359460309164
30
0
11
9.7075864385984154
21
-6.4010735117924416
31
0
0
LINE
5
102
100
AcDbEntity
8
0
100
AcDbLine
10
12.041350681878589
20
-8.7233942350515434
30
0
11
12.041350681878589
21
-17.647453802886247
31
0
0
LINE
5
103
100
AcDbEntity
8
0
100
AcDbLine
10
11.327734367589242
20
-18.589731264506419
30
0
11
10.099999774247408
21
-18.589731264506419
31
0
0
LINE
5
104
100
AcDbEntity
8
0
100
AcDbLine
10
10.843407480126139
20
-16.705516282497378
30
0
11
10.808373477264544
21
-14.276306185775926
31
0
0
SPLINE
5
105
100
AcDbEntity
8
0
100
AcDbSpline
70
4
71
5
72
16
73
10
74
0
42
0.000000001
43
0.0000000001
44
0.0000000001
40
0
40
0
40
0
40
0
40
0
40
0
40
0.20000000000000001
40
0.40000000000000002
40
0.60000000000000009
40
0.80000000000000004
40
1
40
1
40
1
40
1
40
1
40
1
41
1
41
1
41
1
41
1
41
1
41
1
41
1
41
1
41
1
41
1
10
0
20
3.6999999172985554
30
0
10
0.11699611545349697
20
3.6999999172985554
30
0
10
0.3469670970850115
20
3.6894469835109458
30
0
10
0.67987023886242792
20
3.6419843226836885
30
0
10
1.1025832086364926
20
3.5216183693872183
30
0
10
1.604835740472019
20
3.2898337875066992
30
0
10
1.989889268135979
20
3.0380225897163764
30
0
10
2.2694155279626593
20
2.804255063357131
30
0
10
2.4513853954738742
20
2.6261606624636125
30
0
10
2.5412742969574538
20
2.5315465585848704
30
0
0
SPLINE
5
106
100
AcDbEntity
8
0
100
AcDbSpline
70
4
71
5
72
16
73
10
74
0
42
0.000000001
43
0.0000000001
44
0.0000000001
40
0
40
0
40
0
40
0
40
0
40
0
40
0.20000000000000001
40
0.40000000000000002
40
0.60000000000000009
40
0.80000000000000004
40
1
40
1
40
1
40
1
40
1
40
1
41
1
41
1
41
1
41
1
41
1
41
1
41
1
41
1
41
1
41
1
10
0
20
1.0432075623017392
30
0
10
0.15141846423465616
20
1.0432075623017392
30
0
10
0.46002708028180844
20
1.0355691593125878
30
0
10
0.94023315097438065
20
1.0012120330639764
30
0
10
1.6048360556626398
20
0.91165703653551855
30
0
10
2.4237490946627558
20
0.72100344873486988
30
0
10
3.0159606243696317
20
0.48547011616761682
30
0
10
3.393562257499505
20
0.24420954224377578
30
0
10
3.60990007883741
20
0.05050564346738623
30
0
10
3.7092113322042239
20
-0.054569359460309164
30
0
0
SPLINE
5
107
100
AcDbEntity
8
0
100
AcDbSpline
70
4
71
5
72
16
73
10
74
0
42
0.000000001
43
0.0000000001
44
0.0000000001
40
0
40
0
40
0
40
0
40
0
40
0
40
0.20000000000000001
40
0.40000000000000002
40
0.60000000000000009
40
0.80000000000000004
40
1
40
1
40
1
40
1
40
1
40
1
41
1
41
1
41
1
41
1
41
1
41
1
41
1
41
1
41
1
41
1
10
10.876091674030111
20
-6.2414083236010196
30
0
10
10.945774997038594
20
-6.3147546995487218
30
0
10
11.083163502464096
20
-6.4747999126007176
30
0
10
11.28331265145593
20
-6.7548835765367619
30
0
10
11.536030849085645
20
-7.1925561854012523
30
0
10
11.808512258483614
20
-7.7771901757825956
30
0
10
11.96442098422181
20
-8.2137421897749459
30
0
10
12.027356529842692
20
-8.4922375704849582
30
0
10
12.041350681878589
20
-8.6508544617317433
30
0
10
12.041350681878589
20
-8.7233942350515434
30
0
0
SPLINE
5
108
100
AcDbEntity
8
0
100
AcDbSpline
70
4
71
5
72
16
73
10
74
0
42
0.000000001
43
0.0000000001
44
0.0000000001
40
0
40
0
40
0
40
0
40
0
40
0
40
0.20000000000000001
40
0.40000000000000002
40
0.60000000000000009
40
0.80000000000000004
40
1
40
1
40
1
40
1
40
1
40
1
41
1
41
1
41
1
41
1
41
1
41
1
41
1
41
1
41
1
41
1
10
12.041350681878589
20
-17.647453802886247
30
0
10
12.041350681878589
20
-17.714667279277268
30
0
10
12.036256396297746
20
-17.84347624108457
30
0
10
12.013342779267964
20
-18.019848019133718
30
0
10
11.953794556655932
20
-18.223504033118651
30
0
10
11.828323839165076
20
-18.425643682565866
30
0
10
11.675154755483151
20
-18.535921526961666
30
0
10
11.519546935633194
20
-18.579943082711718
30
0
10
11.39512253297009
20
-18.589731264506419
30
0
10
11.327734367589242
20
-18.589731264506419
30
0
0
SPLINE
5
109
100
AcDbEntity
8
0
100
AcDbSpline
70
4
71
5
72
26
73
20
74
0
42
0.000000001
43
0.0000000001
44
0.0000000001
40
0
40
0
40
0
40
0
40
0
40
0
40
0.066666666666666666
40
0.13333333333333333
40
0.20000000000000001
40
0.26666666666666666
40
0.33333333333333331
40
0.39999999999999997
40
0.46666666666666662
40
0.53333333333333333
40
0.59999999999999998
40
0.66666666666666663
40
0.73333333333333328
40
0.79999999999999993
40
0.86666666666666659
40
0.93333333333333324
40
1
40
1
40
1
40
1
40
1
40
1
41
1
41
1
41
1
41
1
41
1
41
1
41
1
41
1
41
1
41
1
41
1
41
1
41
1
41
1
41
1
41
1
41
1
41
1
41
1
41
1
10
10.099999774247408
20
-18.589731264506419
30
0
10
10.058825559717068
20
-18.589731264506419
30
0
10
9.9799002038974098
20
-18.582873777406107
30
0
10
9.8717811575429568
20
-18.552015181025546
30
0
10
9.7486279869641148
20
-18.471652976276815
30
0
10
9.6327055119648985
20
-18.317814848344881
30
0
10
9.5591594289322046
20
-18.127621292153602
30
0
10
9.5330413071639324
20
-17.921171284863632
30
0
10
9.5595631095936806
20
-17.720072468927054
30
0
10
9.6429589313641468
20
-17.545321474606933
30
0
10
9.78411241019508
20
-17.413472743523467
30
0
10
9.9756987615478483
20
-17.329764381378151
30
0
10
10.202399060816363
20
-17.287749042651569
30
0
10
10.428091901844406
20
-17.25237033855602
30
0
10
10.616185618364781
20
-17.185150052649593
30
0
10
10.753127499965345
20
-17.074573446087769
30
0
10
10.817047129579061
20
-16.948453684871705
30
0
10
10.839837395628784
20
-16.834298473618329
30
0
10
10.844046644369861
20
-16.749835061611577
30
0
10
10.843407480126139
20
-16.705516282497378
30
0
0
SPLINE
5
110
100
AcDbEntity
8
0
100
AcDbSpline
70
4
71
5
72
26
73
20
74
0
42
0.000000001
43
0.0000000001
44
0.0000000001
40
0
40
0
40
0
40
0
40
0
40
0
40
0.066666666666666666
40
0.13333333333333333
40
0.20000000000000001
40
0.26666666666666666
40
0.33333333333333331
40
0.39999999999999997
40
0.46666666666666662
40
0.53333333333333333
40
0.59999999999999998
40
0.66666666666666663
40
0.73333333333333328
40
0.79999999999999993
40
0.86666666666666659
40
0.93333333333333324
40
1
40
1
40
1
40
1
40
1
40
1
41
1
41
1
41
1
41
1
41
1
41
1
41
1
41
1
41
1
41
1
41
1
41
1
41
1
41
1
41
1
41
1
41
1
41
1
41
1
41
1
10
10.808373477264544
20
-14.276306185775926
30
0
10
10.807784765386195
20
-14.235485705039196
30
0
10
10.801596369637295
20
-14.128467654423755
30
0
10
10.777282647207961
20
-13.891739495780095
30
0
10
10.711715378428512
20
-13.475345771264433
30
0
10
10.555655595544016
20
-12.990126780908513
30
0
10
10.2992275100246
20
-12.654810705923738
30
0
10
9.9130573096726557
20
-12.280920797627896
30
0
10
9.3838485705308337
20
-11.825380779094342
30
0
10
8.7081956254553017
20
-11.292190784346603
30
0
10
7.8922992854283756
20
-10.729460797417014
30
0
10
6.9500165446501283
20
-10.193156961898207
30
0
10
5.9027299411400698
20
-9.7220223594063455
30
0
10
4.7764192673786114
20
-9.3354232239567363
30
0
10
3.5985433814320533
20
-9.0408399233664092
30
0
10
2.3953212781239399
20
-8.8371544000131728
30
0
10
1.4302980747995369
20
-8.7427208085768324
30
0
10
0.7122114418736375
20
-8.7077671485176804
30
0
10
0.23684424082946104
20
-8.6999998055398464
30
0
10
0
20
-8.6999998055398464
30
0
0
SPLINE
5
111
100
AcDbEntity
8
0
100
AcDbSpline
70
4
71
5
72
31
73
25
74
0
42
0.000000001
43
0.0000000001
44
0.0000000001
40
0
40
0
40
0
40
0
40
0
40
0
40
0.050000000000000003
40
0.10000000000000001
40
0.15000000000000002
40
0.20000000000000001
40
0.25
40
0.29999999999999999
40
0.34999999999999998
40
0.39999999999999997
40
0.44999999999999996
40
0.49999999999999994
40
0.54999999999999993
40
0.59999999999999998
40
0.65000000000000002
40
0.70000000000000007
40
0.75000000000000011
40
0.80000000000000016
40
0.8500000000000002
40
0.90000000000000024
40
0.95000000000000029
40
1
40
1
40
1
40
1
40
1
40
1
41
1
41
1
41
1
41
1
41
1
41
1
41
1
41
1
41
1
41
1
41
1
41
1
41
1
41
1
41
1
41
1
41
1
41
1
41
1
41
1
41
1
41
1
41
1
41
1
41
1
10
0
20
-7.4999998323619366
30
0
10
0.11539588537574888
20
-7.4999998323619366
30
0
10
0.3521249292976889
20
-7.504401210800177
30
0
10
0.72503031142202556
20
-7.5242074031301946
30
0
10
1.2578996857514044
20
-7.5770502251692733
30
0
10
1.9826699954348919
20
-7.6873704366575337
30
0
10
2.7634133651426356
20
-7.8422844974765109
30
0
10
3.5943019832864938
20
-8.0421881062711176
30
0
10
4.4651110558755738
20
-8.287441755077662
30
0
10
5.3599358988453858
20
-8.5782771963111575
30
0
10
6.2555777674877788
20
-8.9145788648750788
30
0
10
7.1243202164139152
20
-9.2928737069039098
30
0
10
7.9366725149429964
20
-9.7018229853892883
30
0
10
8.6644905451024616
20
-10.120566831366046
30
0
10
9.2831279655414587
20
-10.510118157604641
30
0
10
9.7761711136369343
20
-10.820404878103156
30
0
10
10.13412695892036
20
-10.957850640348571
30
0
10
10.379647312781268
20
-10.908493707148047
30
0
10
10.548622788897603
20
-10.709225057246973
30
0
10
10.670369203774879
20
-10.403823345263969
30
0
10
10.750383175373718
20
-10.009952944824558
30
0
10
10.774850138342547
20
-9.6253743278505368
30
0
10
10.765502292327746
20
-9.2951148651057398
30
0
10
10.746013024645613
20
-9.0556965231341273
30
0
10
10.732953772511063
20
-8.9311757845401374
30
0
0
SPLINE
5
112
100
AcDbEntity
8
0
100
AcDbSpline
70
4
71
5
72
16
73
10
74
0
42
0.000000001
43
0.0000000001
44
0.0000000001
40
0
40
0
40
0
40
0
40
0
40
0
40
0.20000000000000001
40
0.40000000000000002
40
0.60000000000000009
40
0.80000000000000004
40
1
40
1
40
1
40
1
40
1
40
1
41
1
41
1
41
1
41
1
41
1
41
1
41
1
41
1
41
1
41
1
10
9.7075864385984154
20
-6.4010735117924416
30
0
10
9.7652620759348139
20
-6.462096483072397
30
0
10
9.8783628677483932
20
-6.5955324813122154
30
0
10
10.041266194579809
20
-6.8298262274887103
30
0
10
10.244685130661427
20
-7.20135601609738
30
0
10
10.468439309287083
20
-7.7333419701775741
30
0
10
10.610072507138728
20
-8.1949833594491022
30
0
10
10.68540337216643
20
-8.5569974328920182
30
0
10
10.719751423482668
20
-8.8052906086316476
30
0
10
10.732953772511063
20
-8.9311757845401374
30
0
0
LINE
5
113
100
AcDbEntity
8
0
100
AcDbLine
10
0
20
2.5
30
0
11
0
21
20
31
0
0
LWPOLYLINE
5
114
100
AcDbEntity
8
0
100
AcDbPolyline
90
2
70
1
43
0.0
10
-10.699933250605756
20
-8.6163231625029866
10
-10.76597429441637
20
-9.2460284065772846
0
LWPOLYLINE
5
115
100
AcDbEntity
8
0
100
AcDbPolyline
90
2
70
1
43
0.0
10
-12.041350681878589
20
-8.546788669033587
10
-12.041350681878589
20
-8.8999998010694981
0
LWPOLYLINE
5
116
100
AcDbEntity
8
0
100
AcDbPolyline
90
2
70
1
43
0.0
10
-10.702820476157713
20
-6.0590287545539123
10
-11.049362871902508
20
-6.4237878926481287
0
LWPOLYLINE
5
117
100
AcDbEntity
8
0
100
AcDbPolyline
90
2
70
1
43
0.0
10
-9.5653811140443707
20
-6.2506149848150212
10
-9.8497917631524619
20
-6.5515320387698601
0
LWPOLYLINE
5
118
100
AcDbEntity
8
0
100
AcDbPolyline
90
2
70
1
43
0.0
10
-10.848117479168518
20
-17.032101208419249
10
-10.838697481083759
20
-16.378931356575514
0
LINE
5
119
100
AcDbEntity
8
0
100
AcDbLine
10
-11.327734367589242
20
-18.589731264506419
30
0
11
-10.099999774247408
21
-18.589731264506419
31
0
0
SPLINE
5
120
100
AcDbEntity
8
0
100
AcDbSpline
70
4
71
5
72
16
73
10
74
0
42
0.000000001
43
0.0000000001
44
0.0000000001
40
0
40
0
40
0
40
0
40
0
40
0
40
0.20000000000000001
40
0.40000000000000002
40
0.60000000000000009
40
0.80000000000000004
40
1
40
1
40
1
40
1
40
1
40
1
41
1
41
1
41
1
41
1
41
1
41
1
41
1
41
1
41
1
41
1
10
0
20
1.0432075623017392
30
0
10
-0.15141846423465616
20
1.0432075623017392
30
0
10
-0.46002708028180844
20
1.0355691593125878
30
0
10
-0.94023315097438065
20
1.0012120330639764
30
0
10
-1.6048360556626398
20
0.91165703653551855
30
0
10
-2.4237490946627558
20
0.72100344873486988
30
0
10
-3.0159606243696317
20
0.48547011616761682
30
0
10
-3.393562257499505
20
0.24420954224377578
30
0
10
-3.60990007883741
20
0.05050564346738623
30
0
10
-3.7092113322042239
20
-0.054569359460309164
30
0
0
LWPOLYLINE
5
121
100
AcDbEntity
8
0
100
AcDbPolyline
90
2
70
1
43
0.0
10
0.37833958550008401
20
1.0432075623017392
10
-0.37833958550008401
20
1.0432075623017392
0
LWPOLYLINE
5
122
100
AcDbEntity
8
0
100
AcDbPolyline
90
2
70
1
43
0.0
10
-3.4719917851536182
20
0.1964177518269028
10
-3.9464308792548302
20
-0.30555647074752113
0
LINE
5
123
100
AcDbEntity
8
0
100
AcDbLine
10
-12.041350681878589
20
-8.7233942350515434
30
0
11
-12.041350681878589
21
-17.647453802886247
31
0
0
SPLINE
5
124
100
AcDbEntity
8
0
100
AcDbSpline
70
4
71
5
72
26
73
20
74
0
42
0.000000001
43
0.0000000001
44
0.0000000001
40
0
40
0
40
0
40
0
40
0
40
0
40
0.066666666666666666
40
0.13333333333333333
40
0.20000000000000001
40
0.26666666666666666
40
0.33333333333333331
40
0.39999999999999997
40
0.46666666666666662
40
0.53333333333333333
40
0.59999999999999998
40
0.66666666666666663
40
0.73333333333333328
40
0.79999999999999993
40
0.86666666666666659
40
0.93333333333333324
40
1
40
1
40
1
40
1
40
1
40
1
41
1
41
1
41
1
41
1
41
1
41
1
41
1
41
1
41
1
41
1
41
1
41
1
41
1
41
1
41
1
41
1
41
1
41
1
41
1
41
1
10
-10.099999774247408
20
-18.589731264506419
30
0
10
-10.058825559717068
20
-18.589731264506419
30
0
10
-9.9799002038974098
20
-18.582873777406107
30
0
10
-9.8717811575429568
20
-18.552015181025546
30
0
10
-9.7486279869641148
20
-18.471652976276815
30
0
10
-9.6327055119648985
20
-18.317814848344881
30
0
10
-9.5591594289322046
20
-18.127621292153602
30
0
10
-9.5330413071639324
20
-17.921171284863632
30
0
10
-9.5595631095936806
20
-17.720072468927054
30
0
10
-9.6429589313641468
20
-17.545321474606933
30
0
10
-9.78411241019508
20
-17.413472743523467
30
0
10
-9.9756987615478483
20
-17.329764381378151
30
0
10
-10.202399060816363
20
-17.287749042651569
30
0
10
-10.428091901844406
20
-17.25237033855602
30
0
10
-10.616185618364781
20
-17.185150052649593
30
0
10
-10.753127499965345
20
-17.074573446087769
30
0
10
-10.817047129579061
20
-16.948453684871705
30
0
10
-10.839837395628784
20
-16.834298473618329
30
0
10
-10.844046644369861
20
-16.749835061611577
30
0
10
-10.843407480126139
20
-16.705516282497378
30
0
0
LWPOLYLINE
5
125
100
AcDbEntity
8
0
100
AcDbPolyline
90
2
70
1
43
0.0
10
-10.399999767541882
20
-18.589731264506419
10
-9.7999997809529287
20
-18.589731264506419
0
SPLINE
5
126
100
AcDbEntity
8
0
100
AcDbSpline
70
4
71
5
72
16
73
10
74
0
42
0.000000001
43
0.0000000001
44
0.0000000001
40
0
40
0
40
0
40
0
40
0
40
0
40
0.20000000000000001
40
0.40000000000000002
40
0.60000000000000009
40
0.80000000000000004
40
1
40
1
40
1
40
1
40
1
40
1
41
1
41
1
41
1
41
1
41
1
41
1
41
1
41
1
41
1
41
1
10
-10.876091674030111
20
-6.2414083236010196
30
0
10
-10.945774997038594
20
-6.3147546995487218
30
0
10
-11.083163502464096
20
-6.4747999126007176
30
0
10
-11.28331265145593
20
-6.7548835765367619
30
0
10
-11.536030849085645
20
-7.1925561854012523
30
0
10
-11.808512258483614
20
-7.7771901757825956
30
0
10
-11.96442098422181
20
-8.2137421897749459
30
0
10
-12.027356529842692
20
-8.4922375704849582
30
0
10
-12.041350681878589
20
-8.6508544617317433
30
0
10
-12.041350681878589
20
-8.7233942350515434
30
0
0
SPLINE
5
127
100
AcDbEntity
8
0
100
AcDbSpline
70
4
71
5
72
16
73
10
74
0
42
0.000000001
43
0.0000000001
44
0.0000000001
40
0
40
0
40
0
40
0
40
0
40
0
40
0.20000000000000001
40
0.40000000000000002
40
0.60000000000000009
40
0.80000000000000004
40
1
40
1
40
1
40
1
40
1
40
1
41
1
41
1
41
1
41
1
41
1
41
1
41
1
41
1
41
1
41
1
10
-12.041350681878589
20
-17.647453802886247
30
0
10
-12.041350681878589
20
-17.714667279277268
30
0
10
-12.036256396297746
20
-17.84347624108457
30
0
10
-12.013342779267964
20
-18.019848019133718
30
0
10
-11.953794556655932
20
-18.223504033118651
30
0
10
-11.828323839165076
20
-18.425643682565866
30
0
10
-11.675154755483151
20
-18.535921526961666
30
0
10
-11.519546935633194
20
-18.579943082711718
30
0
10
-11.39512253297009
20
-18.589731264506419
30
0
10
-11.327734367589242
20
-18.589731264506419
30
0
0
LWPOLYLINE
5
128
100
AcDbEntity
8
0
100
AcDbPolyline
90
2
70
1
43
0.0
10
-12.041350681878589
20
-17.499999608844519
10
-12.041350681878587
20
-17.794907996927975
0
LWPOLYLINE
5
129
100
AcDbEntity
8
0
100
AcDbPolyline
90
2
70
1
43
0.0
10
-11.463636794250558
20
-18.589731264506419
10
-11.19183194092793
20
-18.589731264506419
0
LINE
5
130
100
AcDbEntity
8
0
100
AcDbLine
10
-10.843407480126139
20
-16.705516282497378
30
0
11
-10.808373477264544
21
-14.276306185775926
31
0
0
SPLINE
5
131
100
AcDbEntity
8
0
100
AcDbSpline
70
4
71
5
72
26
73
20
74
0
42
0.000000001
43
0.0000000001
44
0.0000000001
40
0
40
0
40
0
40
0
40
0
40
0
40
0.066666666666666666
40
0.13333333333333333
40
0.20000000000000001
40
0.26666666666666666
40
0.33333333333333331
40
0.39999999999999997
40
0.46666666666666662
40
0.53333333333333333
40
0.59999999999999998
40
0.66666666666666663
40
0.73333333333333328
40
0.79999999999999993
40
0.86666666666666659
40
0.93333333333333324
40
1
40
1
40
1
40
1
40
1
40
1
41
1
41
1
41
1
41
1
41
1
41
1
41
1
41
1
41
1
41
1
41
1
41
1
41
1
41
1
41
1
41
1
41
1
41
1
41
1
41
1
10
-10.808373477264544
20
-14.276306185775926
30
0
10
-10.807784765386195
20
-14.235485705039196
30
0
10
-10.801596369637295
20
-14.128467654423755
30
0
10
-10.777282647207961
20
-13.891739495780095
30
0
10
-10.711715378428512
20
-13.475345771264433
30
0
10
-10.555655595544016
20
-12.990126780908513
30
0
10
-10.2992275100246
20
-12.654810705923738
30
0
10
-9.9130573096726557
20
-12.280920797627896
30
0
10
-9.3838485705308337
20
-11.825380779094342
30
0
10
-8.7081956254553017
20
-11.292190784346603
30
0
10
-7.8922992854283756
20
-10.729460797417014
30
0
10
-6.9500165446501283
20
-10.193156961898207
30
0
10
-5.9027299411400698
20
-9.7220223594063455
30
0
10
-4.7764192673786114
20
-9.3354232239567363
30
0
10
-3.5985433814320533
20
-9.0408399233664092
30
0
10
-2.3953212781239399
20
-8.8371544000131728
30
0
10
-1.4302980747995369
20
-8.7427208085768324
30
0
10
-0.7122114418736375
20
-8.7077671485176804
30
0
10
-0.23684424082946104
20
-8.6999998055398464
30
0
10
0
20
-8.6999998055398464
30
0
0
LWPOLYLINE
5
132
100
AcDbEntity
8
0
100
AcDbPolyline
90
2
70
1
43
0.0
10
-1.3999999687075615
20
-8.6999998055398464
10
1.3999999687075615
20
-8.6999998055398464
0
LINE
5
133
100
AcDbEntity
8
0
100
AcDbLine
10
-2.5412742969574538
20
2.5315465585848704
30
0
11
-10.876091674030111
21
-6.2414083236010196
31
0
0
SPLINE
5
134
100
AcDbEntity
8
0
100
AcDbSpline
70
4
71
5
72
31
73
25
74
0
42
0.000000001
43
0.0000000001
44
0.0000000001
40
0
40
0
40
0
40
0
40
0
40
0
40
0.050000000000000003
40
0.10000000000000001
40
0.15000000000000002
40
0.20000000000000001
40
0.25
40
0.29999999999999999
40
0.34999999999999998
40
0.39999999999999997
40
0.44999999999999996
40
0.49999999999999994
40
0.54999999999999993
40
0.59999999999999998
40
0.65000000000000002
40
0.70000000000000007
40
0.75000000000000011
40
0.80000000000000016
40
0.8500000000000002
40
0.90000000000000024
40
0.95000000000000029
40
1
40
1
40
1
40
1
40
1
40
1
41
1
41
1
41
1
41
1
41
1
41
1
41
1
41
1
41
1
41
1
41
1
41
1
41
1
41
1
41
1
41
1
41
1
41
1
41
1
41
1
41
1
41
1
41
1
41
1
41
1
10
0
20
-7.4999998323619366
30
0
10
-0.11539588537574888
20
-7.4999998323619366
30
0
10
-0.3521249292976889
20
-7.504401210800177
30
0
10
-0.72503031142202556
20
-7.5242074031301946
30
0
10
-1.2578996857514044
20
-7.5770502251692733
30
0
10
-1.9826699954348919
20
-7.6873704366575337
30
0
10
-2.7634133651426356
20
-7.8422844974765109
30
0
10
-3.5943019832864938
20
-8.0421881062711176
30
0
10
-4.4651110558755738
20
-8.287441755077662
30
0
10
-5.3599358988453858
20
-8.5782771963111575
30
0
10
-6.2555777674877788
20
-8.9145788648750788
30
0
10
-7.1243202164139152
20
-9.2928737069039098
30
0
10
-7.9366725149429964
20
-9.7018229853892883
30
0
10
-8.6644905451024616
20
-10.120566831366046
30
0
10
-9.2831279655414587
20
-10.510118157604641
30
0
10
-9.7761711136369343
20
-10.820404878103156
30
0
10
-10.13412695892036
20
-10.957850640348571
30
0
10
-10.379647312781268
20
-10.908493707148047
30
0
10
-10.548622788897603
20
-10.709225057246973
30
0
10
-10.670369203774879
20
-10.403823345263969
30
0
10
-10.750383175373718
20
-10.009952944824558
30
0
10
-10.774850138342547
20
-9.6253743278505368
30
0
10
-10.765502292327746
20
-9.2951148651057398
30
0
10
-10.746013024645613
20
-9.0556965231341273
30
0
10
-10.732953772511063
20
-8.9311757845401374
30
0
0
LWPOLYLINE
5
135
100
AcDbEntity
8
0
100
AcDbPolyline
90
2
70
1
43
0.0
10
0.96352890375889144
20
-7.4999998323619375
10
-0.96352890375889144
20
-7.4999998323619366
0
LINE
5
136
100
AcDbEntity
8
0
100
AcDbLine
10
-3.7092113322042239
20
-0.054569359460309164
30
0
11
-9.7075864385984154
21
-6.4010735117924416
31
0
0
SPLINE
5
137
100
AcDbEntity
8
0
100
AcDbSpline
70
4
71
5
72
16
73
10
74
0
42
0.000000001
43
0.0000000001
44
0.0000000001
40
0
40
0
40
0
40
0
40
0
40
0
40
0.20000000000000001
40
0.40000000000000002
40
0.60000000000000009
40
0.80000000000000004
40
1
40
1
40
1
40
1
40
1
40
1
41
1
41
1
41
1
41
1
41
1
41
1
41
1
41
1
41
1
41
1
10
-9.7075864385984154
20
-6.4010735117924416
30
0
10
-9.7652620759348139
20
-6.462096483072397
30
0
10
-9.8783628677483932
20
-6.5955324813122154
30
0
10
-10.041266194579809
20
-6.8298262274887103
30
0
10
-10.244685130661427
20
-7.20135601609738
30
0
10
-10.468439309287083
20
-7.7333419701775741
30
0
10
-10.610072507138728
20
-8.1949833594491022
30
0
10
-10.68540337216643
20
-8.5569974328920182
30
0
10
-10.719751423482668
20
-8.8052906086316476
30
0
10
-10.732953772511063
20
-8.9311757845401374
30
0
0
LWPOLYLINE
5
138
100
AcDbEntity
8
0
100
AcDbPolyline
90
2
70
1
43
0.0
10
0.26328904222062521
20
3.6999999172985554
10
-0.26328904222062532
20
3.6999999172985558
0
LWPOLYLINE
5
139
100
AcDbEntity
8
0
100
AcDbPolyline
90
2
70
1
43
0.0
10
-2.3370257721018723
20
2.7465318440741577
10
-2.7455228218130352
20
2.3165612730955831
0
SPLINE
5
140
100
AcDbEntity
8
0
100
AcDbSpline
70
4
71
5
72
16
73
10
74
0
42
0.000000001
43
0.0000000001
44
0.0000000001
40
0
40
0
40
0
40
0
40
0
40
0
40
0.20000000000000001
40
0.40000000000000002
40
0.60000000000000009
40
0.80000000000000004
40
1
40
1
40
1
40
1
40
1
40
1
41
1
41
1
41
1
41
1
41
1
41
1
41
1
41
1
41
1
41
1
10
0
20
3.6999999172985554
30
0
10
-0.11699611545349697
20
3.6999999172985554
30
0
10
-0.3469670970850115
20
3.6894469835109458
30
0
10
-0.67987023886242792
20
3.6419843226836885
30
0
10
-1.1025832086364926
20
3.5216183693872183
30
0
10
-1.604835740472019
20
3.2898337875066992
30
0
10
-1.989889268135979
20
3.0380225897163764
30
0
10
-2.2694155279626593
20
2.804255063357131
30
0
10
-2.4513853954738742
20
2.6261606624636125
30
0
10
-2.5412742969574538
20
2.5315465585848704
30
0
0
ENDSEC
0
SECTION
2
OBJECTS
0
DICTIONARY
5
C
100
AcDbDictionary
3
ACAD_GROUP
350
D
3
ACAD_MLINESTYLE
350
17
0
DICTIONARY
5
D
100
AcDbDictionary
0
DICTIONARY
5
1A
330
C
100
AcDbDictionary
0
DICTIONARY
5
17
100
AcDbDictionary
0
ENDSEC
0
EOF
