0
SECTION
2
HEADER
9
$INSUNITS
70
4
9
$ACADVER
1
AC1014
9
$HANDSEED
5
FFFF
0
ENDSEC
0
SECTION
2
TABLES
0
TABLE
2
VPORT
5
8
100
AcDbSymbolTable
0
ENDTAB
0
TABLE
2
LTYPE
5
5
100
AcDbSymbolTable
0
LTYPE
5
14
100
AcDbSymbolTableRecord
100
AcDbLinetypeTableRecord
2
BYBLOCK
70
0
0
LTYPE
5
15
100
AcDbSymbolTableRecord
100
AcDbLinetypeTableRecord
2
BYLAYER
70
0
0
ENDTAB
0
TABLE
2
LAYER
5
2
100
AcDbSymbolTable
70
2
0
LAYER
5
50
100
AcDbSymbolTableRecord
100
AcDbLayerTableRecord
2
0
70
0
6
CONTINUOUS
0
ENDTAB
0
TABLE
2
STYLE
5
3
100
AcDbSymbolTable
70
1
0
STYLE
5
11
100
AcDbSymbolTableRecord
100
AcDbTextStyleTableRecord
2
STANDARD
70
0
0
ENDTAB
0
TABLE
2
VIEW
5
6
100
AcDbSymbolTable
70
0
0
ENDTAB
0
TABLE
2
UCS
5
7
100
AcDbSymbolTable
70
0
0
ENDTAB
0
TABLE
2
APPID
5
9
100
AcDbSymbolTable
70
2
0
APPID
5
12
100
AcDbSymbolTableRecord
100
AcDbRegAppTableRecord
2
ACAD
70
0
0
ENDTAB
0
TABLE
2
DIMSTYLE
5
A
100
AcDbSymbolTable
70
1
0
ENDTAB
0
TABLE
2
BLOCK_RECORD
5
1
100
AcDbSymbolTable
70
1
0
BLOCK_RECORD
5
1F
100
AcDbSymbolTableRecord
100
AcDbBlockTableRecord
2
*MODEL_SPACE
0
BLOCK_RECORD
5
1B
100
AcDbSymbolTableRecord
100
AcDbBlockTableRecord
2
*PAPER_SPACE
0
ENDTAB
0
ENDSEC
0
SECTION
2
BLOCKS
0
BLOCK
5
20
100
AcDbEntity
100
AcDbBlockBegin
2
*MODEL_SPACE
0
ENDBLK
5
21
100
AcDbEntity
100
AcDbBlockEnd
0
BLOCK
5
1C
100
AcDbEntity
100
AcDbBlockBegin
2
*PAPER_SPACE
0
ENDBLK
5
1D
100
AcDbEntity
100
AcDbBlockEnd
0
ENDSEC
0
SECTION
2
ENTITIES
0
SPLINE
5
100
100
AcDbEntity
8
0
100
AcDbSpline
70
4
71
5
72
21
73
15
74
0
42
0.000000001
43
0.0000000001
44
0.0000000001
40
0
40
0
40
0
40
0
40
0
40
0
40
0.10000000000000001
40
0.20000000000000001
40
0.30000000000000004
40
0.40000000000000002
40
0.5
40
0.59999999999999998
40
0.69999999999999996
40
0.79999999999999982
40
0.8999999999999998
40
1
40
1
40
1
40
1
40
1
40
1
41
1
41
1
41
1
41
1
41
1
41
1
41
1
41
1
41
1
41
1
41
1
41
1
41
1
41
1
41
1
10
0
20
3.6694286098391982
30
0
10
-0.1389051435307786
20
3.6694286098391982
30
0
10
-0.41209283566074317
20
3.6608297955219173
30
0
10
-0.80800717305559155
20
3.6221364590622689
30
0
10
-1.3080931744600324
20
3.520198698042293
30
0
10
-1.8859360802016081
20
3.3149838597541166
30
0
10
-2.4148906953596376
20
3.0390548904438219
30
0
10
-2.8933151399722954
20
2.6994540900450383
30
0
10
-3.3207639112965426
20
2.3030313767785553
30
0
10
-3.7000773975946846
20
1.8571865044707407
30
0
10
-4.0353690765815919
20
1.3685258478886586
30
0
10
-4.2714586195370288
20
0.94729716275339548
30
0
10
-4.4316314349078469
20
0.61563761908116321
30
0
10
-4.5310270054555533
20
0.38765054434513779
30
0
10
-4.578878169193934
20
0.27193678287890544
30
0
0
SPLINE
5
101
100
AcDbEntity
8
0
100
AcDbSpline
70
4
71
5
72
26
73
20
74
0
42
0.000000001
43
0.0000000001
44
0.0000000001
40
0
40
0
40
0
40
0
40
0
40
0
40
0.066666666666666666
40
0.13333333333333333
40
0.20000000000000001
40
0.26666666666666666
40
0.33333333333333331
40
0.40000000000000002
40
0.46666666666666662
40
0.53333333333333333
40
0.59999999999999998
40
0.66666666666666663
40
0.73333333333333306
40
0.79999999999999982
40
0.8666666666666667
40
0.93333333333333324
40
1
40
1
40
1
40
1
40
1
40
1
41
1
41
1
41
1
41
1
41
1
41
1
41
1
41
1
41
1
41
1
41
1
41
1
41
1
41
1
41
1
41
1
41
1
41
1
41
1
41
1
10
8.090934069387183
20
-20.883658899409507
30
0
10
8.090934069387183
20
-20.852215016464903
30
0
10
8.0908833110084295
20
-20.787849291333472
30
0
10
8.0906627747275444
20
-20.686868424685272
30
0
10
8.0783708423309228
20
-20.541542438250104
30
0
10
7.9875765752308237
20
-20.334258170021204
30
0
10
7.7693578350308723
20
-20.095626634807061
30
0
10
7.4098030258081495
20
-19.828424752318444
30
0
10
6.9243503412472007
20
-19.541999606004616
30
0
10
6.3439941743837558
20
-19.249390216198741
30
0
10
5.7040068670587898
20
-18.964931752125878
30
0
10
5.0327819962536662
20
-18.701874696946749
30
0
10
4.3392266671101511
20
-18.469651110935203
30
0
10
3.6161821710978028
20
-18.274428136550206
30
0
10
2.8462604461741678
20
-18.1200790216032
30
0
10
2.0065798323120987
20
-18.008814798592205
30
0
10
1.2604389571645715
20
-17.955173489572182
30
0
10
0.65067602897662991
20
-17.935044116960214
30
0
10
0.22078856924132431
20
-17.930570907363183
30
0
10
0
20
-17.930570907363183
30
0
0
LINE
5
102
100
AcDbEntity
8
0
100
AcDbLine
10
9.4078790209520733
20
-16.312795005374991
30
0
11
9.4078790209520733
21
-25.730570733019597
31
0
0
LINE
5
103
100
AcDbEntity
8
0
100
AcDbLine
10
3.8605676181119879
20
-1.1293208595113557
30
0
11
8.0999998189508915
21
-15.99462604442718
31
0
0
LINE
5
104
100
AcDbEntity
8
0
100
AcDbLine
10
4.578878169193934
20
0.27193678287890544
30
0
11
9.4078790209520733
21
-16.312795005374991
31
0
0
SPLINE
5
105
100
AcDbEntity
8
0
100
AcDbSpline
70
4
71
5
72
26
73
20
74
0
42
0.000000001
43
0.0000000001
44
0.0000000001
40
0
40
0
40
0
40
0
40
0
40
0
40
0.066666666666666666
40
0.13333333333333333
40
0.20000000000000001
40
0.26666666666666666
40
0.33333333333333331
40
0.40000000000000002
40
0.46666666666666662
40
0.53333333333333333
40
0.59999999999999998
40
0.66666666666666663
40
0.73333333333333306
40
0.79999999999999982
40
0.8666666666666667
40
0.93333333333333324
40
1
40
1
40
1
40
1
40
1
40
1
41
1
41
1
41
1
41
1
41
1
41
1
41
1
41
1
41
1
41
1
41
1
41
1
41
1
41
1
41
1
41
1
41
1
41
1
41
1
41
1
10
0
20
-16.830570931950096
30
0
10
0.13659016576454666
20
-16.830570931950096
30
0
10
0.3970984000668793
20
-16.831745404409453
30
0
10
0.74980388647099705
20
-16.837027891776192
30
0
10
1.1655707674801037
20
-16.854383078987549
30
0
10
1.7019060437027322
20
-16.910406126452688
30
0
10
2.3732812224898647
20
-17.020363193324723
30
0
10
3.2466002613659128
20
-17.198407234442296
30
0
10
4.3179200827484365
20
-17.44812490971189
30
0
10
5.3880511732735492
20
-17.749976378087162
30
0
10
6.1856646781959519
20
-18.065234571472722
30
0
10
6.7322959208319224
20
-18.362497056746502
30
0
10
7.1203531585152779
20
-18.608259362839188
30
0
10
7.4640249363006292
20
-18.760387093006795
30
0
10
7.8263406476504382
20
-18.779764596745849
30
0
10
8.038814273309713
20
-18.584858044531718
30
0
10
8.0883858192435696
20
-18.335585050296334
30
0
10
8.0979088790117935
20
-18.165769334152266
30
0
10
8.0999998189508915
20
-18.072338411907651
30
0
10
8.0999998189508915
20
-18.030570905128002
30
0
0
LINE
5
106
100
AcDbEntity
8
0
100
AcDbLine
10
6.7383056432667718
20
-26.142905591481835
30
0
11
6.7383056432667718
21
-25.43057073972512
31
0
0
SPLINE
5
107
100
AcDbEntity
8
0
100
AcDbSpline
70
4
71
5
72
26
73
20
74
0
42
0.000000001
43
0.0000000001
44
0.0000000001
40
0
40
0
40
0
40
0
40
0
40
0
40
0.066666666666666666
40
0.13333333333333333
40
0.20000000000000001
40
0.26666666666666666
40
0.33333333333333331
40
0.40000000000000002
40
0.46666666666666662
40
0.53333333333333333
40
0.59999999999999998
40
0.66666666666666663
40
0.73333333333333306
40
0.79999999999999982
40
0.8666666666666667
40
0.93333333333333324
40
1
40
1
40
1
40
1
40
1
40
1
41
1
41
1
41
1
41
1
41
1
41
1
41
1
41
1
41
1
41
1
41
1
41
1
41
1
41
1
41
1
41
1
41
1
41
1
41
1
41
1
10
0
20
1.0694286679537268
30
0
10
-0.07300874635434465
20
1.0694286679537268
30
0
10
-0.21848232216591154
20
1.0690340402017708
30
0
10
-0.43506070962667898
20
1.0672584322299785
30
0
10
-0.72104198330447145
20
1.0611237630881445
30
0
10
-1.0760149896621682
20
1.039287520392091
30
0
10
-1.4302856923638696
20
0.99344986737886221
30
0
10
-1.7838690603909368
20
0.91443614714665689
30
0
10
-2.1338153098330097
20
0.79603950168344484
30
0
10
-2.4722292997902247
20
0.63838656031465435
30
0
10
-2.7876627335166932
20
0.4472274223124803
30
0
10
-3.0680229609122911
20
0.23139551322579124
30
0
10
-3.3032275533761712
20
0.00099295961066933613
30
0
10
-3.487677727537366
20
-0.23442324888168969
30
0
10
-3.6241301527147223
20
-0.46796447076406839
30
0
10
-3.723457063677309
20
-0.69606452181580103
30
0
10
-3.7838672267371321
20
-0.872959304918274
30
0
10
-3.8237139561817131
20
-1.0023828230283356
30
0
10
-3.8485679725537048
20
-1.0872448491202971
30
0
10
-3.8605676181119879
20
-1.1293208595113557
30
0
0
LINE
5
108
100
AcDbEntity
8
0
100
AcDbLine
10
-3.8605676181119879
20
-1.1293208595113557
30
0
11
-8.0999998189508915
21
-15.99462604442718
31
0
0
SPLINE
5
109
100
AcDbEntity
8
0
100
AcDbSpline
70
4
71
5
72
26
73
20
74
0
42
0.000000001
43
0.0000000001
44
0.0000000001
40
0
40
0
40
0
40
0
40
0
40
0
40
0.066666666666666666
40
0.13333333333333333
40
0.20000000000000001
40
0.26666666666666666
40
0.33333333333333331
40
0.40000000000000002
40
0.46666666666666662
40
0.53333333333333333
40
0.59999999999999998
40
0.66666666666666663
40
0.73333333333333306
40
0.79999999999999982
40
0.8666666666666667
40
0.93333333333333324
40
1
40
1
40
1
40
1
40
1
40
1
41
1
41
1
41
1
41
1
41
1
41
1
41
1
41
1
41
1
41
1
41
1
41
1
41
1
41
1
41
1
41
1
41
1
41
1
41
1
41
1
10
0
20
1.0694286679537268
30
0
10
0.07300874635434465
20
1.0694286679537268
30
0
10
0.21848232216591154
20
1.0690340402017708
30
0
10
0.43506070962667898
20
1.0672584322299785
30
0
10
0.72104198330447145
20
1.0611237630881445
30
0
10
1.0760149896621682
20
1.039287520392091
30
0
10
1.4302856923638696
20
0.99344986737886221
30
0
10
1.7838690603909368
20
0.91443614714665689
30
0
10
2.1338153098330097
20
0.79603950168344484
30
0
10
2.4722292997902247
20
0.63838656031465435
30
0
10
2.7876627335166932
20
0.4472274223124803
30
0
10
3.0680229609122911
20
0.23139551322579124
30
0
10
3.3032275533761712
20
0.00099295961066933613
30
0
10
3.487677727537366
20
-0.23442324888168969
30
0
10
3.6241301527147223
20
-0.46796447076406839
30
0
10
3.723457063677309
20
-0.69606452181580103
30
0
10
3.7838672267371321
20
-0.872959304918274
30
0
10
3.8237139561817131
20
-1.0023828230283356
30
0
10
3.8485679725537048
20
-1.0872448491202971
30
0
10
3.8605676181119879
20
-1.1293208595113557
30
0
0
LINE
5
110
100
AcDbEntity
8
0
100
AcDbLine
10
8.090934069387183
20
-24.519915209165681
30
0
11
8.090934069387183
21
-20.883658899409507
31
0
0
SPLINE
5
111
100
AcDbEntity
8
0
100
AcDbSpline
70
4
71
5
72
26
73
20
74
0
42
0.000000001
43
0.0000000001
44
0.0000000001
40
0
40
0
40
0
40
0
40
0
40
0
40
0.066666666666666666
40
0.13333333333333333
40
0.20000000000000001
40
0.26666666666666666
40
0.33333333333333331
40
0.40000000000000002
40
0.46666666666666662
40
0.53333333333333333
40
0.59999999999999998
40
0.66666666666666663
40
0.73333333333333306
40
0.79999999999999982
40
0.8666666666666667
40
0.93333333333333324
40
1
40
1
40
1
40
1
40
1
40
1
41
1
41
1
41
1
41
1
41
1
41
1
41
1
41
1
41
1
41
1
41
1
41
1
41
1
41
1
41
1
41
1
41
1
41
1
41
1
41
1
10
-8.090934069387183
20
-20.883658899409507
30
0
10
-8.090934069387183
20
-20.852215016464903
30
0
10
-8.0908833110084295
20
-20.787849291333472
30
0
10
-8.0906627747275444
20
-20.686868424685272
30
0
10
-8.0783708423309228
20
-20.541542438250104
30
0
10
-7.9875765752308237
20
-20.334258170021204
30
0
10
-7.7693578350308723
20
-20.095626634807061
30
0
10
-7.4098030258081495
20
-19.828424752318444
30
0
10
-6.9243503412472007
20
-19.541999606004616
30
0
10
-6.3439941743837558
20
-19.249390216198741
30
0
10
-5.7040068670587898
20
-18.964931752125878
30
0
10
-5.0327819962536662
20
-18.701874696946749
30
0
10
-4.3392266671101511
20
-18.469651110935203
30
0
10
-3.6161821710978028
20
-18.274428136550206
30
0
10
-2.8462604461741678
20
-18.1200790216032
30
0
10
-2.0065798323120987
20
-18.008814798592205
30
0
10
-1.2604389571645715
20
-17.955173489572182
30
0
10
-0.65067602897662991
20
-17.935044116960214
30
0
10
-0.22078856924132431
20
-17.930570907363183
30
0
10
0
20
-17.930570907363183
30
0
0
LINE
5
112
100
AcDbEntity
8
0
100
AcDbLine
10
-8.090934069387183
20
-24.519915209165681
30
0
11
-8.090934069387183
21
-20.883658899409507
31
0
0
SPLINE
5
113
100
AcDbEntity
8
0
100
AcDbSpline
70
4
71
5
72
36
73
30
74
0
42
0.000000001
43
0.0000000001
44
0.0000000001
40
0
40
0
40
0
40
0
40
0
40
0
40
0.040000000000000001
40
0.080000000000000002
40
0.12
40
0.16
40
0.20000000000000001
40
0.23999999999999999
40
0.28000000000000003
40
0.32000000000000001
40
0.35999999999999999
40
0.40000000000000002
40
0.44
40
0.47999999999999993
40
0.51999999999999991
40
0.56000000000000005
40
0.59999999999999998
40
0.64000000000000001
40
0.68000000000000005
40
0.72000000000000008
40
0.76000000000000023
40
0.80000000000000016
40
0.8400000000000003
40
0.88000000000000023
40
0.92000000000000015
40
0.96000000000000041
40
1
40
1
40
1
40
1
40
1
40
1
41
1
41
1
41
1
41
1
41
1
41
1
41
1
41
1
41
1
41
1
41
1
41
1
41
1
41
1
41
1
41
1
41
1
41
1
41
1
41
1
41
1
41
1
41
1
41
1
41
1
41
1
41
1
41
1
41
1
41
1
10
6.7383056432667718
20
-25.43057073972512
30
0
10
6.7389779425942731
20
-25.416487120101536
30
0
10
6.7415272468109624
20
-25.388695440953867
30
0
10
6.7489653287966256
20
-25.348134594528958
30
0
10
6.7661298056195287
20
-25.296312756239196
30
0
10
6.7996129314597731
20
-25.235416163968747
30
0
10
6.8447757237634566
20
-25.178687827190529
30
0
10
6.9007734507634666
20
-25.126656368391806
30
0
10
6.9660446143580979
20
-25.080168242248469
30
0
10
7.0381161138161339
20
-25.040444923439409
30
0
10
7.114122892679303
20
-25.008697118874366
30
0
10
7.191283777396893
20
-24.985762139122116
30
0
10
7.2674053078221945
20
-24.97171413556228
30
0
10
7.3413452552220546
20
-24.965502656969527
30
0
10
7.4135900050763004
20
-24.96448941023079
30
0
10
7.4855968634463164
20
-24.965048649791086
30
0
10
7.5590297601104419
20
-24.963259395890507
30
0
10
7.635010861847733
20
-24.955578113877273
30
0
10
7.7134224396128221
20
-24.939477922665311
30
0
10
7.7920147844933085
20
-24.91422976978658
30
0
10
7.8671271989237423
20
-24.880507330701668
30
0
10
7.9346494825158338
20
-24.839813328246059
30
0
10
7.9909373455106545
20
-24.793964819694398
30
0
10
8.0336517279210167
20
-24.744602030763474
30
0
10
8.0629049538961244
20
-24.69258719231485
30
0
10
8.0806760647339964
20
-24.63809108777232
30
0
10
8.0878542006055518
20
-24.592348170827307
30
0
10
8.0903741300002867
20
-24.556682860349479
30
0
10
8.090934069387183
20
-24.532276085187483
30
0
10
8.090934069387183
20
-24.519915209165681
30
0
0
SPLINE
5
114
100
AcDbEntity
8
0
100
AcDbSpline
70
4
71
5
72
21
73
15
74
0
42
0.000000001
43
0.0000000001
44
0.0000000001
40
0
40
0
40
0
40
0
40
0
40
0
40
0.10000000000000001
40
0.20000000000000001
40
0.30000000000000004
40
0.40000000000000002
40
0.5
40
0.59999999999999998
40
0.69999999999999996
40
0.79999999999999982
40
0.8999999999999998
40
1
40
1
40
1
40
1
40
1
40
1
41
1
41
1
41
1
41
1
41
1
41
1
41
1
41
1
41
1
41
1
41
1
41
1
41
1
41
1
41
1
10
7.2999998368322867
20
-26.530570715138204
30
0
10
7.2731178652531714
20
-26.531775900216729
30
0
10
7.2223183744692765
20
-26.532860125875814
30
0
10
7.1550119371739571
20
-26.530508268989852
30
0
10
7.0817971289464063
20
-26.519961498757525
30
0
10
7.0112234176332144
20
-26.49717042924064
30
0
10
6.9538603258312648
20
-26.467775848715142
30
0
10
6.9028778715368935
20
-26.434035723505424
30
0
10
6.854177911041166
20
-26.396550363442486
30
0
10
6.8085029527214935
20
-26.353202713375879
30
0
10
6.7697578473654731
20
-26.300153594273318
30
0
10
6.7484869095336659
20
-26.246411612122937
30
0
10
6.740156879629601
20
-26.198018955789159
30
0
10
6.7383056432667718
20
-26.161916823126674
30
0
10
6.7383056432667718
20
-26.142905591481835
30
0
0
SPLINE
5
115
100
AcDbEntity
8
0
100
AcDbSpline
70
4
71
5
72
21
73
15
74
0
42
0.000000001
43
0.0000000001
44
0.0000000001
40
0
40
0
40
0
40
0
40
0
40
0
40
0.10000000000000001
40
0.20000000000000001
40
0.30000000000000004
40
0.40000000000000002
40
0.5
40
0.59999999999999998
40
0.69999999999999996
40
0.79999999999999982
40
0.8999999999999998
40
1
40
1
40
1
40
1
40
1
40
1
41
1
41
1
41
1
41
1
41
1
41
1
41
1
41
1
41
1
41
1
41
1
41
1
41
1
41
1
41
1
10
-9.4078790209520733
20
-25.730570733019597
30
0
10
-9.4078790209520733
20
-25.754907518919843
30
0
10
-9.4059828345233001
20
-25.802822489096577
30
0
10
-9.3974503112008989
20
-25.872419216503069
30
0
10
-9.3750312239441147
20
-25.960663292099611
30
0
10
-9.3300995884442202
20
-26.063173662330954
30
0
10
-9.2696600417793622
20
-26.157350293976613
30
0
10
-9.1944773751448601
20
-26.242280542439815
30
0
10
-9.1042885236681954
20
-26.316732636755063
30
0
10
-8.9975961488398841
20
-26.379280183057936
30
0
10
-8.8720081759737361
20
-26.428282208151963
30
0
10
-8.7541662336694834
20
-26.455278145419587
30
0
10
-8.6548667633003049
20
-26.46799250765433
30
0
10
-8.5836418862840134
20
-26.473021876519027
30
0
10
-8.5467730735356984
20
-26.474674796315362
30
0
0
LINE
5
116
100
AcDbEntity
8
0
100
AcDbLine
10
-6.7383056432667718
20
-26.142905591481835
30
0
11
-6.7383056432667718
21
-25.43057073972512
31
0
0
LINE
5
117
100
AcDbEntity
8
0
100
AcDbLine
10
7.2999998368322867
20
-26.530570715138204
30
0
11
8.5467730735356984
21
-26.474674796315362
31
0
0
SPLINE
5
118
100
AcDbEntity
8
0
100
AcDbSpline
70
4
71
5
72
21
73
15
74
0
42
0.000000001
43
0.0000000001
44
0.0000000001
40
0
40
0
40
0
40
0
40
0
40
0
40
0.10000000000000001
40
0.20000000000000001
40
0.30000000000000004
40
0.40000000000000002
40
0.5
40
0.59999999999999998
40
0.69999999999999996
40
0.79999999999999982
40
0.8999999999999998
40
1
40
1
40
1
40
1
40
1
40
1
41
1
41
1
41
1
41
1
41
1
41
1
41
1
41
1
41
1
41
1
41
1
41
1
41
1
41
1
41
1
10
0
20
3.6694286098391982
30
0
10
0.1389051435307786
20
3.6694286098391982
30
0
10
0.41209283566074317
20
3.6608297955219173
30
0
10
0.80800717305559155
20
3.6221364590622689
30
0
10
1.3080931744600324
20
3.520198698042293
30
0
10
1.8859360802016081
20
3.3149838597541166
30
0
10
2.4148906953596376
20
3.0390548904438219
30
0
10
2.8933151399722954
20
2.6994540900450383
30
0
10
3.3207639112965426
20
2.3030313767785553
30
0
10
3.7000773975946846
20
1.8571865044707407
30
0
10
4.0353690765815919
20
1.3685258478886586
30
0
10
4.2714586195370288
20
0.94729716275339548
30
0
10
4.4316314349078469
20
0.61563761908116321
30
0
10
4.5310270054555533
20
0.38765054434513779
30
0
10
4.578878169193934
20
0.27193678287890544
30
0
0
LINE
5
119
100
AcDbEntity
8
0
100
AcDbLine
10
-7.2999998368322867
20
-26.530570715138204
30
0
11
-8.5467730735356984
21
-26.474674796315362
31
0
0
SPLINE
5
120
100
AcDbEntity
8
0
100
AcDbSpline
70
4
71
5
72
26
73
20
74
0
42
0.000000001
43
0.0000000001
44
0.0000000001
40
0
40
0
40
0
40
0
40
0
40
0
40
0.066666666666666666
40
0.13333333333333333
40
0.20000000000000001
40
0.26666666666666666
40
0.33333333333333331
40
0.40000000000000002
40
0.46666666666666662
40
0.53333333333333333
40
0.59999999999999998
40
0.66666666666666663
40
0.73333333333333306
40
0.79999999999999982
40
0.8666666666666667
40
0.93333333333333324
40
1
40
1
40
1
40
1
40
1
40
1
41
1
41
1
41
1
41
1
41
1
41
1
41
1
41
1
41
1
41
1
41
1
41
1
41
1
41
1
41
1
41
1
41
1
41
1
41
1
41
1
10
0
20
-16.830570931950096
30
0
10
-0.13659016576454666
20
-16.830570931950096
30
0
10
-0.3970984000668793
20
-16.831745404409453
30
0
10
-0.74980388647099705
20
-16.837027891776192
30
0
10
-1.1655707674801037
20
-16.854383078987549
30
0
10
-1.7019060437027322
20
-16.910406126452688
30
0
10
-2.3732812224898647
20
-17.020363193324723
30
0
10
-3.2466002613659128
20
-17.198407234442296
30
0
10
-4.3179200827484365
20
-17.44812490971189
30
0
10
-5.3880511732735492
20
-17.749976378087162
30
0
10
-6.1856646781959519
20
-18.065234571472722
30
0
10
-6.7322959208319224
20
-18.362497056746502
30
0
10
-7.1203531585152779
20
-18.608259362839188
30
0
10
-7.4640249363006292
20
-18.760387093006795
30
0
10
-7.8263406476504382
20
-18.779764596745849
30
0
10
-8.038814273309713
20
-18.584858044531718
30
0
10
-8.0883858192435696
20
-18.335585050296334
30
0
10
-8.0979088790117935
20
-18.165769334152266
30
0
10
-8.0999998189508915
20
-18.072338411907651
30
0
10
-8.0999998189508915
20
-18.030570905128002
30
0
0
SPLINE
5
121
100
AcDbEntity
8
0
100
AcDbSpline
70
4
71
5
72
21
73
15
74
0
42
0.000000001
43
0.0000000001
44
0.0000000001
40
0
40
0
40
0
40
0
40
0
40
0
40
0.10000000000000001
40
0.20000000000000001
40
0.30000000000000004
40
0.40000000000000002
40
0.5
40
0.59999999999999998
40
0.69999999999999996
40
0.79999999999999982
40
0.8999999999999998
40
1
40
1
40
1
40
1
40
1
40
1
41
1
41
1
41
1
41
1
41
1
41
1
41
1
41
1
41
1
41
1
41
1
41
1
41
1
41
1
41
1
10
-7.2999998368322867
20
-26.530570715138204
30
0
10
-7.2731178652531714
20
-26.531775900216729
30
0
10
-7.2223183744692765
20
-26.532860125875814
30
0
10
-7.1550119371739571
20
-26.530508268989852
30
0
10
-7.0817971289464063
20
-26.519961498757525
30
0
10
-7.0112234176332144
20
-26.49717042924064
30
0
10
-6.9538603258312648
20
-26.467775848715142
30
0
10
-6.9028778715368935
20
-26.434035723505424
30
0
10
-6.854177911041166
20
-26.396550363442486
30
0
10
-6.8085029527214935
20
-26.353202713375879
30
0
10
-6.7697578473654731
20
-26.300153594273318
30
0
10
-6.7484869095336659
20
-26.246411612122937
30
0
10
-6.740156879629601
20
-26.198018955789159
30
0
10
-6.7383056432667718
20
-26.161916823126674
30
0
10
-6.7383056432667718
20
-26.142905591481835
30
0
0
LINE
5
122
100
AcDbEntity
8
0
100
AcDbLine
10
-4.578878169193934
20
0.27193678287890544
30
0
11
-9.4078790209520733
21
-16.312795005374991
31
0
0
SPLINE
5
123
100
AcDbEntity
8
0
100
AcDbSpline
70
4
71
5
72
36
73
30
74
0
42
0.000000001
43
0.0000000001
44
0.0000000001
40
0
40
0
40
0
40
0
40
0
40
0
40
0.040000000000000001
40
0.080000000000000002
40
0.12
40
0.16
40
0.20000000000000001
40
0.23999999999999999
40
0.28000000000000003
40
0.32000000000000001
40
0.35999999999999999
40
0.40000000000000002
40
0.44
40
0.47999999999999993
40
0.51999999999999991
40
0.56000000000000005
40
0.59999999999999998
40
0.64000000000000001
40
0.68000000000000005
40
0.72000000000000008
40
0.76000000000000023
40
0.80000000000000016
40
0.8400000000000003
40
0.88000000000000023
40
0.92000000000000015
40
0.96000000000000041
40
1
40
1
40
1
40
1
40
1
40
1
41
1
41
1
41
1
41
1
41
1
41
1
41
1
41
1
41
1
41
1
41
1
41
1
41
1
41
1
41
1
41
1
41
1
41
1
41
1
41
1
41
1
41
1
41
1
41
1
41
1
41
1
41
1
41
1
41
1
41
1
10
-6.7383056432667718
20
-25.43057073972512
30
0
10
-6.7389779425942731
20
-25.416487120101536
30
0
10
-6.7415272468109624
20
-25.388695440953867
30
0
10
-6.7489653287966256
20
-25.348134594528958
30
0
10
-6.7661298056195287
20
-25.296312756239196
30
0
10
-6.7996129314597731
20
-25.235416163968747
30
0
10
-6.8447757237634566
20
-25.178687827190529
30
0
10
-6.9007734507634666
20
-25.126656368391806
30
0
10
-6.9660446143580979
20
-25.080168242248469
30
0
10
-7.0381161138161339
20
-25.040444923439409
30
0
10
-7.114122892679303
20
-25.008697118874366
30
0
10
-7.191283777396893
20
-24.985762139122116
30
0
10
-7.2674053078221945
20
-24.97171413556228
30
0
10
-7.3413452552220546
20
-24.965502656969527
30
0
10
-7.4135900050763004
20
-24.96448941023079
30
0
10
-7.4855968634463164
20
-24.965048649791086
30
0
10
-7.5590297601104419
20
-24.963259395890507
30
0
10
-7.635010861847733
20
-24.955578113877273
30
0
10
-7.7134224396128221
20
-24.939477922665311
30
0
10
-7.7920147844933085
20
-24.91422976978658
30
0
10
-7.8671271989237423
20
-24.880507330701668
30
0
10
-7.9346494825158338
20
-24.839813328246059
30
0
10
-7.9909373455106545
20
-24.793964819694398
30
0
10
-8.0336517279210167
20
-24.744602030763474
30
0
10
-8.0629049538961244
20
-24.69258719231485
30
0
10
-8.0806760647339964
20
-24.63809108777232
30
0
10
-8.0878542006055518
20
-24.592348170827307
30
0
10
-8.0903741300002867
20
-24.556682860349479
30
0
10
-8.090934069387183
20
-24.532276085187483
30
0
10
-8.090934069387183
20
-24.519915209165681
30
0
0
SPLINE
5
124
100
AcDbEntity
8
0
100
AcDbSpline
70
4
71
5
72
21
73
15
74
0
42
0.000000001
43
0.0000000001
44
0.0000000001
40
0
40
0
40
0
40
0
40
0
40
0
40
0.10000000000000001
40
0.20000000000000001
40
0.30000000000000004
40
0.40000000000000002
40
0.5
40
0.59999999999999998
40
0.69999999999999996
40
0.79999999999999982
40
0.8999999999999998
40
1
40
1
40
1
40
1
40
1
40
1
41
1
41
1
41
1
41
1
41
1
41
1
41
1
41
1
41
1
41
1
41
1
41
1
41
1
41
1
41
1
10
9.4078790209520733
20
-25.730570733019597
30
0
10
9.4078790209520733
20
-25.754907518919843
30
0
10
9.4059828345233001
20
-25.802822489096577
30
0
10
9.3974503112008989
20
-25.872419216503069
30
0
10
9.3750312239441147
20
-25.960663292099611
30
0
10
9.3300995884442202
20
-26.063173662330954
30
0
10
9.2696600417793622
20
-26.157350293976613
30
0
10
9.1944773751448601
20
-26.242280542439815
30
0
10
9.1042885236681954
20
-26.316732636755063
30
0
10
8.9975961488398841
20
-26.379280183057936
30
0
10
8.8720081759737361
20
-26.428282208151963
30
0
10
8.7541662336694834
20
-26.455278145419587
30
0
10
8.6548667633003049
20
-26.46799250765433
30
0
10
8.5836418862840134
20
-26.473021876519027
30
0
10
8.5467730735356984
20
-26.474674796315362
30
0
0
LINE
5
125
100
AcDbEntity
8
0
100
AcDbLine
10
-9.4078790209520733
20
-16.312795005374991
30
0
11
-9.4078790209520733
21
-25.730570733019597
31
0
0
LINE
5
126
100
AcDbEntity
8
0
100
AcDbLine
10
-8.0999998189508915
20
-15.99462604442718
30
0
11
-8.0999998189508915
21
-18.030570905128002
31
0
0
LINE
5
127
100
AcDbEntity
8
0
100
AcDbLine
10
8.0999998189508915
20
-15.99462604442718
30
0
11
8.0999998189508915
21
-18.030570905128002
31
0
0
ENDSEC
0
SECTION
2
OBJECTS
0
DICTIONARY
5
C
100
AcDbDictionary
3
ACAD_GROUP
350
D
3
ACAD_MLINESTYLE
350
17
0
DICTIONARY
5
D
100
AcDbDictionary
0
DICTIONARY
5
1A
330
C
100
AcDbDictionary
0
DICTIONARY
5
17
100
AcDbDictionary
0
ENDSEC
0
EOF
