0
SECTION
2
HEADER
9
$INSUNITS
70
4
9
$ACADVER
1
AC1014
9
$HANDSEED
5
FFFF
0
ENDSEC
0
SECTION
2
TABLES
0
TABLE
2
VPORT
5
8
100
AcDbSymbolTable
0
ENDTAB
0
TABLE
2
LTYPE
5
5
100
AcDbSymbolTable
0
LTYPE
5
14
100
AcDbSymbolTableRecord
100
AcDbLinetypeTableRecord
2
BYBLOCK
70
0
0
LTYPE
5
15
100
AcDbSymbolTableRecord
100
AcDbLinetypeTableRecord
2
BYLAYER
70
0
0
ENDTAB
0
TABLE
2
LAYER
5
2
100
AcDbSymbolTable
70
2
0
LAYER
5
50
100
AcDbSymbolTableRecord
100
AcDbLayerTableRecord
2
0
70
0
6
CONTINUOUS
0
ENDTAB
0
TABLE
2
STYLE
5
3
100
AcDbSymbolTable
70
1
0
STYLE
5
11
100
AcDbSymbolTableRecord
100
AcDbTextStyleTableRecord
2
STANDARD
70
0
0
ENDTAB
0
TABLE
2
VIEW
5
6
100
AcDbSymbolTable
70
0
0
ENDTAB
0
TABLE
2
UCS
5
7
100
AcDbSymbolTable
70
0
0
ENDTAB
0
TABLE
2
APPID
5
9
100
AcDbSymbolTable
70
2
0
APPID
5
12
100
AcDbSymbolTableRecord
100
AcDbRegAppTableRecord
2
ACAD
70
0
0
ENDTAB
0
TABLE
2
DIMSTYLE
5
A
100
AcDbSymbolTable
70
1
0
ENDTAB
0
TABLE
2
BLOCK_RECORD
5
1
100
AcDbSymbolTable
70
1
0
BLOCK_RECORD
5
1F
100
AcDbSymbolTableRecord
100
AcDbBlockTableRecord
2
*MODEL_SPACE
0
BLOCK_RECORD
5
1B
100
AcDbSymbolTableRecord
100
AcDbBlockTableRecord
2
*PAPER_SPACE
0
ENDTAB
0
ENDSEC
0
SECTION
2
BLOCKS
0
BLOCK
5
20
100
AcDbEntity
100
AcDbBlockBegin
2
*MODEL_SPACE
0
ENDBLK
5
21
100
AcDbEntity
100
AcDbBlockEnd
0
BLOCK
5
1C
100
AcDbEntity
100
AcDbBlockBegin
2
*PAPER_SPACE
0
ENDBLK
5
1D
100
AcDbEntity
100
AcDbBlockEnd
0
ENDSEC
0
SECTION
2
ENTITIES
0
LINE
5
100
100
AcDbEntity
8
0
100
AcDbLine
10
4.578878169193934
20
1.202508144727501
30
0
11
9.4078790209520733
21
-15.382223643526396
31
0
0
LINE
5
101
100
AcDbEntity
8
0
100
AcDbLine
10
9.4078790209520733
20
-15.382223643526396
30
0
11
9.4078790209520733
21
-24.799999371170998
31
0
0
LINE
5
102
100
AcDbEntity
8
0
100
AcDbLine
10
8.090934069387183
20
-23.589343847317082
30
0
11
8.090934069387183
21
-19.953087537560904
31
0
0
LINE
5
103
100
AcDbEntity
8
0
100
AcDbLine
10
3.8605676181119875
20
-0.19874949766276018
30
0
11
8.0999998189508915
21
-15.064054682578584
31
0
0
LINE
5
104
100
AcDbEntity
8
0
100
AcDbLine
10
8.0999998189508915
20
-15.064054682578584
30
0
11
8.0999998189508915
21
-17.099999543279409
31
0
0
SPLINE
5
105
100
AcDbEntity
8
0
100
AcDbSpline
70
4
71
5
72
26
73
20
74
0
42
0.000000001
43
0.0000000001
44
0.0000000001
40
0
40
0
40
0
40
0
40
0
40
0
40
0.066666666666666666
40
0.13333333333333333
40
0.20000000000000001
40
0.26666666666666666
40
0.33333333333333331
40
0.39999999999999997
40
0.46666666666666662
40
0.53333333333333333
40
0.59999999999999998
40
0.66666666666666663
40
0.73333333333333328
40
0.79999999999999993
40
0.86666666666666659
40
0.93333333333333324
40
1
40
1
40
1
40
1
40
1
40
1
41
1
41
1
41
1
41
1
41
1
41
1
41
1
41
1
41
1
41
1
41
1
41
1
41
1
41
1
41
1
41
1
41
1
41
1
41
1
41
1
10
0
20
-15.8999995701015
30
0
10
0.13659016576454666
20
-15.8999995701015
30
0
10
0.3970984000668793
20
-15.901174042560859
30
0
10
0.74980388647099705
20
-15.906456529927596
30
0
10
1.1655707674801037
20
-15.923811717138953
30
0
10
1.7019060437027322
20
-15.979834764604092
30
0
10
2.3732812224898652
20
-16.089791831476123
30
0
10
3.2466002613659124
20
-16.2678358725937
30
0
10
4.3179200827484374
20
-16.517553547863294
30
0
10
5.3880511732735492
20
-16.819405016238566
30
0
10
6.1856646781959519
20
-17.134663209624129
30
0
10
6.7322959208319224
20
-17.431925694897906
30
0
10
7.1203531585152771
20
-17.677688000990596
30
0
10
7.4640249363006292
20
-17.829815731158199
30
0
10
7.8263406476504382
20
-17.849193234897253
30
0
10
8.038814273309713
20
-17.654286682683122
30
0
10
8.0883858192435678
20
-17.405013688447738
30
0
10
8.0979088790117935
20
-17.23519797230367
30
0
10
8.0999998189508915
20
-17.141767050059052
30
0
10
8.0999998189508915
20
-17.099999543279409
30
0
0
SPLINE
5
106
100
AcDbEntity
8
0
100
AcDbSpline
70
4
71
5
72
21
73
15
74
0
42
0.000000001
43
0.0000000001
44
0.0000000001
40
0
40
0
40
0
40
0
40
0
40
0
40
0.10000000000000001
40
0.20000000000000001
40
0.30000000000000004
40
0.40000000000000002
40
0.5
40
0.59999999999999998
40
0.69999999999999996
40
0.79999999999999993
40
0.89999999999999991
40
1
40
1
40
1
40
1
40
1
40
1
41
1
41
1
41
1
41
1
41
1
41
1
41
1
41
1
41
1
41
1
41
1
41
1
41
1
41
1
41
1
10
0
20
4.5999999716877937
30
0
10
0.1389051435307786
20
4.5999999716877937
30
0
10
0.41209283566074317
20
4.5914011573705125
30
0
10
0.80800717305559155
20
4.5527078209108645
30
0
10
1.3080931744600324
20
4.4507700598908881
30
0
10
1.8859360802016076
20
4.2455552216027117
30
0
10
2.4148906953596376
20
3.9696262522924175
30
0
10
2.8933151399722954
20
3.6300254518936343
30
0
10
3.3207639112965421
20
3.2336027386271509
30
0
10
3.7000773975946837
20
2.7877578663193363
30
0
10
4.0353690765815919
20
2.299097209737254
30
0
10
4.2714586195370288
20
1.8778685246019908
30
0
10
4.4316314349078469
20
1.5462089809297588
30
0
10
4.5310270054555541
20
1.3182219061937333
30
0
10
4.578878169193934
20
1.202508144727501
30
0
0
SPLINE
5
107
100
AcDbEntity
8
0
100
AcDbSpline
70
4
71
5
72
26
73
20
74
0
42
0.000000001
43
0.0000000001
44
0.0000000001
40
0
40
0
40
0
40
0
40
0
40
0
40
0.066666666666666666
40
0.13333333333333333
40
0.20000000000000001
40
0.26666666666666666
40
0.33333333333333331
40
0.39999999999999997
40
0.46666666666666662
40
0.53333333333333333
40
0.59999999999999998
40
0.66666666666666663
40
0.73333333333333328
40
0.79999999999999993
40
0.86666666666666659
40
0.93333333333333324
40
1
40
1
40
1
40
1
40
1
40
1
41
1
41
1
41
1
41
1
41
1
41
1
41
1
41
1
41
1
41
1
41
1
41
1
41
1
41
1
41
1
41
1
41
1
41
1
41
1
41
1
10
0
20
2.0000000298023224
30
0
10
0.07300874635434465
20
2.0000000298023224
30
0
10
0.21848232216591151
20
1.9996054020503666
30
0
10
0.43506070962667887
20
1.9978297940785741
30
0
10
0.72104198330447133
20
1.9916951249367396
30
0
10
1.0760149896621682
20
1.9698588822406862
30
0
10
1.4302856923638696
20
1.9240212292274577
30
0
10
1.7838690603909368
20
1.8450075089952525
30
0
10
2.1338153098330097
20
1.7266108635320405
30
0
10
2.4722292997902247
20
1.5689579221632501
30
0
10
2.7876627335166932
20
1.3777987841610759
30
0
10
3.0680229609122907
20
1.1619668750743868
30
0
10
3.3032275533761708
20
0.93156432145926493
30
0
10
3.4876777275373656
20
0.69614811296690582
30
0
10
3.6241301527147227
20
0.46260689108452718
30
0
10
3.7234570636773094
20
0.23450684003279446
30
0
10
3.7838672267371321
20
0.057612056930321467
30
0
10
3.8237139561817131
20
-0.071811461179740063
30
0
10
3.8485679725537052
20
-0.15667348727170141
30
0
10
3.8605676181119875
20
-0.19874949766276018
30
0
0
LINE
5
108
100
AcDbEntity
8
0
100
AcDbLine
10
7.2999998368322849
20
-25.599999353289604
30
0
11
8.5467730735357001
21
-25.544103434466756
31
0
0
LINE
5
109
100
AcDbEntity
8
0
100
AcDbLine
10
6.738305643266771
20
-25.212334229633242
30
0
11
6.738305643266771
21
-24.49999937787652
31
0
0
SPLINE
5
110
100
AcDbEntity
8
0
100
AcDbSpline
70
4
71
5
72
21
73
15
74
0
42
0.000000001
43
0.0000000001
44
0.0000000001
40
0
40
0
40
0
40
0
40
0
40
0
40
0.10000000000000001
40
0.20000000000000001
40
0.30000000000000004
40
0.40000000000000002
40
0.5
40
0.59999999999999998
40
0.69999999999999996
40
0.79999999999999993
40
0.89999999999999991
40
1
40
1
40
1
40
1
40
1
40
1
41
1
41
1
41
1
41
1
41
1
41
1
41
1
41
1
41
1
41
1
41
1
41
1
41
1
41
1
41
1
10
9.4078790209520733
20
-24.799999371170998
30
0
10
9.4078790209520733
20
-24.824336157071258
30
0
10
9.4059828345233001
20
-24.872251127247978
30
0
10
9.3974503112008989
20
-24.941847854654469
30
0
10
9.3750312239441165
20
-25.030091930251011
30
0
10
9.3300995884442202
20
-25.132602300482361
30
0
10
9.2696600417793622
20
-25.226778932128013
30
0
10
9.1944773751448601
20
-25.311709180591215
30
0
10
9.1042885236681954
20
-25.38616127490647
30
0
10
8.9975961488398841
20
-25.44870882120934
30
0
10
8.8720081759737361
20
-25.497710846303356
30
0
10
8.7541662336694817
20
-25.524706783570991
30
0
10
8.6548667633003049
20
-25.537421145805727
30
0
10
8.5836418862840134
20
-25.542450514670428
30
0
10
8.5467730735357001
20
-25.544103434466756
30
0
0
SPLINE
5
111
100
AcDbEntity
8
0
100
AcDbSpline
70
4
71
5
72
21
73
15
74
0
42
0.000000001
43
0.0000000001
44
0.0000000001
40
0
40
0
40
0
40
0
40
0
40
0
40
0.10000000000000001
40
0.20000000000000001
40
0.30000000000000004
40
0.40000000000000002
40
0.5
40
0.59999999999999998
40
0.69999999999999996
40
0.79999999999999993
40
0.89999999999999991
40
1
40
1
40
1
40
1
40
1
40
1
41
1
41
1
41
1
41
1
41
1
41
1
41
1
41
1
41
1
41
1
41
1
41
1
41
1
41
1
41
1
10
7.2999998368322849
20
-25.599999353289604
30
0
10
7.2731178652531723
20
-25.601204538368133
30
0
10
7.2223183744692765
20
-25.602288764027215
30
0
10
7.1550119371739571
20
-25.599936907141249
30
0
10
7.0817971289464063
20
-25.589390136908921
30
0
10
7.0112234176332144
20
-25.566599067392044
30
0
10
6.9538603258312639
20
-25.537204486866543
30
0
10
6.9028778715368926
20
-25.503464361656825
30
0
10
6.854177911041166
20
-25.46597900159389
30
0
10
6.8085029527214935
20
-25.422631351527283
30
0
10
6.7697578473654723
20
-25.369582232424715
30
0
10
6.7484869095336659
20
-25.315840250274341
30
0
10
6.7401568796296001
20
-25.267447593940556
30
0
10
6.738305643266771
20
-25.231345461278082
30
0
10
6.738305643266771
20
-25.212334229633242
30
0
0
SPLINE
5
112
100
AcDbEntity
8
0
100
AcDbSpline
70
4
71
5
72
36
73
30
74
0
42
0.000000001
43
0.0000000001
44
0.0000000001
40
0
40
0
40
0
40
0
40
0
40
0
40
0.040000000000000001
40
0.080000000000000002
40
0.12
40
0.16
40
0.20000000000000001
40
0.24000000000000002
40
0.28000000000000003
40
0.32000000000000001
40
0.35999999999999999
40
0.39999999999999997
40
0.43999999999999995
40
0.47999999999999993
40
0.51999999999999991
40
0.55999999999999994
40
0.59999999999999998
40
0.64000000000000001
40
0.68000000000000005
40
0.72000000000000008
40
0.76000000000000012
40
0.80000000000000016
40
0.84000000000000019
40
0.88000000000000023
40
0.92000000000000026
40
0.9600000000000003
40
1
40
1
40
1
40
1
40
1
40
1
41
1
41
1
41
1
41
1
41
1
41
1
41
1
41
1
41
1
41
1
41
1
41
1
41
1
41
1
41
1
41
1
41
1
41
1
41
1
41
1
41
1
41
1
41
1
41
1
41
1
41
1
41
1
41
1
41
1
41
1
10
6.738305643266771
20
-24.49999937787652
30
0
10
6.7389779425942722
20
-24.48591575825294
30
0
10
6.7415272468109624
20
-24.458124079105271
30
0
10
6.7489653287966256
20
-24.417563232680365
30
0
10
6.7661298056195278
20
-24.365741394390593
30
0
10
6.7996129314597731
20
-24.304844802120151
30
0
10
6.8447757237634566
20
-24.248116465341937
30
0
10
6.9007734507634666
20
-24.196085006543214
30
0
10
6.9660446143580979
20
-24.149596880399869
30
0
10
7.0381161138161339
20
-24.10987356159081
30
0
10
7.114122892679303
20
-24.078125757025774
30
0
10
7.1912837773968921
20
-24.055190777273509
30
0
10
7.2674053078221945
20
-24.04114277371368
30
0
10
7.3413452552220555
20
-24.034931295120927
30
0
10
7.4135900050763013
20
-24.033918048382187
30
0
10
7.4855968634463164
20
-24.034477287942483
30
0
10
7.559029760110441
20
-24.032688034041911
30
0
10
7.635010861847733
20
-24.025006752028677
30
0
10
7.7134224396128221
20
-24.008906560816708
30
0
10
7.7920147844933094
20
-23.983658407937988
30
0
10
7.8671271989237432
20
-23.949935968853062
30
0
10
7.9346494825158338
20
-23.90924196639746
30
0
10
7.9909373455106545
20
-23.863393457845813
30
0
10
8.0336517279210167
20
-23.814030668914882
30
0
10
8.0629049538961244
20
-23.762015830466257
30
0
10
8.0806760647339964
20
-23.707519725923717
30
0
10
8.0878542006055518
20
-23.661776808978708
30
0
10
8.0903741300002867
20
-23.626111498500883
30
0
10
8.090934069387183
20
-23.601704723338891
30
0
10
8.090934069387183
20
-23.589343847317082
30
0
0
SPLINE
5
113
100
AcDbEntity
8
0
100
AcDbSpline
70
4
71
5
72
26
73
20
74
0
42
0.000000001
43
0.0000000001
44
0.0000000001
40
0
40
0
40
0
40
0
40
0
40
0
40
0.066666666666666666
40
0.13333333333333333
40
0.20000000000000001
40
0.26666666666666666
40
0.33333333333333331
40
0.39999999999999997
40
0.46666666666666662
40
0.53333333333333333
40
0.59999999999999998
40
0.66666666666666663
40
0.73333333333333328
40
0.79999999999999993
40
0.86666666666666659
40
0.93333333333333324
40
1
40
1
40
1
40
1
40
1
40
1
41
1
41
1
41
1
41
1
41
1
41
1
41
1
41
1
41
1
41
1
41
1
41
1
41
1
41
1
41
1
41
1
41
1
41
1
41
1
41
1
10
8.090934069387183
20
-19.953087537560904
30
0
10
8.090934069387183
20
-19.921643654616307
30
0
10
8.0908833110084295
20
-19.857277929484873
30
0
10
8.0906627747275444
20
-19.756297062836676
30
0
10
8.0783708423309228
20
-19.610971076401508
30
0
10
7.9875765752308237
20
-19.403686808172608
30
0
10
7.7693578350308723
20
-19.165055272958462
30
0
10
7.4098030258081495
20
-18.897853390469852
30
0
10
6.9243503412472007
20
-18.61142824415602
30
0
10
6.3439941743837558
20
-18.318818854350145
30
0
10
5.7040068670587898
20
-18.034360390277282
30
0
10
5.0327819962536662
20
-17.771303335098153
30
0
10
4.3392266671101511
20
-17.539079749086607
30
0
10
3.6161821710978028
20
-17.34385677470161
30
0
10
2.8462604461741678
20
-17.189507659754604
30
0
10
2.0065798323120987
20
-17.078243436743609
30
0
10
1.2604389571645715
20
-17.024602127723583
30
0
10
0.65067602897662979
20
-17.004472755111621
30
0
10
0.22078856924132428
20
-16.999999545514584
30
0
10
0
20
-16.999999545514584
30
0
0
LINE
5
114
100
AcDbEntity
8
0
100
AcDbLine
10
-4.0000000596046448
20
2.0000000298023224
30
0
11
3.5000000521540642
21
2.0000000298023224
31
0
0
LINE
5
115
100
AcDbEntity
8
0
100
AcDbLine
10
1.75
20
0
30
0
11
22.5
21
0
31
0
0
LINE
5
116
100
AcDbEntity
8
0
100
AcDbLine
10
0
20
2.5
30
0
11
0
21
20
31
0
0
SPLINE
5
117
100
AcDbEntity
8
0
100
AcDbSpline
70
4
71
5
72
21
73
15
74
0
42
0.000000001
43
0.0000000001
44
0.0000000001
40
0
40
0
40
0
40
0
40
0
40
0
40
0.10000000000000001
40
0.20000000000000001
40
0.30000000000000004
40
0.40000000000000002
40
0.5
40
0.59999999999999998
40
0.69999999999999996
40
0.79999999999999993
40
0.89999999999999991
40
1
40
1
40
1
40
1
40
1
40
1
41
1
41
1
41
1
41
1
41
1
41
1
41
1
41
1
41
1
41
1
41
1
41
1
41
1
41
1
41
1
10
0
20
4.5999999716877937
30
0
10
-0.1389051435307786
20
4.5999999716877937
30
0
10
-0.41209283566074317
20
4.5914011573705125
30
0
10
-0.80800717305559155
20
4.5527078209108645
30
0
10
-1.3080931744600324
20
4.4507700598908881
30
0
10
-1.8859360802016076
20
4.2455552216027117
30
0
10
-2.4148906953596376
20
3.9696262522924175
30
0
10
-2.8933151399722954
20
3.6300254518936343
30
0
10
-3.3207639112965421
20
3.2336027386271509
30
0
10
-3.7000773975946837
20
2.7877578663193363
30
0
10
-4.0353690765815919
20
2.299097209737254
30
0
10
-4.2714586195370288
20
1.8778685246019908
30
0
10
-4.4316314349078469
20
1.5462089809297588
30
0
10
-4.5310270054555541
20
1.3182219061937333
30
0
10
-4.578878169193934
20
1.202508144727501
30
0
0
LINE
5
118
100
AcDbEntity
8
0
100
AcDbLine
10
-4.578878169193934
20
1.202508144727501
30
0
11
-9.4078790209520733
21
-15.382223643526396
31
0
0
LINE
5
119
100
AcDbEntity
8
0
100
AcDbLine
10
-9.4078790209520733
20
-15.382223643526396
30
0
11
-9.4078790209520733
21
-24.799999371170998
31
0
0
SPLINE
5
120
100
AcDbEntity
8
0
100
AcDbSpline
70
4
71
5
72
21
73
15
74
0
42
0.000000001
43
0.0000000001
44
0.0000000001
40
0
40
0
40
0
40
0
40
0
40
0
40
0.10000000000000001
40
0.20000000000000001
40
0.30000000000000004
40
0.40000000000000002
40
0.5
40
0.59999999999999998
40
0.69999999999999996
40
0.79999999999999993
40
0.89999999999999991
40
1
40
1
40
1
40
1
40
1
40
1
41
1
41
1
41
1
41
1
41
1
41
1
41
1
41
1
41
1
41
1
41
1
41
1
41
1
41
1
41
1
10
-9.4078790209520733
20
-24.799999371170998
30
0
10
-9.4078790209520733
20
-24.824336157071258
30
0
10
-9.4059828345233001
20
-24.872251127247978
30
0
10
-9.3974503112008989
20
-24.941847854654469
30
0
10
-9.3750312239441165
20
-25.030091930251011
30
0
10
-9.3300995884442202
20
-25.132602300482361
30
0
10
-9.2696600417793622
20
-25.226778932128013
30
0
10
-9.1944773751448601
20
-25.311709180591215
30
0
10
-9.1042885236681954
20
-25.38616127490647
30
0
10
-8.9975961488398841
20
-25.44870882120934
30
0
10
-8.8720081759737361
20
-25.497710846303356
30
0
10
-8.7541662336694817
20
-25.524706783570991
30
0
10
-8.6548667633003049
20
-25.537421145805727
30
0
10
-8.5836418862840134
20
-25.542450514670428
30
0
10
-8.5467730735357001
20
-25.544103434466756
30
0
0
LINE
5
121
100
AcDbEntity
8
0
100
AcDbLine
10
-7.2999998368322849
20
-25.599999353289604
30
0
11
-8.5467730735357001
21
-25.544103434466756
31
0
0
SPLINE
5
122
100
AcDbEntity
8
0
100
AcDbSpline
70
4
71
5
72
21
73
15
74
0
42
0.000000001
43
0.0000000001
44
0.0000000001
40
0
40
0
40
0
40
0
40
0
40
0
40
0.10000000000000001
40
0.20000000000000001
40
0.30000000000000004
40
0.40000000000000002
40
0.5
40
0.59999999999999998
40
0.69999999999999996
40
0.79999999999999993
40
0.89999999999999991
40
1
40
1
40
1
40
1
40
1
40
1
41
1
41
1
41
1
41
1
41
1
41
1
41
1
41
1
41
1
41
1
41
1
41
1
41
1
41
1
41
1
10
-7.2999998368322849
20
-25.599999353289604
30
0
10
-7.2731178652531723
20
-25.601204538368133
30
0
10
-7.2223183744692765
20
-25.602288764027215
30
0
10
-7.1550119371739571
20
-25.599936907141249
30
0
10
-7.0817971289464063
20
-25.589390136908921
30
0
10
-7.0112234176332144
20
-25.566599067392044
30
0
10
-6.9538603258312639
20
-25.537204486866543
30
0
10
-6.9028778715368926
20
-25.503464361656825
30
0
10
-6.854177911041166
20
-25.46597900159389
30
0
10
-6.8085029527214935
20
-25.422631351527283
30
0
10
-6.7697578473654723
20
-25.369582232424715
30
0
10
-6.7484869095336659
20
-25.315840250274341
30
0
10
-6.7401568796296001
20
-25.267447593940556
30
0
10
-6.738305643266771
20
-25.231345461278082
30
0
10
-6.738305643266771
20
-25.212334229633242
30
0
0
LINE
5
123
100
AcDbEntity
8
0
100
AcDbLine
10
-6.738305643266771
20
-25.212334229633242
30
0
11
-6.738305643266771
21
-24.49999937787652
31
0
0
SPLINE
5
124
100
AcDbEntity
8
0
100
AcDbSpline
70
4
71
5
72
36
73
30
74
0
42
0.000000001
43
0.0000000001
44
0.0000000001
40
0
40
0
40
0
40
0
40
0
40
0
40
0.040000000000000001
40
0.080000000000000002
40
0.12
40
0.16
40
0.20000000000000001
40
0.24000000000000002
40
0.28000000000000003
40
0.32000000000000001
40
0.35999999999999999
40
0.39999999999999997
40
0.43999999999999995
40
0.47999999999999993
40
0.51999999999999991
40
0.55999999999999994
40
0.59999999999999998
40
0.64000000000000001
40
0.68000000000000005
40
0.72000000000000008
40
0.76000000000000012
40
0.80000000000000016
40
0.84000000000000019
40
0.88000000000000023
40
0.92000000000000026
40
0.9600000000000003
40
1
40
1
40
1
40
1
40
1
40
1
41
1
41
1
41
1
41
1
41
1
41
1
41
1
41
1
41
1
41
1
41
1
41
1
41
1
41
1
41
1
41
1
41
1
41
1
41
1
41
1
41
1
41
1
41
1
41
1
41
1
41
1
41
1
41
1
41
1
41
1
10
-6.738305643266771
20
-24.49999937787652
30
0
10
-6.7389779425942722
20
-24.48591575825294
30
0
10
-6.7415272468109624
20
-24.458124079105271
30
0
10
-6.7489653287966256
20
-24.417563232680365
30
0
10
-6.7661298056195278
20
-24.365741394390593
30
0
10
-6.7996129314597731
20
-24.304844802120151
30
0
10
-6.8447757237634566
20
-24.248116465341937
30
0
10
-6.9007734507634666
20
-24.196085006543214
30
0
10
-6.9660446143580979
20
-24.149596880399869
30
0
10
-7.0381161138161339
20
-24.10987356159081
30
0
10
-7.114122892679303
20
-24.078125757025774
30
0
10
-7.1912837773968921
20
-24.055190777273509
30
0
10
-7.2674053078221945
20
-24.04114277371368
30
0
10
-7.3413452552220555
20
-24.034931295120927
30
0
10
-7.4135900050763013
20
-24.033918048382187
30
0
10
-7.4855968634463164
20
-24.034477287942483
30
0
10
-7.559029760110441
20
-24.032688034041911
30
0
10
-7.635010861847733
20
-24.025006752028677
30
0
10
-7.7134224396128221
20
-24.008906560816708
30
0
10
-7.7920147844933094
20
-23.983658407937988
30
0
10
-7.8671271989237432
20
-23.949935968853062
30
0
10
-7.9346494825158338
20
-23.90924196639746
30
0
10
-7.9909373455106545
20
-23.863393457845813
30
0
10
-8.0336517279210167
20
-23.814030668914882
30
0
10
-8.0629049538961244
20
-23.762015830466257
30
0
10
-8.0806760647339964
20
-23.707519725923717
30
0
10
-8.0878542006055518
20
-23.661776808978708
30
0
10
-8.0903741300002867
20
-23.626111498500883
30
0
10
-8.090934069387183
20
-23.601704723338891
30
0
10
-8.090934069387183
20
-23.589343847317082
30
0
0
LINE
5
125
100
AcDbEntity
8
0
100
AcDbLine
10
-8.090934069387183
20
-23.589343847317082
30
0
11
-8.090934069387183
21
-19.953087537560904
31
0
0
SPLINE
5
126
100
AcDbEntity
8
0
100
AcDbSpline
70
4
71
5
72
26
73
20
74
0
42
0.000000001
43
0.0000000001
44
0.0000000001
40
0
40
0
40
0
40
0
40
0
40
0
40
0.066666666666666666
40
0.13333333333333333
40
0.20000000000000001
40
0.26666666666666666
40
0.33333333333333331
40
0.39999999999999997
40
0.46666666666666662
40
0.53333333333333333
40
0.59999999999999998
40
0.66666666666666663
40
0.73333333333333328
40
0.79999999999999993
40
0.86666666666666659
40
0.93333333333333324
40
1
40
1
40
1
40
1
40
1
40
1
41
1
41
1
41
1
41
1
41
1
41
1
41
1
41
1
41
1
41
1
41
1
41
1
41
1
41
1
41
1
41
1
41
1
41
1
41
1
41
1
10
-8.090934069387183
20
-19.953087537560904
30
0
10
-8.090934069387183
20
-19.921643654616307
30
0
10
-8.0908833110084295
20
-19.857277929484873
30
0
10
-8.0906627747275444
20
-19.756297062836676
30
0
10
-8.0783708423309228
20
-19.610971076401508
30
0
10
-7.9875765752308237
20
-19.403686808172608
30
0
10
-7.7693578350308723
20
-19.165055272958462
30
0
10
-7.4098030258081495
20
-18.897853390469852
30
0
10
-6.9243503412472007
20
-18.61142824415602
30
0
10
-6.3439941743837558
20
-18.318818854350145
30
0
10
-5.7040068670587898
20
-18.034360390277282
30
0
10
-5.0327819962536662
20
-17.771303335098153
30
0
10
-4.3392266671101511
20
-17.539079749086607
30
0
10
-3.6161821710978028
20
-17.34385677470161
30
0
10
-2.8462604461741678
20
-17.189507659754604
30
0
10
-2.0065798323120987
20
-17.078243436743609
30
0
10
-1.2604389571645715
20
-17.024602127723583
30
0
10
-0.65067602897662979
20
-17.004472755111621
30
0
10
-0.22078856924132428
20
-16.999999545514584
30
0
10
0
20
-16.999999545514584
30
0
0
SPLINE
5
127
100
AcDbEntity
8
0
100
AcDbSpline
70
4
71
5
72
26
73
20
74
0
42
0.000000001
43
0.0000000001
44
0.0000000001
40
0
40
0
40
0
40
0
40
0
40
0
40
0.066666666666666666
40
0.13333333333333333
40
0.20000000000000001
40
0.26666666666666666
40
0.33333333333333331
40
0.39999999999999997
40
0.46666666666666662
40
0.53333333333333333
40
0.59999999999999998
40
0.66666666666666663
40
0.73333333333333328
40
0.79999999999999993
40
0.86666666666666659
40
0.93333333333333324
40
1
40
1
40
1
40
1
40
1
40
1
41
1
41
1
41
1
41
1
41
1
41
1
41
1
41
1
41
1
41
1
41
1
41
1
41
1
41
1
41
1
41
1
41
1
41
1
41
1
41
1
10
0
20
2.0000000298023224
30
0
10
-0.07300874635434465
20
2.0000000298023224
30
0
10
-0.21848232216591151
20
1.9996054020503666
30
0
10
-0.43506070962667887
20
1.9978297940785741
30
0
10
-0.72104198330447133
20
1.9916951249367396
30
0
10
-1.0760149896621682
20
1.9698588822406862
30
0
10
-1.4302856923638696
20
1.9240212292274577
30
0
10
-1.7838690603909368
20
1.8450075089952525
30
0
10
-2.1338153098330097
20
1.7266108635320405
30
0
10
-2.4722292997902247
20
1.5689579221632501
30
0
10
-2.7876627335166932
20
1.3777987841610759
30
0
10
-3.0680229609122907
20
1.1619668750743868
30
0
10
-3.3032275533761708
20
0.93156432145926493
30
0
10
-3.4876777275373656
20
0.69614811296690582
30
0
10
-3.6241301527147227
20
0.46260689108452718
30
0
10
-3.7234570636773094
20
0.23450684003279446
30
0
10
-3.7838672267371321
20
0.057612056930321467
30
0
10
-3.8237139561817131
20
-0.071811461179740063
30
0
10
-3.8485679725537052
20
-0.15667348727170141
30
0
10
-3.8605676181119875
20
-0.19874949766276018
30
0
0
LINE
5
128
100
AcDbEntity
8
0
100
AcDbLine
10
-8.0999998189508915
20
-15.064054682578584
30
0
11
-8.0999998189508915
21
-17.099999543279409
31
0
0
SPLINE
5
129
100
AcDbEntity
8
0
100
AcDbSpline
70
4
71
5
72
26
73
20
74
0
42
0.000000001
43
0.0000000001
44
0.0000000001
40
0
40
0
40
0
40
0
40
0
40
0
40
0.066666666666666666
40
0.13333333333333333
40
0.20000000000000001
40
0.26666666666666666
40
0.33333333333333331
40
0.39999999999999997
40
0.46666666666666662
40
0.53333333333333333
40
0.59999999999999998
40
0.66666666666666663
40
0.73333333333333328
40
0.79999999999999993
40
0.86666666666666659
40
0.93333333333333324
40
1
40
1
40
1
40
1
40
1
40
1
41
1
41
1
41
1
41
1
41
1
41
1
41
1
41
1
41
1
41
1
41
1
41
1
41
1
41
1
41
1
41
1
41
1
41
1
41
1
41
1
10
0
20
-15.8999995701015
30
0
10
-0.13659016576454666
20
-15.8999995701015
30
0
10
-0.3970984000668793
20
-15.901174042560859
30
0
10
-0.74980388647099705
20
-15.906456529927596
30
0
10
-1.1655707674801037
20
-15.923811717138953
30
0
10
-1.7019060437027322
20
-15.979834764604092
30
0
10
-2.3732812224898652
20
-16.089791831476123
30
0
10
-3.2466002613659124
20
-16.2678358725937
30
0
10
-4.3179200827484374
20
-16.517553547863294
30
0
10
-5.3880511732735492
20
-16.819405016238566
30
0
10
-6.1856646781959519
20
-17.134663209624129
30
0
10
-6.7322959208319224
20
-17.431925694897906
30
0
10
-7.1203531585152771
20
-17.677688000990596
30
0
10
-7.4640249363006292
20
-17.829815731158199
30
0
10
-7.8263406476504382
20
-17.849193234897253
30
0
10
-8.038814273309713
20
-17.654286682683122
30
0
10
-8.0883858192435678
20
-17.405013688447738
30
0
10
-8.0979088790117935
20
-17.23519797230367
30
0
10
-8.0999998189508915
20
-17.141767050059052
30
0
10
-8.0999998189508915
20
-17.099999543279409
30
0
0
LINE
5
130
100
AcDbEntity
8
0
100
AcDbLine
10
-3.8605676181119875
20
-0.19874949766276018
30
0
11
-8.0999998189508915
21
-15.064054682578584
31
0
0
ENDSEC
0
SECTION
2
OBJECTS
0
DICTIONARY
5
C
100
AcDbDictionary
3
ACAD_GROUP
350
D
3
ACAD_MLINESTYLE
350
17
0
DICTIONARY
5
D
100
AcDbDictionary
0
DICTIONARY
5
1A
330
C
100
AcDbDictionary
0
DICTIONARY
5
17
100
AcDbDictionary
0
ENDSEC
0
EOF
