0
SECTION
2
HEADER
9
$INSUNITS
70
4
9
$ACADVER
1
AC1014
9
$HANDSEED
5
FFFF
0
ENDSEC
0
SECTION
2
TABLES
0
TABLE
2
VPORT
5
8
100
AcDbSymbolTable
0
ENDTAB
0
TABLE
2
LTYPE
5
5
100
AcDbSymbolTable
0
LTYPE
5
14
100
AcDbSymbolTableRecord
100
AcDbLinetypeTableRecord
2
BYBLOCK
70
0
0
LTYPE
5
15
100
AcDbSymbolTableRecord
100
AcDbLinetypeTableRecord
2
BYLAYER
70
0
0
ENDTAB
0
TABLE
2
LAYER
5
2
100
AcDbSymbolTable
70
2
0
LAYER
5
50
100
AcDbSymbolTableRecord
100
AcDbLayerTableRecord
2
0
70
0
6
CONTINUOUS
0
ENDTAB
0
TABLE
2
STYLE
5
3
100
AcDbSymbolTable
70
1
0
STYLE
5
11
100
AcDbSymbolTableRecord
100
AcDbTextStyleTableRecord
2
STANDARD
70
0
0
ENDTAB
0
TABLE
2
VIEW
5
6
100
AcDbSymbolTable
70
0
0
ENDTAB
0
TABLE
2
UCS
5
7
100
AcDbSymbolTable
70
0
0
ENDTAB
0
TABLE
2
APPID
5
9
100
AcDbSymbolTable
70
2
0
APPID
5
12
100
AcDbSymbolTableRecord
100
AcDbRegAppTableRecord
2
ACAD
70
0
0
ENDTAB
0
TABLE
2
DIMSTYLE
5
A
100
AcDbSymbolTable
70
1
0
ENDTAB
0
TABLE
2
BLOCK_RECORD
5
1
100
AcDbSymbolTable
70
1
0
BLOCK_RECORD
5
1F
100
AcDbSymbolTableRecord
100
AcDbBlockTableRecord
2
*MODEL_SPACE
0
BLOCK_RECORD
5
1B
100
AcDbSymbolTableRecord
100
AcDbBlockTableRecord
2
*PAPER_SPACE
0
ENDTAB
0
ENDSEC
0
SECTION
2
BLOCKS
0
BLOCK
5
20
100
AcDbEntity
100
AcDbBlockBegin
2
*MODEL_SPACE
0
ENDBLK
5
21
100
AcDbEntity
100
AcDbBlockEnd
0
BLOCK
5
1C
100
AcDbEntity
100
AcDbBlockBegin
2
*PAPER_SPACE
0
ENDBLK
5
1D
100
AcDbEntity
100
AcDbBlockEnd
0
ENDSEC
0
SECTION
2
ENTITIES
0
LINE
5
100
100
AcDbEntity
8
0
100
AcDbLine
10
9.1205166672963838
20
-15.183030787367661
30
0
11
10.002220320064962
21
-15.183030787367661
31
0
0
SPLINE
5
101
100
AcDbEntity
8
0
100
AcDbSpline
70
4
71
5
72
41
73
35
74
0
42
0.000000001
43
0.0000000001
44
0.0000000001
40
0
40
0
40
0
40
0
40
0
40
0
40
0.033333333333333333
40
0.066666666666666666
40
0.10000000000000001
40
0.13333333333333333
40
0.16666666666666666
40
0.20000000000000001
40
0.23333333333333331
40
0.26666666666666666
40
0.29999999999999999
40
0.33333333333333331
40
0.36666666666666647
40
0.40000000000000002
40
0.43333333333333329
40
0.46666666666666662
40
0.5
40
0.53333333333333333
40
0.56666666666666665
40
0.59999999999999998
40
0.6333333333333333
40
0.66666666666666663
40
0.69999999999999996
40
0.73333333333333295
40
0.76666666666666661
40
0.79999999999999982
40
0.83333333333333315
40
0.8666666666666667
40
0.8999999999999998
40
0.93333333333333324
40
0.96666666666666645
40
1
40
1
40
1
40
1
40
1
40
1
41
1
41
1
41
1
41
1
41
1
41
1
41
1
41
1
41
1
41
1
41
1
41
1
41
1
41
1
41
1
41
1
41
1
41
1
41
1
41
1
41
1
41
1
41
1
41
1
41
1
41
1
41
1
41
1
41
1
41
1
41
1
41
1
41
1
41
1
41
1
10
0
20
-5.2801827581101444
30
0
10
0.048116262816793119
20
-5.2801827581101444
30
0
10
0.14956794998900474
20
-5.2806497805585728
30
0
10
0.31740278081319212
20
-5.2827512737207591
30
0
10
0.57247421835024392
20
-5.2893279066266636
30
0
10
0.94225781172980083
20
-5.3092981398500552
30
0
10
1.3596195985664974
20
-5.3477135790396479
30
0
10
1.8179271270589825
20
-5.4106615543461452
30
0
10
2.3063326430854083
20
-5.5019069741007449
30
0
10
2.8083202353049947
20
-5.6208077717094174
30
0
10
3.3042929422986238
20
-5.7632105670238563
30
0
10
3.7749146654737693
20
-5.9228640682253166
30
0
10
4.2040641438917508
20
-6.0925951129438882
30
0
10
4.582243683649506
20
-6.2656457568650268
30
0
10
4.9092162189769839
20
-6.43676344282758
30
0
10
5.1986275543799634
20
-6.6038455787672943
30
0
10
5.4744537393484238
20
-6.7672877653601766
30
0
10
5.7628983996919256
20
-6.9280414899284448
30
0
10
6.0852247822559367
20
-7.0859633699652775
30
0
10
6.4512500042911114
20
-7.238281492034254
30
0
10
6.849774247115139
20
-7.3773842635194029
30
0
10
7.2550025772789928
20
-7.4922812935760419
30
0
10
7.638176655239298
20
-7.571406696855596
30
0
10
7.9797538401818668
20
-7.6052685263441466
30
0
10
8.2762778896906255
20
-7.5885382178026592
30
0
10
8.563267249828332
20
-7.5240757411425445
30
0
10
8.8444297613132914
20
-7.4169380849873043
30
0
10
9.1067655309226545
20
-7.2729609319092461
30
0
10
9.3301505524127677
20
-7.0976309645629261
30
0
10
9.4988986189421869
20
-6.8947324356474526
30
0
10
9.6112620392333916
20
-6.6652670383104873
30
0
10
9.6606512229086317
20
-6.4599515989021192
30
0
10
9.6784988962875449
20
-6.2931862441855522
30
0
10
9.6824648347234525
20
-6.1762293078722408
30
0
10
9.6824648347234525
20
-6.1163058076306553
30
0
0
ARC
5
102
100
AcDbEntity
8
0
100
AcDbCircle
10
8.9019866602317688
20
-13.114056653458405
30
0
40
0.717745103520811
210
0
220
-0
230
1
100
AcDbArc
50
89.284829228475132
51
180
0
SPLINE
5
103
100
AcDbEntity
8
0
100
AcDbSpline
70
4
71
5
72
36
73
30
74
0
42
0.000000001
43
0.0000000001
44
0.0000000001
40
0
40
0
40
0
40
0
40
0
40
0
40
0.040000000000000001
40
0.080000000000000002
40
0.12
40
0.16
40
0.20000000000000001
40
0.23999999999999999
40
0.28000000000000003
40
0.32000000000000001
40
0.35999999999999999
40
0.40000000000000002
40
0.44
40
0.47999999999999993
40
0.51999999999999991
40
0.56000000000000005
40
0.59999999999999998
40
0.64000000000000001
40
0.68000000000000005
40
0.72000000000000008
40
0.76000000000000023
40
0.80000000000000016
40
0.8400000000000003
40
0.88000000000000023
40
0.92000000000000004
40
0.96000000000000041
40
1
40
1
40
1
40
1
40
1
40
1
41
1
41
1
41
1
41
1
41
1
41
1
41
1
41
1
41
1
41
1
41
1
41
1
41
1
41
1
41
1
41
1
41
1
41
1
41
1
41
1
41
1
41
1
41
1
41
1
41
1
41
1
41
1
41
1
41
1
41
1
10
3.4694469519536142e-17
20
-6.0801827402287518
30
0
10
0.13422578369150184
20
-6.0801827402287518
30
0
10
0.39824558229746232
20
-6.0832404474049939
30
0
10
0.78097995003173504
20
-6.0970000967943783
30
0
10
1.2646570527729764
20
-6.1333989876857551
30
0
10
1.8248423004454528
20
-6.207094841844385
30
0
10
2.3410305921489423
20
-6.3062360893820157
30
0
10
2.8144103695190208
20
-6.4274831855556211
30
0
10
3.2473420767845562
20
-6.5671833202447605
30
0
10
3.6436943408639841
20
-6.7216040672995625
30
0
10
4.0094135951665608
20
-6.8872376652594349
30
0
10
4.3522371418782724
20
-7.0607794408988047
30
0
10
4.6808675276374698
20
-7.2389128139559764
30
0
10
5.0043199865694312
20
-7.4181232287608321
30
0
10
5.3312348420880884
20
-7.5945532964345572
30
0
10
5.6691494834719833
20
-7.7636935697330216
30
0
10
6.0240124472969629
20
-7.9207888190954456
30
0
10
6.3997570043650871
20
-8.0617065492981901
30
0
10
6.7979928383868238
20
-8.1836953583601222
30
0
10
7.2172587263714538
20
-8.2861645158342014
30
0
10
7.6532613975078032
20
-8.3715991405728296
30
0
10
8.0962079782362277
20
-8.4457990628514246
30
0
10
8.5306254044740157
20
-8.5165083224032188
30
0
10
8.9268598734705016
20
-8.5939734693726884
30
0
10
9.2524063901567075
20
-8.687562928896206
30
0
10
9.4342415840409259
20
-8.8118455676133305
30
0
10
9.4824470466278807
20
-8.9296811487552663
30
0
10
9.496777708996003
20
-9.0201622532942398
30
0
10
9.5025560158228508
20
-9.0799594010795843
30
0
10
9.5045145976055387
20
-9.1097246177901798
30
0
0
LINE
5
104
100
AcDbEntity
8
0
100
AcDbLine
10
10.946549890792685
20
-3.2342189420228906
30
0
11
10.946549890792685
21
-14.214056628871489
31
0
0
LINE
5
105
100
AcDbEntity
8
0
100
AcDbLine
10
8.9109453827544858
20
-12.396367462430103
30
0
11
9.1499997954815608
21
-12.396367462430105
31
0
0
SPLINE
5
106
100
AcDbEntity
8
0
100
AcDbSpline
70
4
71
5
72
36
73
30
74
0
42
0.000000001
43
0.0000000001
44
0.0000000001
40
0
40
0
40
0
40
0
40
0
40
0
40
0.040000000000000001
40
0.080000000000000002
40
0.12
40
0.16
40
0.20000000000000001
40
0.23999999999999999
40
0.28000000000000003
40
0.32000000000000001
40
0.35999999999999999
40
0.40000000000000002
40
0.44
40
0.47999999999999993
40
0.51999999999999991
40
0.56000000000000005
40
0.59999999999999998
40
0.64000000000000001
40
0.68000000000000005
40
0.72000000000000008
40
0.76000000000000023
40
0.80000000000000016
40
0.8400000000000003
40
0.88000000000000023
40
0.92000000000000004
40
0.96000000000000041
40
1
40
1
40
1
40
1
40
1
40
1
41
1
41
1
41
1
41
1
41
1
41
1
41
1
41
1
41
1
41
1
41
1
41
1
41
1
41
1
41
1
41
1
41
1
41
1
41
1
41
1
41
1
41
1
41
1
41
1
41
1
41
1
41
1
41
1
41
1
41
1
10
9.6824648347234525
20
-3.6301827949905201
30
0
10
9.6785026794273463
20
-3.5590664448842277
30
0
10
9.6652694514049706
20
-3.417229617981679
30
0
10
9.6294925218317839
20
-3.2056617344174199
30
0
10
9.5498555677069827
20
-2.9259544031424007
30
0
10
9.3971879136762588
20
-2.5807463290005144
30
0
10
9.1926138008679192
20
-2.2413092476878465
30
0
10
8.939132365263136
20
-1.9102188287978119
30
0
10
8.6426181303425018
20
-1.5919223471010913
30
0
10
8.3111462205115298
20
-1.2920377766314706
30
0
10
7.95347817209041
20
-1.0160191255832669
30
0
10
7.5777941291032214
20
-0.76795908951787717
30
0
10
7.1904301075818813
20
-0.54943850690220386
30
0
10
6.7943553728776793
20
-0.35799520517949041
30
0
10
6.389731589395474
20
-0.18827600739519776
30
0
10
5.974943232239899
20
-0.033774398309739863
30
0
10
5.547457150226597
20
0.11162963650741937
30
0
10
5.1047248472378817
20
0.25212339797741012
30
0
10
4.6451237581379337
20
0.38822528140130053
30
0
10
4.168057204380089
20
0.51774557939396515
30
0
10
3.6739656698886818
20
0.63697788342977191
30
0
10
3.1644097711540287
20
0.74184041547364754
30
0
10
2.6420951393350567
20
0.8289221006863885
30
0
10
2.111061185959672
20
0.89686061124284955
30
0
10
1.5762865755968749
20
0.94634405893575357
30
0
10
1.0428926411286461
20
0.97915524834078815
30
0
10
0.62095532674394627
20
0.99384777728486484
30
0
10
0.30869030627876348
20
0.99922515528812206
30
0
10
0.10255632225368544
20
1.0004201519905838
30
0
10
0
20
1.0004201519905838
30
0
0
LINE
5
107
100
AcDbEntity
8
0
100
AcDbLine
10
8.1842415567109548
20
-14.214056628871489
30
0
11
8.1842415567109583
21
-13.114056653458405
31
0
0
ARC
5
108
100
AcDbEntity
8
0
100
AcDbCircle
10
9.1499997954815608
20
-11.861894775309448
30
0
40
0.53447268712065954
210
0
220
0
230
1
100
AcDbArc
50
-90
51
4.2355892908832597
0
ARC
5
109
100
AcDbEntity
8
0
100
AcDbCircle
10
9.1537867160391322
20
-14.214056628871489
30
0
40
0.96954515932817897
210
0
220
0
230
1
100
AcDbArc
50
180
51
268.03350296374634
0
SPLINE
5
110
100
AcDbEntity
8
0
100
AcDbSpline
70
4
71
5
72
21
73
15
74
0
42
0.000000001
43
0.0000000001
44
0.0000000001
40
0
40
0
40
0
40
0
40
0
40
0
40
0.10000000000000001
40
0.20000000000000001
40
0.30000000000000004
40
0.40000000000000002
40
0.5
40
0.59999999999999998
40
0.69999999999999996
40
0.79999999999999982
40
0.8999999999999998
40
1
40
1
40
1
40
1
40
1
40
1
41
1
41
1
41
1
41
1
41
1
41
1
41
1
41
1
41
1
41
1
41
1
41
1
41
1
41
1
41
1
10
0
20
2.7914663493645202
30
0
10
0.2493072855529159
20
2.7868231411979489
30
0
10
0.75559381112153789
20
2.7694441473752835
30
0
10
1.5380559109075493
20
2.7191094594448479
30
0
10
2.6280197365111047
20
2.6025659092177906
30
0
10
4.0644187380454868
20
2.3665000023775167
30
0
10
5.551537995766048
20
2.0230737012946967
30
0
10
7.0390102041456704
20
1.5489108352760477
30
0
10
8.4219295802453207
20
0.90667054437962136
30
0
10
9.5505874434934217
20
0.064020180488057549
30
0
10
10.37289145570684
20
-0.94159478146509956
30
0
10
10.766580865435962
20
-1.8335051032075844
30
0
10
10.91383772440722
20
-2.5272009835099607
30
0
10
10.946549890792685
20
-2.9972807564699586
30
0
10
10.946549890792685
20
-3.2342189420228906
30
0
0
ARC
5
111
100
AcDbEntity
8
0
100
AcDbCircle
10
10.002220320064962
20
-14.238387815244788
30
0
40
0.94464297212287107
210
0
220
0
230
1
100
AcDbArc
50
-90
51
1.4759316701013845
0
LINE
5
112
100
AcDbEntity
8
0
100
AcDbLine
10
9.6824648347234525
20
-6.1163058076306553
30
0
11
9.6824648347234525
21
-3.6301827949905201
31
0
0
LINE
5
113
100
AcDbEntity
8
0
100
AcDbLine
10
9.5045145976055387
20
-9.1097246177901798
30
0
11
9.6830127270060995
21
-11.822419870552158
31
0
0
LINE
5
114
100
AcDbEntity
8
0
100
AcDbLine
10
0
20
2.5
30
0
11
0
21
20
31
0
0
LINE
5
115
100
AcDbEntity
8
0
100
AcDbLine
10
-8.1842415567109548
20
-14.214056628871489
30
0
11
-8.1842415567109583
21
-13.114056653458405
31
0
0
ARC
5
116
100
AcDbEntity
8
0
100
AcDbCircle
10
-9.1499997954815608
20
-11.861894775309448
30
0
40
0.53447268712065987
210
0
220
0
230
1
100
AcDbArc
50
175.76441070911676
51
270
0
ARC
5
117
100
AcDbEntity
8
0
100
AcDbCircle
10
-10.002220320064962
20
-14.238387815244788
30
0
40
0.94464297212287351
210
0
220
0
230
1
100
AcDbArc
50
178.52406832989863
51
270
0
LINE
5
118
100
AcDbEntity
8
0
100
AcDbLine
10
-9.5045145976055387
20
-9.1097246177901798
30
0
11
-9.6830127270060995
21
-11.822419870552158
31
0
0
LINE
5
119
100
AcDbEntity
8
0
100
AcDbLine
10
-9.1205166672963838
20
-15.183030787367661
30
0
11
-10.002220320064962
21
-15.183030787367661
31
0
0
LINE
5
120
100
AcDbEntity
8
0
100
AcDbLine
10
-10.946549890792685
20
-3.2342189420228906
30
0
11
-10.946549890792685
21
-14.214056628871489
31
0
0
ARC
5
121
100
AcDbEntity
8
0
100
AcDbCircle
10
-8.9019866602317688
20
-13.114056653458405
30
0
40
0.71774510352081045
210
0
220
-0
230
1
100
AcDbArc
50
0
51
90.715170771524853
0
SPLINE
5
122
100
AcDbEntity
8
0
100
AcDbSpline
70
4
71
5
72
36
73
30
74
0
42
0.000000001
43
0.0000000001
44
0.0000000001
40
0
40
0
40
0
40
0
40
0
40
0
40
0.040000000000000001
40
0.080000000000000002
40
0.12
40
0.16
40
0.20000000000000001
40
0.23999999999999999
40
0.28000000000000003
40
0.32000000000000001
40
0.35999999999999999
40
0.40000000000000002
40
0.44
40
0.47999999999999993
40
0.51999999999999991
40
0.56000000000000005
40
0.59999999999999998
40
0.64000000000000001
40
0.68000000000000005
40
0.72000000000000008
40
0.76000000000000023
40
0.80000000000000016
40
0.8400000000000003
40
0.88000000000000023
40
0.92000000000000004
40
0.96000000000000041
40
1
40
1
40
1
40
1
40
1
40
1
41
1
41
1
41
1
41
1
41
1
41
1
41
1
41
1
41
1
41
1
41
1
41
1
41
1
41
1
41
1
41
1
41
1
41
1
41
1
41
1
41
1
41
1
41
1
41
1
41
1
41
1
41
1
41
1
41
1
41
1
10
-9.6824648347234525
20
-3.6301827949905201
30
0
10
-9.6785026794273463
20
-3.5590664448842277
30
0
10
-9.6652694514049706
20
-3.417229617981679
30
0
10
-9.6294925218317839
20
-3.2056617344174199
30
0
10
-9.5498555677069827
20
-2.9259544031424007
30
0
10
-9.3971879136762588
20
-2.5807463290005144
30
0
10
-9.1926138008679192
20
-2.2413092476878465
30
0
10
-8.939132365263136
20
-1.9102188287978119
30
0
10
-8.6426181303425018
20
-1.5919223471010913
30
0
10
-8.3111462205115298
20
-1.2920377766314706
30
0
10
-7.95347817209041
20
-1.0160191255832669
30
0
10
-7.5777941291032214
20
-0.76795908951787717
30
0
10
-7.1904301075818813
20
-0.54943850690220386
30
0
10
-6.7943553728776793
20
-0.35799520517949041
30
0
10
-6.389731589395474
20
-0.18827600739519776
30
0
10
-5.974943232239899
20
-0.033774398309739863
30
0
10
-5.547457150226597
20
0.11162963650741937
30
0
10
-5.1047248472378817
20
0.25212339797741012
30
0
10
-4.6451237581379337
20
0.38822528140130053
30
0
10
-4.168057204380089
20
0.51774557939396515
30
0
10
-3.6739656698886818
20
0.63697788342977191
30
0
10
-3.1644097711540287
20
0.74184041547364754
30
0
10
-2.6420951393350567
20
0.8289221006863885
30
0
10
-2.111061185959672
20
0.89686061124284955
30
0
10
-1.5762865755968749
20
0.94634405893575357
30
0
10
-1.0428926411286461
20
0.97915524834078815
30
0
10
-0.62095532674394627
20
0.99384777728486484
30
0
10
-0.30869030627876348
20
0.99922515528812206
30
0
10
-0.10255632225368544
20
1.0004201519905838
30
0
10
0
20
1.0004201519905838
30
0
0
LINE
5
123
100
AcDbEntity
8
0
100
AcDbLine
10
-9.6824648347234525
20
-6.1163058076306553
30
0
11
-9.6824648347234525
21
-3.6301827949905197
31
0
0
SPLINE
5
124
100
AcDbEntity
8
0
100
AcDbSpline
70
4
71
5
72
21
73
15
74
0
42
0.000000001
43
0.0000000001
44
0.0000000001
40
0
40
0
40
0
40
0
40
0
40
0
40
0.10000000000000001
40
0.20000000000000001
40
0.30000000000000004
40
0.40000000000000002
40
0.5
40
0.59999999999999998
40
0.69999999999999996
40
0.79999999999999982
40
0.8999999999999998
40
1
40
1
40
1
40
1
40
1
40
1
41
1
41
1
41
1
41
1
41
1
41
1
41
1
41
1
41
1
41
1
41
1
41
1
41
1
41
1
41
1
10
0
20
2.7914663493645202
30
0
10
-0.2493072855529159
20
2.7868231411979489
30
0
10
-0.75559381112153789
20
2.7694441473752835
30
0
10
-1.5380559109075493
20
2.7191094594448479
30
0
10
-2.6280197365111047
20
2.6025659092177906
30
0
10
-4.0644187380454868
20
2.3665000023775167
30
0
10
-5.551537995766048
20
2.0230737012946967
30
0
10
-7.0390102041456704
20
1.5489108352760477
30
0
10
-8.4219295802453207
20
0.90667054437962136
30
0
10
-9.5505874434934217
20
0.064020180488057549
30
0
10
-10.37289145570684
20
-0.94159478146509956
30
0
10
-10.766580865435962
20
-1.8335051032075844
30
0
10
-10.91383772440722
20
-2.5272009835099607
30
0
10
-10.946549890792685
20
-2.9972807564699586
30
0
10
-10.946549890792685
20
-3.2342189420228906
30
0
0
SPLINE
5
125
100
AcDbEntity
8
0
100
AcDbSpline
70
4
71
5
72
41
73
35
74
0
42
0.000000001
43
0.0000000001
44
0.0000000001
40
0
40
0
40
0
40
0
40
0
40
0
40
0.033333333333333333
40
0.066666666666666666
40
0.10000000000000001
40
0.13333333333333333
40
0.16666666666666666
40
0.20000000000000001
40
0.23333333333333331
40
0.26666666666666666
40
0.29999999999999999
40
0.33333333333333331
40
0.36666666666666647
40
0.40000000000000002
40
0.43333333333333329
40
0.46666666666666662
40
0.5
40
0.53333333333333333
40
0.56666666666666665
40
0.59999999999999998
40
0.6333333333333333
40
0.66666666666666663
40
0.69999999999999996
40
0.73333333333333295
40
0.76666666666666661
40
0.79999999999999982
40
0.83333333333333315
40
0.8666666666666667
40
0.8999999999999998
40
0.93333333333333324
40
0.96666666666666645
40
1
40
1
40
1
40
1
40
1
40
1
41
1
41
1
41
1
41
1
41
1
41
1
41
1
41
1
41
1
41
1
41
1
41
1
41
1
41
1
41
1
41
1
41
1
41
1
41
1
41
1
41
1
41
1
41
1
41
1
41
1
41
1
41
1
41
1
41
1
41
1
41
1
41
1
41
1
41
1
41
1
10
0
20
-5.2801827581101444
30
0
10
-0.048116262816793119
20
-5.2801827581101444
30
0
10
-0.14956794998900474
20
-5.2806497805585728
30
0
10
-0.31740278081319212
20
-5.2827512737207591
30
0
10
-0.57247421835024392
20
-5.2893279066266636
30
0
10
-0.94225781172980083
20
-5.3092981398500552
30
0
10
-1.3596195985664974
20
-5.3477135790396479
30
0
10
-1.8179271270589825
20
-5.4106615543461452
30
0
10
-2.3063326430854083
20
-5.5019069741007449
30
0
10
-2.8083202353049947
20
-5.6208077717094174
30
0
10
-3.3042929422986238
20
-5.7632105670238563
30
0
10
-3.7749146654737693
20
-5.9228640682253166
30
0
10
-4.2040641438917508
20
-6.0925951129438882
30
0
10
-4.582243683649506
20
-6.2656457568650268
30
0
10
-4.9092162189769839
20
-6.43676344282758
30
0
10
-5.1986275543799634
20
-6.6038455787672943
30
0
10
-5.4744537393484238
20
-6.7672877653601766
30
0
10
-5.7628983996919256
20
-6.9280414899284448
30
0
10
-6.0852247822559367
20
-7.0859633699652775
30
0
10
-6.4512500042911114
20
-7.238281492034254
30
0
10
-6.849774247115139
20
-7.3773842635194029
30
0
10
-7.2550025772789928
20
-7.4922812935760419
30
0
10
-7.638176655239298
20
-7.571406696855596
30
0
10
-7.9797538401818668
20
-7.6052685263441466
30
0
10
-8.2762778896906255
20
-7.5885382178026592
30
0
10
-8.563267249828332
20
-7.5240757411425445
30
0
10
-8.8444297613132914
20
-7.4169380849873043
30
0
10
-9.1067655309226545
20
-7.2729609319092461
30
0
10
-9.3301505524127677
20
-7.0976309645629261
30
0
10
-9.4988986189421869
20
-6.8947324356474526
30
0
10
-9.6112620392333916
20
-6.6652670383104873
30
0
10
-9.6606512229086317
20
-6.4599515989021192
30
0
10
-9.6784988962875449
20
-6.2931862441855522
30
0
10
-9.6824648347234525
20
-6.1762293078722408
30
0
10
-9.6824648347234525
20
-6.1163058076306553
30
0
0
LINE
5
126
100
AcDbEntity
8
0
100
AcDbLine
10
-8.9109453827544858
20
-12.396367462430103
30
0
11
-9.1499997954815608
21
-12.396367462430105
31
0
0
SPLINE
5
127
100
AcDbEntity
8
0
100
AcDbSpline
70
4
71
5
72
36
73
30
74
0
42
0.000000001
43
0.0000000001
44
0.0000000001
40
0
40
0
40
0
40
0
40
0
40
0
40
0.040000000000000001
40
0.080000000000000002
40
0.12
40
0.16
40
0.20000000000000001
40
0.23999999999999999
40
0.28000000000000003
40
0.32000000000000001
40
0.35999999999999999
40
0.40000000000000002
40
0.44
40
0.47999999999999993
40
0.51999999999999991
40
0.56000000000000005
40
0.59999999999999998
40
0.64000000000000001
40
0.68000000000000005
40
0.72000000000000008
40
0.76000000000000023
40
0.80000000000000016
40
0.8400000000000003
40
0.88000000000000023
40
0.92000000000000004
40
0.96000000000000041
40
1
40
1
40
1
40
1
40
1
40
1
41
1
41
1
41
1
41
1
41
1
41
1
41
1
41
1
41
1
41
1
41
1
41
1
41
1
41
1
41
1
41
1
41
1
41
1
41
1
41
1
41
1
41
1
41
1
41
1
41
1
41
1
41
1
41
1
41
1
41
1
10
-3.4694469519536142e-17
20
-6.0801827402287518
30
0
10
-0.13422578369150184
20
-6.0801827402287518
30
0
10
-0.39824558229746232
20
-6.0832404474049939
30
0
10
-0.78097995003173504
20
-6.0970000967943783
30
0
10
-1.2646570527729764
20
-6.1333989876857551
30
0
10
-1.8248423004454528
20
-6.207094841844385
30
0
10
-2.3410305921489423
20
-6.3062360893820157
30
0
10
-2.8144103695190208
20
-6.4274831855556211
30
0
10
-3.2473420767845562
20
-6.5671833202447605
30
0
10
-3.6436943408639841
20
-6.7216040672995625
30
0
10
-4.0094135951665608
20
-6.8872376652594349
30
0
10
-4.3522371418782724
20
-7.0607794408988047
30
0
10
-4.6808675276374698
20
-7.2389128139559764
30
0
10
-5.0043199865694312
20
-7.4181232287608321
30
0
10
-5.3312348420880884
20
-7.5945532964345572
30
0
10
-5.6691494834719833
20
-7.7636935697330216
30
0
10
-6.0240124472969629
20
-7.9207888190954456
30
0
10
-6.3997570043650871
20
-8.0617065492981901
30
0
10
-6.7979928383868238
20
-8.1836953583601222
30
0
10
-7.2172587263714538
20
-8.2861645158342014
30
0
10
-7.6532613975078032
20
-8.3715991405728296
30
0
10
-8.0962079782362277
20
-8.4457990628514246
30
0
10
-8.5306254044740157
20
-8.5165083224032188
30
0
10
-8.9268598734705016
20
-8.5939734693726884
30
0
10
-9.2524063901567075
20
-8.687562928896206
30
0
10
-9.4342415840409259
20
-8.8118455676133305
30
0
10
-9.4824470466278807
20
-8.9296811487552663
30
0
10
-9.496777708996003
20
-9.0201622532942398
30
0
10
-9.5025560158228508
20
-9.0799594010795843
30
0
10
-9.5045145976055387
20
-9.1097246177901798
30
0
0
ARC
5
128
100
AcDbEntity
8
0
100
AcDbCircle
10
-9.1537867160391322
20
-14.214056628871489
30
0
40
0.96954515932818175
210
0
220
0
230
1
100
AcDbArc
50
-88.033502963746358
51
0
0
ENDSEC
0
SECTION
2
OBJECTS
0
DICTIONARY
5
C
100
AcDbDictionary
3
ACAD_GROUP
350
D
3
ACAD_MLINESTYLE
350
17
0
DICTIONARY
5
D
100
AcDbDictionary
0
DICTIONARY
5
1A
330
C
100
AcDbDictionary
0
DICTIONARY
5
17
100
AcDbDictionary
0
ENDSEC
0
EOF
