0
SECTION
2
HEADER
9
$INSUNITS
70
4
9
$ACADVER
1
AC1014
9
$HANDSEED
5
FFFF
0
ENDSEC
0
SECTION
2
TABLES
0
TABLE
2
VPORT
5
8
100
AcDbSymbolTable
0
ENDTAB
0
TABLE
2
LTYPE
5
5
100
AcDbSymbolTable
0
LTYPE
5
14
100
AcDbSymbolTableRecord
100
AcDbLinetypeTableRecord
2
BYBLOCK
70
0
0
LTYPE
5
15
100
AcDbSymbolTableRecord
100
AcDbLinetypeTableRecord
2
BYLAYER
70
0
0
ENDTAB
0
TABLE
2
LAYER
5
2
100
AcDbSymbolTable
70
2
0
LAYER
5
50
100
AcDbSymbolTableRecord
100
AcDbLayerTableRecord
2
0
70
0
6
CONTINUOUS
0
ENDTAB
0
TABLE
2
STYLE
5
3
100
AcDbSymbolTable
70
1
0
STYLE
5
11
100
AcDbSymbolTableRecord
100
AcDbTextStyleTableRecord
2
STANDARD
70
0
0
ENDTAB
0
TABLE
2
VIEW
5
6
100
AcDbSymbolTable
70
0
0
ENDTAB
0
TABLE
2
UCS
5
7
100
AcDbSymbolTable
70
0
0
ENDTAB
0
TABLE
2
APPID
5
9
100
AcDbSymbolTable
70
2
0
APPID
5
12
100
AcDbSymbolTableRecord
100
AcDbRegAppTableRecord
2
ACAD
70
0
0
ENDTAB
0
TABLE
2
DIMSTYLE
5
A
100
AcDbSymbolTable
70
1
0
ENDTAB
0
TABLE
2
BLOCK_RECORD
5
1
100
AcDbSymbolTable
70
1
0
BLOCK_RECORD
5
1F
100
AcDbSymbolTableRecord
100
AcDbBlockTableRecord
2
*MODEL_SPACE
0
BLOCK_RECORD
5
1B
100
AcDbSymbolTableRecord
100
AcDbBlockTableRecord
2
*PAPER_SPACE
0
ENDTAB
0
ENDSEC
0
SECTION
2
BLOCKS
0
BLOCK
5
20
100
AcDbEntity
100
AcDbBlockBegin
2
*MODEL_SPACE
0
ENDBLK
5
21
100
AcDbEntity
100
AcDbBlockEnd
0
BLOCK
5
1C
100
AcDbEntity
100
AcDbBlockBegin
2
*PAPER_SPACE
0
ENDBLK
5
1D
100
AcDbEntity
100
AcDbBlockEnd
0
ENDSEC
0
SECTION
2
ENTITIES
0
LINE
5
100
100
AcDbEntity
8
0
100
AcDbLine
10
13.499999698251486
20
-2.9999999329447746
30
0
11
13.499999698251486
21
-14.999999664723873
31
0
0
LINE
5
101
100
AcDbEntity
8
0
100
AcDbLine
10
11.98707608131385
20
-13.978129273673952
30
0
11
11.98707608131385
21
-11.699999738484621
31
0
0
LINE
5
102
100
AcDbEntity
8
0
100
AcDbLine
10
11.056848806588718
20
-10.821603956687456
30
0
11
8.0200736528295877
21
-10.804117727395177
31
0
0
LINE
5
103
100
AcDbEntity
8
0
100
AcDbLine
10
7.9178517168947726
20
-10.036424877264853
30
0
11
11.220415615617183
21
-9.9014189007708779
31
0
0
LINE
5
104
100
AcDbEntity
8
0
100
AcDbLine
10
11.990990839167402
20
-9.0331257732125039
30
0
11
11.990990839167402
21
-3.2999999262392521
31
0
0
SPLINE
5
105
100
AcDbEntity
8
0
100
AcDbSpline
70
4
71
5
72
21
73
15
74
0
42
0.000000001
43
0.0000000001
44
0.0000000001
40
0
40
0
40
0
40
0
40
0
40
0
40
0.10000000000000001
40
0.20000000000000001
40
0.30000000000000004
40
0.40000000000000002
40
0.5
40
0.59999999999999998
40
0.69999999999999996
40
0.79999999999999993
40
0.89999999999999991
40
1
40
1
40
1
40
1
40
1
40
1
41
1
41
1
41
1
41
1
41
1
41
1
41
1
41
1
41
1
41
1
41
1
41
1
41
1
41
1
41
1
10
0
20
2.9999999329447746
30
0
10
0.42755348462321818
20
2.9999999329447746
30
0
10
1.2541019199172223
20
2.9908375554016233
30
0
10
2.4082485194839354
20
2.9496072215347868
30
0
10
3.8019406930386888
20
2.8471065221783332
30
0
10
5.427874454034523
20
2.6679355783414045
30
0
10
7.0613557155223026
20
2.4497881622762039
30
0
10
8.7584409107411201
20
2.1617083456083206
30
0
10
10.449485687501948
20
1.7042614857516094
30
0
10
11.838265755358927
20
0.86569259184231417
30
0
10
12.831455258347791
20
-0.29919431544478076
30
0
10
13.29230954603333
20
-1.3781120471840536
30
0
10
13.462252644209125
20
-2.1955924516415681
30
0
10
13.499999698251486
20
-2.7331185607321622
30
0
10
13.499999698251486
20
-2.9999999329447746
30
0
0
SPLINE
5
106
100
AcDbEntity
8
0
100
AcDbSpline
70
4
71
5
72
21
73
15
74
0
42
0.000000001
43
0.0000000001
44
0.0000000001
40
0
40
0
40
0
40
0
40
0
40
0
40
0.10000000000000001
40
0.20000000000000001
40
0.30000000000000004
40
0.40000000000000002
40
0.5
40
0.59999999999999998
40
0.69999999999999996
40
0.79999999999999993
40
0.89999999999999991
40
1
40
1
40
1
40
1
40
1
40
1
41
1
41
1
41
1
41
1
41
1
41
1
41
1
41
1
41
1
41
1
41
1
41
1
41
1
41
1
41
1
10
0
20
0.99999997764825821
30
0
10
0.38379581209975006
20
0.99999997764825821
30
0
10
1.1343884573500216
20
0.98952755651718738
30
0
10
2.2092791247094818
20
0.94235817241187103
30
0
10
3.5473159480492269
20
0.82703127324802561
30
0
10
5.0936564968898672
20
0.63947085089300304
30
0
10
6.5463583843531801
20
0.44927989381473971
30
0
10
7.9223979785307783
20
0.2513166982921235
30
0
10
9.2129816523676418
20
-0.0011146764835928778
30
0
10
10.360590639688025
20
-0.51428161897690572
30
0
10
11.280335120338922
20
-1.308464434371996
30
0
10
11.763237517754298
20
-2.0855897468673241
30
0
10
11.949577977689076
20
-2.6919842426102116
30
0
10
11.990990839167399
20
-3.0971690630793862
30
0
10
11.990990839167402
20
-3.2999999262392521
30
0
0
SPLINE
5
107
100
AcDbEntity
8
0
100
AcDbSpline
70
4
71
5
72
21
73
15
74
0
42
0.000000001
43
0.0000000001
44
0.0000000001
40
0
40
0
40
0
40
0
40
0
40
0
40
0.10000000000000001
40
0.20000000000000001
40
0.30000000000000004
40
0.40000000000000002
40
0.5
40
0.59999999999999998
40
0.69999999999999996
40
0.79999999999999993
40
0.89999999999999991
40
1
40
1
40
1
40
1
40
1
40
1
41
1
41
1
41
1
41
1
41
1
41
1
41
1
41
1
41
1
41
1
41
1
41
1
41
1
41
1
41
1
10
0
20
-7.2999998368322849
30
0
10
0.29593618928695464
20
-7.2999998368322849
30
0
10
0.87460834745027394
20
-7.3173722844936373
30
0
10
1.70301698479143
20
-7.3955439533349079
30
0
10
2.728639636500219
20
-7.5969016603768225
30
0
10
3.8783228820564384
20
-7.9705174655774114
30
0
10
4.8921459346685117
20
-8.4142902927789471
30
0
10
5.7639840194985039
20
-8.8726572342563657
30
0
10
6.4873228963947209
20
-9.2938743336690646
30
0
10
7.0579811652186901
20
-9.6360861166509757
30
0
10
7.481898632698333
20
-9.8780965663220606
30
0
10
7.7152675944512596
20
-9.9898934462267146
30
0
10
7.8366787348464744
20
-10.029775583508583
30
0
10
7.894626939473536
20
-10.037374286224306
30
0
10
7.9178517168947726
20
-10.036424877264853
30
0
0
SPLINE
5
108
100
AcDbEntity
8
0
100
AcDbSpline
70
4
71
5
72
26
73
20
74
0
42
0.000000001
43
0.0000000001
44
0.0000000001
40
0
40
0
40
0
40
0
40
0
40
0
40
0.066666666666666666
40
0.13333333333333333
40
0.20000000000000001
40
0.26666666666666666
40
0.33333333333333331
40
0.39999999999999997
40
0.46666666666666662
40
0.53333333333333333
40
0.59999999999999998
40
0.66666666666666663
40
0.73333333333333328
40
0.79999999999999993
40
0.86666666666666659
40
0.93333333333333324
40
1
40
1
40
1
40
1
40
1
40
1
41
1
41
1
41
1
41
1
41
1
41
1
41
1
41
1
41
1
41
1
41
1
41
1
41
1
41
1
41
1
41
1
41
1
41
1
41
1
41
1
10
0
20
-8.0999998189508915
30
0
10
0.3106268093383604
20
-8.0999998189508915
30
0
10
0.91437267706729042
20
-8.1158264108324492
30
0
10
1.7674685945449986
20
-8.1870451500867087
30
0
10
2.8002648678112143
20
-8.372185862040574
30
0
10
3.9190307169896226
20
-8.7247090414370536
30
0
10
4.8688610499135967
20
-9.1577556957471025
30
0
10
5.6543748283701767
20
-9.6247035709119366
30
0
10
6.2822760523065497
20
-10.077946325066433
30
0
10
6.7623979545713153
20
-10.473689798301915
30
0
10
7.1095921076998287
20
-10.777239001169356
30
0
10
7.3451851351097828
20
-10.967748082767434
30
0
10
7.5010785089754588
20
-11.045595280544898
30
0
10
7.6174735090587067
20
-11.033794790088347
30
0
10
7.7280529034853416
20
-10.966949501938551
30
0
10
7.8470267239871987
20
-10.88341297043632
30
0
10
7.9352070460382693
20
-10.830122225239986
30
0
10
7.9856010717876522
20
-10.808736427630294
30
0
10
8.0100987352676114
20
-10.804060290249906
30
0
10
8.0200736528295877
20
-10.804117727395177
30
0
0
SPLINE
5
109
100
AcDbEntity
8
0
100
AcDbSpline
70
4
71
5
72
16
73
10
74
0
42
0.000000001
43
0.0000000001
44
0.0000000001
40
0
40
0
40
0
40
0
40
0
40
0
40
0.20000000000000001
40
0.40000000000000002
40
0.60000000000000009
40
0.80000000000000004
40
1
40
1
40
1
40
1
40
1
40
1
41
1
41
1
41
1
41
1
41
1
41
1
41
1
41
1
41
1
41
1
10
11.990990839167402
20
-9.0331257732125039
30
0
10
11.990990839167402
20
-9.0919115765873428
30
0
10
11.983611994916084
20
-9.205129861554461
30
0
10
11.950425570629697
20
-9.3619065341559509
30
0
10
11.866711095914562
20
-9.5462445339325903
30
0
10
11.708858233918347
20
-9.7337215039893437
30
0
10
11.5426002013216
20
-9.8397640203397607
30
0
10
11.392420069800897
20
-9.885568024681934
30
0
10
11.2798303535941
20
-9.8989900772977553
30
0
10
11.220415615617183
20
-9.9014189007708779
30
0
0
SPLINE
5
110
100
AcDbEntity
8
0
100
AcDbSpline
70
4
71
5
72
16
73
10
74
0
42
0.000000001
43
0.0000000001
44
0.0000000001
40
0
40
0
40
0
40
0
40
0
40
0
40
0.20000000000000001
40
0.40000000000000002
40
0.60000000000000009
40
0.80000000000000004
40
1
40
1
40
1
40
1
40
1
40
1
41
1
41
1
41
1
41
1
41
1
41
1
41
1
41
1
41
1
41
1
10
11.056848806588718
20
-10.821603956687456
30
0
10
11.100781395615645
20
-10.821856927449605
30
0
10
11.191393180808998
20
-10.829802270413236
30
0
10
11.33553878638012
20
-10.86402102087469
30
0
10
11.538040235892717
20
-10.950352777174368
30
0
10
11.775154844442167
20
-11.119407415468777
30
0
10
11.916621737063497
20
-11.308156998680117
30
0
10
11.974259573120287
20
-11.48753839495912
30
0
10
11.98707608131385
20
-11.626026558583025
30
0
10
11.98707608131385
20
-11.699999738484621
30
0
0
SPLINE
5
111
100
AcDbEntity
8
0
100
AcDbSpline
70
4
71
5
72
26
73
20
74
0
42
0.000000001
43
0.0000000001
44
0.0000000001
40
0
40
0
40
0
40
0
40
0
40
0
40
0.066666666666666666
40
0.13333333333333333
40
0.20000000000000001
40
0.26666666666666666
40
0.33333333333333331
40
0.39999999999999997
40
0.46666666666666662
40
0.53333333333333333
40
0.59999999999999998
40
0.66666666666666663
40
0.73333333333333328
40
0.79999999999999993
40
0.86666666666666659
40
0.93333333333333324
40
1
40
1
40
1
40
1
40
1
40
1
41
1
41
1
41
1
41
1
41
1
41
1
41
1
41
1
41
1
41
1
41
1
41
1
41
1
41
1
41
1
41
1
41
1
41
1
41
1
41
1
10
11.98707608131385
20
-13.978129273673952
30
0
10
11.98707608131385
20
-14.038208885441197
30
0
10
11.96572615773988
20
-14.146352587797079
30
0
10
11.869769765966648
20
-14.272613087358142
30
0
10
11.639114246161615
20
-14.386399581589519
30
0
10
11.315478901070987
20
-14.52797777220794
30
0
10
11.085936534769116
20
-14.745194379868652
30
0
10
11.047890516232481
20
-15.081075853670917
30
0
10
11.11815956528897
20
-15.430390645899585
30
0
10
11.227521041000498
20
-15.69056503124399
30
0
10
11.429532291561111
20
-15.858260397753748
30
0
10
11.763042180427966
20
-15.944262355402072
30
0
10
12.249214348709367
20
-15.974407384598035
30
0
10
12.740133800941742
20
-15.921930464315741
30
0
10
13.116683642922105
20
-15.773449265236479
30
0
10
13.360236255784777
20
-15.550902781291578
30
0
10
13.458383546946859
20
-15.336956978416199
30
0
10
13.492443520061643
20
-15.169575053700033
30
0
10
13.499999698251486
20
-15.056731736294539
30
0
10
13.499999698251486
20
-14.999999664723873
30
0
0
LINE
5
112
100
AcDbEntity
8
0
100
AcDbLine
10
0
20
2.5
30
0
11
0
21
20
31
0
0
LINE
5
113
100
AcDbEntity
8
0
100
AcDbLine
10
-7.9178517168947726
20
-10.036424877264853
30
0
11
-11.220415615617183
21
-9.9014189007708797
31
0
0
LWPOLYLINE
5
114
100
AcDbEntity
8
0
100
AcDbPolyline
90
2
70
1
43
0.0
10
-7.6642457911052277
20
-10.046792069757064
10
-8.1714576426843131
20
-10.026057684772645
0
LWPOLYLINE
5
115
100
AcDbEntity
8
0
100
AcDbPolyline
90
2
70
1
43
0.0
10
-11.598820183289174
20
-15.954902995232063
10
-12.747156245437324
20
-15.954902995232061
0
LWPOLYLINE
5
116
100
AcDbEntity
8
0
100
AcDbPolyline
90
2
70
1
43
0.0
10
-11.990990839167402
20
-8.8999998010694981
10
-11.990990839167397
20
-9.1662517453555168
0
LINE
5
117
100
AcDbEntity
8
0
100
AcDbLine
10
-13.499999698251486
20
-2.9999999329447746
30
0
11
-13.499999698251486
21
-14.999999664723873
31
0
0
LWPOLYLINE
5
118
100
AcDbEntity
8
0
100
AcDbPolyline
90
2
70
1
43
0.0
10
-13.499999698251486
20
-15.299999658018354
10
-13.499999698251486
20
-14.699999671429396
0
LWPOLYLINE
5
119
100
AcDbEntity
8
0
100
AcDbPolyline
90
2
70
1
43
0.0
10
-11.987076081313852
20
-11.536925079235044
10
-11.98707608131385
20
-11.863074397734199
0
LINE
5
120
100
AcDbEntity
8
0
100
AcDbLine
10
-11.990990839167402
20
-9.0331257732125039
30
0
11
-11.990990839167402
21
-3.2999999262392521
31
0
0
LWPOLYLINE
5
121
100
AcDbEntity
8
0
100
AcDbPolyline
90
2
70
1
43
0.0
10
-11.074663377735046
20
-14.650054428968765
10
-11.074663377735046
20
-15.46175312523734
0
LWPOLYLINE
5
122
100
AcDbEntity
8
0
100
AcDbPolyline
90
2
70
1
43
0.0
10
-7.6446513638798796
20
-10.80195598676783
10
-8.3954959417792914
20
-10.806279468022526
0
SPLINE
5
123
100
AcDbEntity
8
0
100
AcDbSpline
70
4
71
5
72
16
73
10
74
0
42
0.000000001
43
0.0000000001
44
0.0000000001
40
0
40
0
40
0
40
0
40
0
40
0
40
0.20000000000000001
40
0.40000000000000002
40
0.60000000000000009
40
0.80000000000000004
40
1
40
1
40
1
40
1
40
1
40
1
41
1
41
1
41
1
41
1
41
1
41
1
41
1
41
1
41
1
41
1
10
-11.056848806588718
20
-10.821603956687456
30
0
10
-11.100781395615645
20
-10.821856927449605
30
0
10
-11.191393180808998
20
-10.829802270413236
30
0
10
-11.33553878638012
20
-10.86402102087469
30
0
10
-11.538040235892717
20
-10.950352777174368
30
0
10
-11.775154844442167
20
-11.119407415468777
30
0
10
-11.916621737063497
20
-11.308156998680117
30
0
10
-11.974259573120287
20
-11.48753839495912
30
0
10
-11.98707608131385
20
-11.626026558583025
30
0
10
-11.98707608131385
20
-11.699999738484621
30
0
0
LWPOLYLINE
5
124
100
AcDbEntity
8
0
100
AcDbPolyline
90
2
70
1
43
0.0
10
-10.958101504117206
20
-10.821035354178024
10
-11.155596109060223
20
-10.822172559196883
0
SPLINE
5
125
100
AcDbEntity
8
0
100
AcDbSpline
70
4
71
5
72
16
73
10
74
0
42
0.000000001
43
0.0000000001
44
0.0000000001
40
0
40
0
40
0
40
0
40
0
40
0
40
0.20000000000000001
40
0.40000000000000002
40
0.60000000000000009
40
0.80000000000000004
40
1
40
1
40
1
40
1
40
1
40
1
41
1
41
1
41
1
41
1
41
1
41
1
41
1
41
1
41
1
41
1
10
-11.990990839167402
20
-9.0331257732125039
30
0
10
-11.990990839167402
20
-9.0919115765873428
30
0
10
-11.983611994916084
20
-9.205129861554461
30
0
10
-11.950425570629697
20
-9.3619065341559509
30
0
10
-11.866711095914562
20
-9.5462445339325903
30
0
10
-11.708858233918347
20
-9.7337215039893437
30
0
10
-11.5426002013216
20
-9.8397640203397607
30
0
10
-11.392420069800897
20
-9.885568024681934
30
0
10
-11.2798303535941
20
-9.8989900772977553
30
0
10
-11.220415615617183
20
-9.9014189007708779
30
0
0
LWPOLYLINE
5
126
100
AcDbEntity
8
0
100
AcDbPolyline
90
2
70
1
43
0.0
10
-11.351805045343102
20
-9.8960478136988037
10
-11.089026185891264
20
-9.9067899878429557
0
SPLINE
5
127
100
AcDbEntity
8
0
100
AcDbSpline
70
4
71
5
72
26
73
20
74
0
42
0.000000001
43
0.0000000001
44
0.0000000001
40
0
40
0
40
0
40
0
40
0
40
0
40
0.066666666666666666
40
0.13333333333333333
40
0.20000000000000001
40
0.26666666666666666
40
0.33333333333333331
40
0.39999999999999997
40
0.46666666666666662
40
0.53333333333333333
40
0.59999999999999998
40
0.66666666666666663
40
0.73333333333333328
40
0.79999999999999993
40
0.86666666666666659
40
0.93333333333333324
40
1
40
1
40
1
40
1
40
1
40
1
41
1
41
1
41
1
41
1
41
1
41
1
41
1
41
1
41
1
41
1
41
1
41
1
41
1
41
1
41
1
41
1
41
1
41
1
41
1
41
1
10
-11.98707608131385
20
-13.978129273673952
30
0
10
-11.98707608131385
20
-14.038208885441197
30
0
10
-11.96572615773988
20
-14.146352587797079
30
0
10
-11.869769765966648
20
-14.272613087358142
30
0
10
-11.639114246161615
20
-14.386399581589519
30
0
10
-11.315478901070987
20
-14.52797777220794
30
0
10
-11.085936534769116
20
-14.745194379868652
30
0
10
-11.047890516232481
20
-15.081075853670917
30
0
10
-11.11815956528897
20
-15.430390645899585
30
0
10
-11.227521041000498
20
-15.69056503124399
30
0
10
-11.429532291561111
20
-15.858260397753748
30
0
10
-11.763042180427966
20
-15.944262355402072
30
0
10
-12.249214348709367
20
-15.974407384598035
30
0
10
-12.740133800941742
20
-15.921930464315741
30
0
10
-13.116683642922105
20
-15.773449265236479
30
0
10
-13.360236255784777
20
-15.550902781291578
30
0
10
-13.458383546946859
20
-15.336956978416199
30
0
10
-13.492443520061643
20
-15.169575053700033
30
0
10
-13.499999698251486
20
-15.056731736294539
30
0
10
-13.499999698251486
20
-14.999999664723873
30
0
0
LINE
5
128
100
AcDbEntity
8
0
100
AcDbLine
10
-11.98707608131385
20
-13.978129273673952
30
0
11
-11.98707608131385
21
-11.699999738484621
31
0
0
LWPOLYLINE
5
129
100
AcDbEntity
8
0
100
AcDbPolyline
90
2
70
1
43
0.0
10
1.1479196586181226
20
-7.2999998368322849
10
-1.1479196586181228
20
-7.2999998368322849
0
SPLINE
5
130
100
AcDbEntity
8
0
100
AcDbSpline
70
4
71
5
72
26
73
20
74
0
42
0.000000001
43
0.0000000001
44
0.0000000001
40
0
40
0
40
0
40
0
40
0
40
0
40
0.066666666666666666
40
0.13333333333333333
40
0.20000000000000001
40
0.26666666666666666
40
0.33333333333333331
40
0.39999999999999997
40
0.46666666666666662
40
0.53333333333333333
40
0.59999999999999998
40
0.66666666666666663
40
0.73333333333333328
40
0.79999999999999993
40
0.86666666666666659
40
0.93333333333333324
40
1
40
1
40
1
40
1
40
1
40
1
41
1
41
1
41
1
41
1
41
1
41
1
41
1
41
1
41
1
41
1
41
1
41
1
41
1
41
1
41
1
41
1
41
1
41
1
41
1
41
1
10
0
20
-8.0999998189508915
30
0
10
-0.3106268093383604
20
-8.0999998189508915
30
0
10
-0.91437267706729042
20
-8.1158264108324492
30
0
10
-1.7674685945449986
20
-8.1870451500867087
30
0
10
-2.8002648678112143
20
-8.372185862040574
30
0
10
-3.9190307169896226
20
-8.7247090414370536
30
0
10
-4.8688610499135967
20
-9.1577556957471025
30
0
10
-5.6543748283701767
20
-9.6247035709119366
30
0
10
-6.2822760523065497
20
-10.077946325066433
30
0
10
-6.7623979545713153
20
-10.473689798301915
30
0
10
-7.1095921076998287
20
-10.777239001169356
30
0
10
-7.3451851351097828
20
-10.967748082767434
30
0
10
-7.5010785089754588
20
-11.045595280544898
30
0
10
-7.6174735090587067
20
-11.033794790088347
30
0
10
-7.7280529034853416
20
-10.966949501938551
30
0
10
-7.8470267239871987
20
-10.88341297043632
30
0
10
-7.9352070460382693
20
-10.830122225239986
30
0
10
-7.9856010717876522
20
-10.808736427630294
30
0
10
-8.0100987352676114
20
-10.804060290249906
30
0
10
-8.0200736528295877
20
-10.804117727395177
30
0
0
SPLINE
5
131
100
AcDbEntity
8
0
100
AcDbSpline
70
4
71
5
72
21
73
15
74
0
42
0.000000001
43
0.0000000001
44
0.0000000001
40
0
40
0
40
0
40
0
40
0
40
0
40
0.10000000000000001
40
0.20000000000000001
40
0.30000000000000004
40
0.40000000000000002
40
0.5
40
0.59999999999999998
40
0.69999999999999996
40
0.79999999999999993
40
0.89999999999999991
40
1
40
1
40
1
40
1
40
1
40
1
41
1
41
1
41
1
41
1
41
1
41
1
41
1
41
1
41
1
41
1
41
1
41
1
41
1
41
1
41
1
10
0
20
-7.2999998368322849
30
0
10
-0.29593618928695464
20
-7.2999998368322849
30
0
10
-0.87460834745027394
20
-7.3173722844936373
30
0
10
-1.70301698479143
20
-7.3955439533349079
30
0
10
-2.728639636500219
20
-7.5969016603768225
30
0
10
-3.8783228820564384
20
-7.9705174655774114
30
0
10
-4.8921459346685117
20
-8.4142902927789471
30
0
10
-5.7639840194985039
20
-8.8726572342563657
30
0
10
-6.4873228963947209
20
-9.2938743336690646
30
0
10
-7.0579811652186901
20
-9.6360861166509757
30
0
10
-7.481898632698333
20
-9.8780965663220606
30
0
10
-7.7152675944512596
20
-9.9898934462267146
30
0
10
-7.8366787348464744
20
-10.029775583508583
30
0
10
-7.894626939473536
20
-10.037374286224306
30
0
10
-7.9178517168947726
20
-10.036424877264853
30
0
0
SPLINE
5
132
100
AcDbEntity
8
0
100
AcDbSpline
70
4
71
5
72
21
73
15
74
0
42
0.000000001
43
0.0000000001
44
0.0000000001
40
0
40
0
40
0
40
0
40
0
40
0
40
0.10000000000000001
40
0.20000000000000001
40
0.30000000000000004
40
0.40000000000000002
40
0.5
40
0.59999999999999998
40
0.69999999999999996
40
0.79999999999999993
40
0.89999999999999991
40
1
40
1
40
1
40
1
40
1
40
1
41
1
41
1
41
1
41
1
41
1
41
1
41
1
41
1
41
1
41
1
41
1
41
1
41
1
41
1
41
1
10
0
20
0.99999997764825821
30
0
10
-0.38379581209975006
20
0.99999997764825821
30
0
10
-1.1343884573500216
20
0.98952755651718738
30
0
10
-2.2092791247094818
20
0.94235817241187103
30
0
10
-3.5473159480492269
20
0.82703127324802561
30
0
10
-5.0936564968898672
20
0.63947085089300304
30
0
10
-6.5463583843531801
20
0.44927989381473971
30
0
10
-7.9223979785307783
20
0.2513166982921235
30
0
10
-9.2129816523676418
20
-0.0011146764835928778
30
0
10
-10.360590639688025
20
-0.51428161897690572
30
0
10
-11.280335120338922
20
-1.308464434371996
30
0
10
-11.763237517754298
20
-2.0855897468673241
30
0
10
-11.949577977689076
20
-2.6919842426102116
30
0
10
-11.990990839167399
20
-3.0971690630793862
30
0
10
-11.990990839167402
20
-3.2999999262392521
30
0
0
LINE
5
133
100
AcDbEntity
8
0
100
AcDbLine
10
-11.056848806588718
20
-10.821603956687456
30
0
11
-8.0200736528295877
21
-10.804117727395177
31
0
0
SPLINE
5
134
100
AcDbEntity
8
0
100
AcDbSpline
70
4
71
5
72
21
73
15
74
0
42
0.000000001
43
0.0000000001
44
0.0000000001
40
0
40
0
40
0
40
0
40
0
40
0
40
0.10000000000000001
40
0.20000000000000001
40
0.30000000000000004
40
0.40000000000000002
40
0.5
40
0.59999999999999998
40
0.69999999999999996
40
0.79999999999999993
40
0.89999999999999991
40
1
40
1
40
1
40
1
40
1
40
1
41
1
41
1
41
1
41
1
41
1
41
1
41
1
41
1
41
1
41
1
41
1
41
1
41
1
41
1
41
1
10
0
20
2.9999999329447746
30
0
10
-0.42755348462321818
20
2.9999999329447746
30
0
10
-1.2541019199172223
20
2.9908375554016233
30
0
10
-2.4082485194839354
20
2.9496072215347868
30
0
10
-3.8019406930386888
20
2.8471065221783332
30
0
10
-5.427874454034523
20
2.6679355783414045
30
0
10
-7.0613557155223026
20
2.4497881622762039
30
0
10
-8.7584409107411201
20
2.1617083456083206
30
0
10
-10.449485687501948
20
1.7042614857516094
30
0
10
-11.838265755358927
20
0.86569259184231417
30
0
10
-12.831455258347791
20
-0.29919431544478076
30
0
10
-13.29230954603333
20
-1.3781120471840536
30
0
10
-13.462252644209125
20
-2.1955924516415681
30
0
10
-13.499999698251486
20
-2.7331185607321622
30
0
10
-13.499999698251486
20
-2.9999999329447746
30
0
0
ENDSEC
0
SECTION
2
OBJECTS
0
DICTIONARY
5
C
100
AcDbDictionary
3
ACAD_GROUP
350
D
3
ACAD_MLINESTYLE
350
17
0
DICTIONARY
5
D
100
AcDbDictionary
0
DICTIONARY
5
1A
330
C
100
AcDbDictionary
0
DICTIONARY
5
17
100
AcDbDictionary
0
ENDSEC
0
EOF
