0
SECTION
2
HEADER
9
$INSUNITS
70
4
9
$ACADVER
1
AC1014
9
$HANDSEED
5
FFFF
0
ENDSEC
0
SECTION
2
TABLES
0
TABLE
2
VPORT
5
8
100
AcDbSymbolTable
0
ENDTAB
0
TABLE
2
LTYPE
5
5
100
AcDbSymbolTable
0
LTYPE
5
14
100
AcDbSymbolTableRecord
100
AcDbLinetypeTableRecord
2
BYBLOCK
70
0
0
LTYPE
5
15
100
AcDbSymbolTableRecord
100
AcDbLinetypeTableRecord
2
BYLAYER
70
0
0
ENDTAB
0
TABLE
2
LAYER
5
2
100
AcDbSymbolTable
70
2
0
LAYER
5
50
100
AcDbSymbolTableRecord
100
AcDbLayerTableRecord
2
0
70
0
6
CONTINUOUS
0
ENDTAB
0
TABLE
2
STYLE
5
3
100
AcDbSymbolTable
70
1
0
STYLE
5
11
100
AcDbSymbolTableRecord
100
AcDbTextStyleTableRecord
2
STANDARD
70
0
0
ENDTAB
0
TABLE
2
VIEW
5
6
100
AcDbSymbolTable
70
0
0
ENDTAB
0
TABLE
2
UCS
5
7
100
AcDbSymbolTable
70
0
0
ENDTAB
0
TABLE
2
APPID
5
9
100
AcDbSymbolTable
70
2
0
APPID
5
12
100
AcDbSymbolTableRecord
100
AcDbRegAppTableRecord
2
ACAD
70
0
0
ENDTAB
0
TABLE
2
DIMSTYLE
5
A
100
AcDbSymbolTable
70
1
0
ENDTAB
0
TABLE
2
BLOCK_RECORD
5
1
100
AcDbSymbolTable
70
1
0
BLOCK_RECORD
5
1F
100
AcDbSymbolTableRecord
100
AcDbBlockTableRecord
2
*MODEL_SPACE
0
BLOCK_RECORD
5
1B
100
AcDbSymbolTableRecord
100
AcDbBlockTableRecord
2
*PAPER_SPACE
0
ENDTAB
0
ENDSEC
0
SECTION
2
BLOCKS
0
BLOCK
5
20
100
AcDbEntity
100
AcDbBlockBegin
2
*MODEL_SPACE
0
ENDBLK
5
21
100
AcDbEntity
100
AcDbBlockEnd
0
BLOCK
5
1C
100
AcDbEntity
100
AcDbBlockBegin
2
*PAPER_SPACE
0
ENDBLK
5
1D
100
AcDbEntity
100
AcDbBlockEnd
0
ENDSEC
0
SECTION
2
ENTITIES
0
LINE
5
100
100
AcDbEntity
8
0
100
AcDbLine
10
5.2215021818318164
20
0.87034078250348101
30
0
11
10.024296391644185
21
-4.5829010411639457
31
0
0
LINE
5
101
100
AcDbEntity
8
0
100
AcDbLine
10
10.024296391644185
20
-4.5829010411639457
30
0
11
11.31022674985919
21
-6.2513690737909489
31
0
0
LINE
5
102
100
AcDbEntity
8
0
100
AcDbLine
10
4.8574178254038953
20
0.10232529655343658
30
0
11
8.6739424479352323
21
-4.1829386402009732
31
0
0
LINE
5
103
100
AcDbEntity
8
0
100
AcDbLine
10
8.6739424479352323
20
-4.1829386402009732
30
0
11
10.696712599712157
21
-6.7637143510887725
31
0
0
LINE
5
104
100
AcDbEntity
8
0
100
AcDbLine
10
9.852821747319048
20
-8.458911443210539
30
0
11
7.4999998323619366
21
-8.458911443210539
31
0
0
LINE
5
105
100
AcDbEntity
8
0
100
AcDbLine
10
7.5364019248289447
20
-9.2646416594845853
30
0
11
9.8560779207863494
21
-9.2646416594845853
31
0
0
LINE
5
106
100
AcDbEntity
8
0
100
AcDbLine
10
12.399999722838402
20
-8.7499998044222593
30
0
11
12.399999722838402
21
-14.556705902070865
31
0
0
SPLINE
5
107
100
AcDbEntity
8
0
100
AcDbSpline
70
4
71
5
72
21
73
15
74
0
42
0.000000001
43
0.0000000001
44
0.0000000001
40
0
40
0
40
0
40
0
40
0
40
0
40
0.10000000000000001
40
0.20000000000000001
40
0.30000000000000004
40
0.40000000000000002
40
0.5
40
0.59999999999999998
40
0.69999999999999996
40
0.79999999999999993
40
0.89999999999999991
40
1
40
1
40
1
40
1
40
1
40
1
41
1
41
1
41
1
41
1
41
1
41
1
41
1
41
1
41
1
41
1
41
1
41
1
41
1
41
1
41
1
10
0
20
2.799999937415123
30
0
10
0.18239811492967548
20
2.799999937415123
30
0
10
0.54081086670030942
20
2.7944792359424264
30
0
10
1.0592803882335016
20
2.7696370038586
30
0
10
1.7113715653144557
20
2.7035715292592637
30
0
10
2.4550340604352341
20
2.5672582483943658
30
0
10
3.118470334872157
20
2.3795792142060161
30
0
10
3.6923697125468498
20
2.1454162526943104
30
0
10
4.1696692699131654
20
1.8739957598191295
30
0
10
4.5503171207706252
20
1.5821038171569373
30
0
10
4.8454515056386072
20
1.2964266056401876
30
0
10
5.0246666838641385
20
1.0957213287693786
30
0
10
5.1326938076514361
20
0.97152050311084193
30
0
10
5.193729632232035
20
0.90187459853040652
30
0
10
5.2215021818318164
20
0.87034078250348101
30
0
0
SPLINE
5
108
100
AcDbEntity
8
0
100
AcDbSpline
70
4
71
5
72
31
73
25
74
0
42
0.000000001
43
0.0000000001
44
0.0000000001
40
0
40
0
40
0
40
0
40
0
40
0
40
0.050000000000000003
40
0.10000000000000001
40
0.15000000000000002
40
0.20000000000000001
40
0.25
40
0.29999999999999999
40
0.34999999999999998
40
0.39999999999999997
40
0.44999999999999996
40
0.49999999999999994
40
0.54999999999999993
40
0.59999999999999998
40
0.65000000000000002
40
0.70000000000000007
40
0.75000000000000011
40
0.80000000000000016
40
0.8500000000000002
40
0.90000000000000024
40
0.95000000000000029
40
1
40
1
40
1
40
1
40
1
40
1
41
1
41
1
41
1
41
1
41
1
41
1
41
1
41
1
41
1
41
1
41
1
41
1
41
1
41
1
41
1
41
1
41
1
41
1
41
1
41
1
41
1
41
1
41
1
41
1
41
1
10
0
20
1.0317713331382659
30
0
10
0.065465678449648568
20
1.0317713331382659
30
0
10
0.19663452097666129
20
1.0312395803746466
30
0
10
0.3941002404062337
20
1.028846635906981
30
0
10
0.6587875116246823
20
1.0214724178450525
30
0
10
0.99154006704012765
20
0.99991951964858439
30
0
10
1.3251142523328776
20
0.95984622036756895
30
0
10
1.6575408803593772
20
0.89629924011983986
30
0
10
1.9856752687168071
20
0.80764505268299203
30
0
10
2.3049101210071101
20
0.69770831747927209
30
0
10
2.6088640494568733
20
0.57801375707947422
30
0
10
2.8907273814269772
20
0.46416803299152487
30
0
10
3.1445578166892667
20
0.37240467530803872
30
0
10
3.3667343063835489
20
0.3158920054054849
30
0
10
3.5571567215002515
20
0.30154516794383518
30
0
10
3.7212639151343745
20
0.325358198816455
30
0
10
3.8691054860307217
20
0.37309973248232153
30
0
10
4.0119803377779846
20
0.42525175933979542
30
0
10
4.160097622524507
20
0.46036639322281631
30
0
10
4.3192021501205744
20
0.45953510791884983
30
0
10
4.48978454826113
20
0.40854914881808985
30
0
10
4.6337554220438673
20
0.31947673483907946
30
0
10
4.7446435843780135
20
0.22277188811598253
30
0
10
4.8196468620690327
20
0.14473522785056603
30
0
10
4.8574178254038953
20
0.10232529655343658
30
0
0
SPLINE
5
109
100
AcDbEntity
8
0
100
AcDbSpline
70
4
71
5
72
16
73
10
74
0
42
0.000000001
43
0.0000000001
44
0.0000000001
40
0
40
0
40
0
40
0
40
0
40
0
40
0.20000000000000001
40
0.40000000000000002
40
0.60000000000000009
40
0.80000000000000004
40
1
40
1
40
1
40
1
40
1
40
1
41
1
41
1
41
1
41
1
41
1
41
1
41
1
41
1
41
1
41
1
10
11.31022674985919
20
-6.2513690737909489
30
0
10
11.384814782173503
20
-6.348145502419424
30
0
10
11.528657204337417
20
-6.5472398561939258
30
0
10
11.728430770865412
20
-6.8624865278262845
30
0
10
11.964168699948853
20
-7.3076419005499336
30
0
10
12.203220308790122
20
-7.8647194337485713
30
0
10
12.335334763761862
20
-8.2711165291648285
30
0
10
12.388236851715838
20
-8.531428876852555
30
0
10
12.399999722838402
20
-8.6811215298079727
30
0
10
12.399999722838402
20
-8.7499998044222593
30
0
0
SPLINE
5
110
100
AcDbEntity
8
0
100
AcDbSpline
70
4
71
5
72
26
73
20
74
0
42
0.000000001
43
0.0000000001
44
0.0000000001
40
0
40
0
40
0
40
0
40
0
40
0
40
0.066666666666666666
40
0.13333333333333333
40
0.20000000000000001
40
0.26666666666666666
40
0.33333333333333331
40
0.39999999999999997
40
0.46666666666666662
40
0.53333333333333333
40
0.59999999999999998
40
0.66666666666666663
40
0.73333333333333328
40
0.79999999999999993
40
0.86666666666666659
40
0.93333333333333324
40
1
40
1
40
1
40
1
40
1
40
1
41
1
41
1
41
1
41
1
41
1
41
1
41
1
41
1
41
1
41
1
41
1
41
1
41
1
41
1
41
1
41
1
41
1
41
1
41
1
41
1
10
10.696712599712157
20
-6.7637143510887725
30
0
10
10.718928245681061
20
-6.7920584511180628
30
0
10
10.765156556200981
20
-6.8533022650998525
30
0
10
10.839890578422562
20
-6.9588346539503929
30
0
10
10.946717205503923
20
-7.1249665307957688
30
0
10
11.071967872983141
20
-7.3634394157777718
30
0
10
11.163708659967561
20
-7.6168715450579718
30
0
10
11.198346376555548
20
-7.867513556840132
30
0
10
11.159700178057225
20
-8.0978922759952709
30
0
10
11.047368905316278
20
-8.2933211740224273
30
0
10
10.87765551380657
20
-8.4433858940492232
30
0
10
10.675331040102536
20
-8.5421014495704988
30
0
10
10.467961731305984
20
-8.5887931536249109
30
0
10
10.279959930565994
20
-8.5887190902787758
30
0
10
10.125576726411634
20
-8.5548518991320162
30
0
10
10.005960736832929
20
-8.5072735052140587
30
0
10
9.9339000064956391
20
-8.4750566435563606
30
0
10
9.8899128282878266
20
-8.4618471964211501
30
0
10
9.8645288586347295
20
-8.458911443210539
30
0
10
9.852821747319048
20
-8.458911443210539
30
0
0
SPLINE
5
111
100
AcDbEntity
8
0
100
AcDbSpline
70
4
71
5
72
36
73
30
74
0
42
0.000000001
43
0.0000000001
44
0.0000000001
40
0
40
0
40
0
40
0
40
0
40
0
40
0.040000000000000001
40
0.080000000000000002
40
0.12
40
0.16
40
0.20000000000000001
40
0.24000000000000002
40
0.28000000000000003
40
0.32000000000000001
40
0.35999999999999999
40
0.39999999999999997
40
0.43999999999999995
40
0.47999999999999993
40
0.51999999999999991
40
0.55999999999999994
40
0.59999999999999998
40
0.64000000000000001
40
0.68000000000000005
40
0.72000000000000008
40
0.76000000000000012
40
0.80000000000000016
40
0.84000000000000019
40
0.88000000000000023
40
0.92000000000000026
40
0.9600000000000003
40
1
40
1
40
1
40
1
40
1
40
1
41
1
41
1
41
1
41
1
41
1
41
1
41
1
41
1
41
1
41
1
41
1
41
1
41
1
41
1
41
1
41
1
41
1
41
1
41
1
41
1
41
1
41
1
41
1
41
1
41
1
41
1
41
1
41
1
41
1
41
1
10
12.399999722838402
20
-14.556705902070865
30
0
10
12.399999722838402
20
-14.574776062599453
30
0
10
12.386292451201502
20
-14.612966679869137
30
0
10
12.324611834782038
20
-14.676400101522432
30
0
10
12.16629315405627
20
-14.766824955611176
30
0
10
11.877620696450059
20
-14.854326276910347
30
0
10
11.544365111701362
20
-14.875587930346324
30
0
10
11.213411510407374
20
-14.796666841119524
30
0
10
10.920827819668194
20
-14.606184188238458
30
0
10
10.689694568019494
20
-14.315185986175562
30
0
10
10.532703558029144
20
-13.948853915430735
30
0
10
10.453111717659709
20
-13.540998734004891
30
0
10
10.446286604823298
20
-13.127476364213157
30
0
10
10.500759359521028
20
-12.74029925791115
30
0
10
10.599659350999708
20
-12.401110153150896
30
0
10
10.72318753757761
20
-12.120162273210919
30
0
10
10.85196262007894
20
-11.890710558749294
30
0
10
10.968050187689627
20
-11.693053705287236
30
0
10
11.061518332248667
20
-11.475620847824878
30
0
10
11.122437403492931
20
-11.196079067338395
30
0
10
11.133622790992796
20
-10.860841424769943
30
0
10
11.080300485968253
20
-10.49456893652348
30
0
10
10.953926519249592
20
-10.135073124520728
30
0
10
10.757926305405141
20
-9.8183756142888168
30
0
10
10.514407947851867
20
-9.5661743631490204
30
0
10
10.257437360877901
20
-9.3870055626588229
30
0
10
10.069887946081565
20
-9.3028035216775002
30
0
10
9.9524568571869292
20
-9.2715798973788353
30
0
10
9.8861991382701806
20
-9.2646416594845853
30
0
10
9.8560779207863494
20
-9.2646416594845853
30
0
0
SPLINE
5
112
100
AcDbEntity
8
0
100
AcDbSpline
70
4
71
5
72
41
73
35
74
0
42
0.000000001
43
0.0000000001
44
0.0000000001
40
0
40
0
40
0
40
0
40
0
40
0
40
0.033333333333333333
40
0.066666666666666666
40
0.10000000000000001
40
0.13333333333333333
40
0.16666666666666666
40
0.19999999999999998
40
0.23333333333333331
40
0.26666666666666666
40
0.29999999999999999
40
0.33333333333333331
40
0.36666666666666664
40
0.39999999999999997
40
0.43333333333333329
40
0.46666666666666662
40
0.49999999999999994
40
0.53333333333333333
40
0.56666666666666665
40
0.59999999999999998
40
0.6333333333333333
40
0.66666666666666663
40
0.69999999999999996
40
0.73333333333333328
40
0.76666666666666661
40
0.79999999999999993
40
0.83333333333333326
40
0.86666666666666659
40
0.89999999999999991
40
0.93333333333333324
40
0.96666666666666656
40
1
40
1
40
1
40
1
40
1
40
1
41
1
41
1
41
1
41
1
41
1
41
1
41
1
41
1
41
1
41
1
41
1
41
1
41
1
41
1
41
1
41
1
41
1
41
1
41
1
41
1
41
1
41
1
41
1
41
1
41
1
41
1
41
1
41
1
41
1
41
1
41
1
41
1
41
1
41
1
41
1
10
7.5364019248289447
20
-9.2646416594845853
30
0
10
7.503812593423179
20
-9.2646416594845853
30
0
10
7.43866877650402
20
-9.2783847600550562
30
0
10
7.3410974419691613
20
-9.3403539320029907
30
0
10
7.2066394692373104
20
-9.4810494597390846
30
0
10
7.0148433619372694
20
-9.6484926410641094
30
0
10
6.7865241076086864
20
-9.7067423255202776
30
0
10
6.5398565469088199
20
-9.666814477548229
30
0
10
6.3063497570483182
20
-9.6175025854092127
30
0
10
6.0811720305008183
20
-9.5521348566137867
30
0
10
5.856371363074576
20
-9.4562446021667554
30
0
10
5.6243830965358725
20
-9.3043334157709072
30
0
10
5.3977134422192821
20
-9.1005224990814622
30
0
10
5.2074840798524225
20
-8.8779772979962086
30
0
10
5.0859092442088603
20
-8.6764408300372757
30
0
10
5.0531229051649547
20
-8.5252021783949701
30
0
10
5.1011721882728374
20
-8.4222617718948563
30
0
10
5.1819085091860853
20
-8.3194205888134061
30
0
10
5.2334491509832048
20
-8.1600999613912482
30
0
10
5.2032825040266051
20
-7.9155748492297118
30
0
10
5.0745112519676594
20
-7.6192347668247571
30
0
10
4.8447250304988394
20
-7.290885859994062
30
0
10
4.5246945251628015
20
-6.9520084303132492
30
0
10
4.1330381453686833
20
-6.619450428664253
30
0
10
3.6925046802320285
20
-6.3077096733117859
30
0
10
3.225739592801673
20
-6.0275485587749422
30
0
10
2.7510202573402602
20
-5.7860954323502582
30
0
10
2.2788038899158565
20
-5.5864560389500735
30
0
10
1.8138101361008097
20
-5.428841927281316
30
0
10
1.3563950216601826
20
-5.3114020663716408
30
0
10
0.90416311366009972
20
-5.2311486293333864
30
0
10
0.54359382704378845
20
-5.1940877227176339
30
0
10
0.27231856488139838
20
-5.1803662390014393
30
0
10
0.090872214278741661
20
-5.1773170176195249
30
0
10
0
20
-5.1773170176195249
30
0
0
SPLINE
5
113
100
AcDbEntity
8
0
100
AcDbSpline
70
4
71
5
72
36
73
30
74
0
42
0.000000001
43
0.0000000001
44
0.0000000001
40
0
40
0
40
0
40
0
40
0
40
0
40
0.040000000000000001
40
0.080000000000000002
40
0.12
40
0.16
40
0.20000000000000001
40
0.24000000000000002
40
0.28000000000000003
40
0.32000000000000001
40
0.35999999999999999
40
0.39999999999999997
40
0.43999999999999995
40
0.47999999999999993
40
0.51999999999999991
40
0.55999999999999994
40
0.59999999999999998
40
0.64000000000000001
40
0.68000000000000005
40
0.72000000000000008
40
0.76000000000000012
40
0.80000000000000016
40
0.84000000000000019
40
0.88000000000000023
40
0.92000000000000026
40
0.9600000000000003
40
1
40
1
40
1
40
1
40
1
40
1
41
1
41
1
41
1
41
1
41
1
41
1
41
1
41
1
41
1
41
1
41
1
41
1
41
1
41
1
41
1
41
1
41
1
41
1
41
1
41
1
41
1
41
1
41
1
41
1
41
1
41
1
41
1
41
1
41
1
41
1
10
0
20
-3.9999999105930328
30
0
10
0.072913048427949975
20
-3.9999999105930328
30
0
10
0.22128341280996885
20
-3.9999636953654614
30
0
10
0.45147488144895176
20
-3.9997951601195987
30
0
10
0.77355082905842276
20
-4.0039705473493328
30
0
10
1.2010650448548674
20
-4.0412014344961626
30
0
10
1.6528788719829566
20
-4.1397160178553269
30
0
10
2.1293024141906227
20
-4.3222151541095908
30
0
10
2.6295485645893062
20
-4.5995265819095357
30
0
10
3.1572845803916079
20
-4.9512673387263337
30
0
10
3.7052904144500127
20
-5.3445615434668481
30
0
10
4.2490407193693054
20
-5.7575126886376893
30
0
10
4.7577545591402135
20
-6.1703487264050452
30
0
10
5.1988005445983365
20
-6.5688532821274759
30
0
10
5.5447435618124095
20
-6.9425994392928381
30
0
10
5.7796810474926783
20
-7.2855331646539572
30
0
10
5.9051740179522483
20
-7.595456154547664
30
0
10
5.9488160040888207
20
-7.874419286394394
30
0
10
5.9555683598322773
20
-8.1260425977242274
30
0
10
5.9735205293772919
20
-8.3520302072049653
30
0
10
6.0431265368707541
20
-8.5491199182545792
30
0
10
6.1813676251194511
20
-8.7053308678206616
30
0
10
6.3828333462413926
20
-8.8008600460627608
30
0
10
6.6282263526057879
20
-8.8210212090004507
30
0
10
6.8966190702623091
20
-8.7516101664954444
30
0
10
7.160936563135393
20
-8.616420462578855
30
0
10
7.3369185319558738
20
-8.5129618971743781
30
0
10
7.4339506669322422
20
-8.4687302841096965
30
0
10
7.4809322235743716
20
-8.458911443210539
30
0
10
7.4999998323619366
20
-8.458911443210539
30
0
0
LINE
5
114
100
AcDbEntity
8
0
100
AcDbLine
10
0
20
1.75
30
0
11
0
21
22.5
31
0
0
LINE
5
115
100
AcDbEntity
8
0
100
AcDbLine
10
-5.2215021818318164
20
0.87034078250348101
30
0
11
-10.024296391644185
21
-4.5829010411639457
31
0
0
SPLINE
5
116
100
AcDbEntity
8
0
100
AcDbSpline
70
4
71
5
72
41
73
35
74
0
42
0.000000001
43
0.0000000001
44
0.0000000001
40
0
40
0
40
0
40
0
40
0
40
0
40
0.033333333333333333
40
0.066666666666666666
40
0.10000000000000001
40
0.13333333333333333
40
0.16666666666666666
40
0.19999999999999998
40
0.23333333333333331
40
0.26666666666666666
40
0.29999999999999999
40
0.33333333333333331
40
0.36666666666666664
40
0.39999999999999997
40
0.43333333333333329
40
0.46666666666666662
40
0.49999999999999994
40
0.53333333333333333
40
0.56666666666666665
40
0.59999999999999998
40
0.6333333333333333
40
0.66666666666666663
40
0.69999999999999996
40
0.73333333333333328
40
0.76666666666666661
40
0.79999999999999993
40
0.83333333333333326
40
0.86666666666666659
40
0.89999999999999991
40
0.93333333333333324
40
0.96666666666666656
40
1
40
1
40
1
40
1
40
1
40
1
41
1
41
1
41
1
41
1
41
1
41
1
41
1
41
1
41
1
41
1
41
1
41
1
41
1
41
1
41
1
41
1
41
1
41
1
41
1
41
1
41
1
41
1
41
1
41
1
41
1
41
1
41
1
41
1
41
1
41
1
41
1
41
1
41
1
41
1
41
1
10
-7.5364019248289447
20
-9.2646416594845853
30
0
10
-7.503812593423179
20
-9.2646416594845853
30
0
10
-7.43866877650402
20
-9.2783847600550562
30
0
10
-7.3410974419691613
20
-9.3403539320029907
30
0
10
-7.2066394692373104
20
-9.4810494597390846
30
0
10
-7.0148433619372694
20
-9.6484926410641094
30
0
10
-6.7865241076086864
20
-9.7067423255202776
30
0
10
-6.5398565469088199
20
-9.666814477548229
30
0
10
-6.3063497570483182
20
-9.6175025854092127
30
0
10
-6.0811720305008183
20
-9.5521348566137867
30
0
10
-5.856371363074576
20
-9.4562446021667554
30
0
10
-5.6243830965358725
20
-9.3043334157709072
30
0
10
-5.3977134422192821
20
-9.1005224990814622
30
0
10
-5.2074840798524225
20
-8.8779772979962086
30
0
10
-5.0859092442088603
20
-8.6764408300372757
30
0
10
-5.0531229051649547
20
-8.5252021783949701
30
0
10
-5.1011721882728374
20
-8.4222617718948563
30
0
10
-5.1819085091860853
20
-8.3194205888134061
30
0
10
-5.2334491509832048
20
-8.1600999613912482
30
0
10
-5.2032825040266051
20
-7.9155748492297118
30
0
10
-5.0745112519676594
20
-7.6192347668247571
30
0
10
-4.8447250304988394
20
-7.290885859994062
30
0
10
-4.5246945251628015
20
-6.9520084303132492
30
0
10
-4.1330381453686833
20
-6.619450428664253
30
0
10
-3.6925046802320285
20
-6.3077096733117859
30
0
10
-3.225739592801673
20
-6.0275485587749422
30
0
10
-2.7510202573402602
20
-5.7860954323502582
30
0
10
-2.2788038899158565
20
-5.5864560389500735
30
0
10
-1.8138101361008097
20
-5.428841927281316
30
0
10
-1.3563950216601826
20
-5.3114020663716408
30
0
10
-0.90416311366009972
20
-5.2311486293333864
30
0
10
-0.54359382704378845
20
-5.1940877227176339
30
0
10
-0.27231856488139838
20
-5.1803662390014393
30
0
10
-0.090872214278741661
20
-5.1773170176195249
30
0
10
0
20
-5.1773170176195249
30
0
0
LINE
5
117
100
AcDbEntity
8
0
100
AcDbLine
10
-4.8574178254038953
20
0.10232529655343658
30
0
11
-8.6739424479352323
21
-4.1829386402009732
31
0
0
LWPOLYLINE
5
118
100
AcDbEntity
8
0
100
AcDbPolyline
90
2
70
1
43
0.0
10
-10.553879299676305
20
-6.5814787613878556
10
-10.839545899748011
20
-6.9459499407896903
0
LINE
5
119
100
AcDbEntity
8
0
100
AcDbLine
10
-12.399999722838402
20
-8.7499998044222593
30
0
11
-12.399999722838402
21
-14.556705902070865
31
0
0
SPLINE
5
120
100
AcDbEntity
8
0
100
AcDbSpline
70
4
71
5
72
16
73
10
74
0
42
0.000000001
43
0.0000000001
44
0.0000000001
40
0
40
0
40
0
40
0
40
0
40
0
40
0.20000000000000001
40
0.40000000000000002
40
0.60000000000000009
40
0.80000000000000004
40
1
40
1
40
1
40
1
40
1
40
1
41
1
41
1
41
1
41
1
41
1
41
1
41
1
41
1
41
1
41
1
10
-11.31022674985919
20
-6.2513690737909489
30
0
10
-11.384814782173503
20
-6.348145502419424
30
0
10
-11.528657204337417
20
-6.5472398561939258
30
0
10
-11.728430770865412
20
-6.8624865278262845
30
0
10
-11.964168699948853
20
-7.3076419005499336
30
0
10
-12.203220308790122
20
-7.8647194337485713
30
0
10
-12.335334763761862
20
-8.2711165291648285
30
0
10
-12.388236851715838
20
-8.531428876852555
30
0
10
-12.399999722838402
20
-8.6811215298079727
30
0
10
-12.399999722838402
20
-8.7499998044222593
30
0
0
LWPOLYLINE
5
121
100
AcDbEntity
8
0
100
AcDbPolyline
90
2
70
1
43
0.0
10
-11.129346034985645
20
-6.0166800888414489
10
-11.49110746473273
20
-6.4860580587404515
0
LWPOLYLINE
5
122
100
AcDbEntity
8
0
100
AcDbPolyline
90
2
70
1
43
0.0
10
-12.399999722838402
20
-8.5872500063350969
10
-12.399999722838402
20
-8.9127496025094146
0
LINE
5
123
100
AcDbEntity
8
0
100
AcDbLine
10
-7.5364019248289447
20
-9.2646416594845853
30
0
11
-9.8560779207863494
21
-9.2646416594845853
31
0
0
LWPOLYLINE
5
124
100
AcDbEntity
8
0
100
AcDbPolyline
90
2
70
1
43
0.0
10
-12.399999722838402
20
-14.349999679252505
10
-12.399999722838402
20
-14.763412124889225
0
LWPOLYLINE
5
125
100
AcDbEntity
8
0
100
AcDbPolyline
90
2
70
1
43
0.0
10
0.50253135013856653
20
1.0317713331382659
10
-0.50253135013856653
20
1.0317713331382659
0
SPLINE
5
126
100
AcDbEntity
8
0
100
AcDbSpline
70
4
71
5
72
31
73
25
74
0
42
0.000000001
43
0.0000000001
44
0.0000000001
40
0
40
0
40
0
40
0
40
0
40
0
40
0.050000000000000003
40
0.10000000000000001
40
0.15000000000000002
40
0.20000000000000001
40
0.25
40
0.29999999999999999
40
0.34999999999999998
40
0.39999999999999997
40
0.44999999999999996
40
0.49999999999999994
40
0.54999999999999993
40
0.59999999999999998
40
0.65000000000000002
40
0.70000000000000007
40
0.75000000000000011
40
0.80000000000000016
40
0.8500000000000002
40
0.90000000000000024
40
0.95000000000000029
40
1
40
1
40
1
40
1
40
1
40
1
41
1
41
1
41
1
41
1
41
1
41
1
41
1
41
1
41
1
41
1
41
1
41
1
41
1
41
1
41
1
41
1
41
1
41
1
41
1
41
1
41
1
41
1
41
1
41
1
41
1
10
0
20
1.0317713331382659
30
0
10
-0.065465678449648568
20
1.0317713331382659
30
0
10
-0.19663452097666129
20
1.0312395803746466
30
0
10
-0.3941002404062337
20
1.028846635906981
30
0
10
-0.6587875116246823
20
1.0214724178450525
30
0
10
-0.99154006704012765
20
0.99991951964858439
30
0
10
-1.3251142523328776
20
0.95984622036756895
30
0
10
-1.6575408803593772
20
0.89629924011983986
30
0
10
-1.9856752687168071
20
0.80764505268299203
30
0
10
-2.3049101210071101
20
0.69770831747927209
30
0
10
-2.6088640494568733
20
0.57801375707947422
30
0
10
-2.8907273814269772
20
0.46416803299152487
30
0
10
-3.1445578166892667
20
0.37240467530803872
30
0
10
-3.3667343063835489
20
0.3158920054054849
30
0
10
-3.5571567215002515
20
0.30154516794383518
30
0
10
-3.7212639151343745
20
0.325358198816455
30
0
10
-3.8691054860307217
20
0.37309973248232153
30
0
10
-4.0119803377779846
20
0.42525175933979542
30
0
10
-4.160097622524507
20
0.46036639322281631
30
0
10
-4.3192021501205744
20
0.45953510791884983
30
0
10
-4.48978454826113
20
0.40854914881808985
30
0
10
-4.6337554220438673
20
0.31947673483907946
30
0
10
-4.7446435843780135
20
0.22277188811598253
30
0
10
-4.8196468620690327
20
0.14473522785056603
30
0
10
-4.8574178254038953
20
0.10232529655343658
30
0
0
LINE
5
127
100
AcDbEntity
8
0
100
AcDbLine
10
-8.6739424479352323
20
-4.1829386402009732
30
0
11
-10.696712599712157
21
-6.7637143510887725
31
0
0
SPLINE
5
128
100
AcDbEntity
8
0
100
AcDbSpline
70
4
71
5
72
21
73
15
74
0
42
0.000000001
43
0.0000000001
44
0.0000000001
40
0
40
0
40
0
40
0
40
0
40
0
40
0.10000000000000001
40
0.20000000000000001
40
0.30000000000000004
40
0.40000000000000002
40
0.5
40
0.59999999999999998
40
0.69999999999999996
40
0.79999999999999993
40
0.89999999999999991
40
1
40
1
40
1
40
1
40
1
40
1
41
1
41
1
41
1
41
1
41
1
41
1
41
1
41
1
41
1
41
1
41
1
41
1
41
1
41
1
41
1
10
0
20
2.799999937415123
30
0
10
-0.18239811492967548
20
2.799999937415123
30
0
10
-0.54081086670030942
20
2.7944792359424264
30
0
10
-1.0592803882335016
20
2.7696370038586
30
0
10
-1.7113715653144557
20
2.7035715292592637
30
0
10
-2.4550340604352341
20
2.5672582483943658
30
0
10
-3.118470334872157
20
2.3795792142060161
30
0
10
-3.6923697125468498
20
2.1454162526943104
30
0
10
-4.1696692699131654
20
1.8739957598191295
30
0
10
-4.5503171207706252
20
1.5821038171569373
30
0
10
-4.8454515056386072
20
1.2964266056401876
30
0
10
-5.0246666838641385
20
1.0957213287693786
30
0
10
-5.1326938076514361
20
0.97152050311084193
30
0
10
-5.193729632232035
20
0.90187459853040652
30
0
10
-5.2215021818318164
20
0.87034078250348101
30
0
0
LINE
5
129
100
AcDbEntity
8
0
100
AcDbLine
10
-10.024296391644185
20
-4.5829010411639457
30
0
11
-11.31022674985919
21
-6.2513690737909489
31
0
0
SPLINE
5
130
100
AcDbEntity
8
0
100
AcDbSpline
70
4
71
5
72
36
73
30
74
0
42
0.000000001
43
0.0000000001
44
0.0000000001
40
0
40
0
40
0
40
0
40
0
40
0
40
0.040000000000000001
40
0.080000000000000002
40
0.12
40
0.16
40
0.20000000000000001
40
0.24000000000000002
40
0.28000000000000003
40
0.32000000000000001
40
0.35999999999999999
40
0.39999999999999997
40
0.43999999999999995
40
0.47999999999999993
40
0.51999999999999991
40
0.55999999999999994
40
0.59999999999999998
40
0.64000000000000001
40
0.68000000000000005
40
0.72000000000000008
40
0.76000000000000012
40
0.80000000000000016
40
0.84000000000000019
40
0.88000000000000023
40
0.92000000000000026
40
0.9600000000000003
40
1
40
1
40
1
40
1
40
1
40
1
41
1
41
1
41
1
41
1
41
1
41
1
41
1
41
1
41
1
41
1
41
1
41
1
41
1
41
1
41
1
41
1
41
1
41
1
41
1
41
1
41
1
41
1
41
1
41
1
41
1
41
1
41
1
41
1
41
1
41
1
10
0
20
-3.9999999105930328
30
0
10
-0.072913048427949975
20
-3.9999999105930328
30
0
10
-0.22128341280996885
20
-3.9999636953654614
30
0
10
-0.45147488144895176
20
-3.9997951601195987
30
0
10
-0.77355082905842276
20
-4.0039705473493328
30
0
10
-1.2010650448548674
20
-4.0412014344961626
30
0
10
-1.6528788719829566
20
-4.1397160178553269
30
0
10
-2.1293024141906227
20
-4.3222151541095908
30
0
10
-2.6295485645893062
20
-4.5995265819095357
30
0
10
-3.1572845803916079
20
-4.9512673387263337
30
0
10
-3.7052904144500127
20
-5.3445615434668481
30
0
10
-4.2490407193693054
20
-5.7575126886376893
30
0
10
-4.7577545591402135
20
-6.1703487264050452
30
0
10
-5.1988005445983365
20
-6.5688532821274759
30
0
10
-5.5447435618124095
20
-6.9425994392928381
30
0
10
-5.7796810474926783
20
-7.2855331646539572
30
0
10
-5.9051740179522483
20
-7.595456154547664
30
0
10
-5.9488160040888207
20
-7.874419286394394
30
0
10
-5.9555683598322773
20
-8.1260425977242274
30
0
10
-5.9735205293772919
20
-8.3520302072049653
30
0
10
-6.0431265368707541
20
-8.5491199182545792
30
0
10
-6.1813676251194511
20
-8.7053308678206616
30
0
10
-6.3828333462413926
20
-8.8008600460627608
30
0
10
-6.6282263526057879
20
-8.8210212090004507
30
0
10
-6.8966190702623091
20
-8.7516101664954444
30
0
10
-7.160936563135393
20
-8.616420462578855
30
0
10
-7.3369185319558738
20
-8.5129618971743781
30
0
10
-7.4339506669322422
20
-8.4687302841096965
30
0
10
-7.4809322235743716
20
-8.458911443210539
30
0
10
-7.4999998323619366
20
-8.458911443210539
30
0
0
LWPOLYLINE
5
131
100
AcDbEntity
8
0
100
AcDbPolyline
90
2
70
1
43
0.0
10
-10.005643711449988
20
-8.4589114432105355
10
-9.6999997831881046
20
-8.4589114432105372
0
SPLINE
5
132
100
AcDbEntity
8
0
100
AcDbSpline
70
4
71
5
72
26
73
20
74
0
42
0.000000001
43
0.0000000001
44
0.0000000001
40
0
40
0
40
0
40
0
40
0
40
0
40
0.066666666666666666
40
0.13333333333333333
40
0.20000000000000001
40
0.26666666666666666
40
0.33333333333333331
40
0.39999999999999997
40
0.46666666666666662
40
0.53333333333333333
40
0.59999999999999998
40
0.66666666666666663
40
0.73333333333333328
40
0.79999999999999993
40
0.86666666666666659
40
0.93333333333333324
40
1
40
1
40
1
40
1
40
1
40
1
41
1
41
1
41
1
41
1
41
1
41
1
41
1
41
1
41
1
41
1
41
1
41
1
41
1
41
1
41
1
41
1
41
1
41
1
41
1
41
1
10
-10.696712599712157
20
-6.7637143510887725
30
0
10
-10.718928245681061
20
-6.7920584511180628
30
0
10
-10.765156556200981
20
-6.8533022650998525
30
0
10
-10.839890578422562
20
-6.9588346539503929
30
0
10
-10.946717205503923
20
-7.1249665307957688
30
0
10
-11.071967872983141
20
-7.3634394157777718
30
0
10
-11.163708659967561
20
-7.6168715450579718
30
0
10
-11.198346376555548
20
-7.867513556840132
30
0
10
-11.159700178057225
20
-8.0978922759952709
30
0
10
-11.047368905316278
20
-8.2933211740224273
30
0
10
-10.87765551380657
20
-8.4433858940492232
30
0
10
-10.675331040102536
20
-8.5421014495704988
30
0
10
-10.467961731305984
20
-8.5887931536249109
30
0
10
-10.279959930565994
20
-8.5887190902787758
30
0
10
-10.125576726411634
20
-8.5548518991320162
30
0
10
-10.005960736832929
20
-8.5072735052140587
30
0
10
-9.9339000064956391
20
-8.4750566435563606
30
0
10
-9.8899128282878266
20
-8.4618471964211501
30
0
10
-9.8645288586347295
20
-8.458911443210539
30
0
10
-9.852821747319048
20
-8.458911443210539
30
0
0
SPLINE
5
133
100
AcDbEntity
8
0
100
AcDbSpline
70
4
71
5
72
36
73
30
74
0
42
0.000000001
43
0.0000000001
44
0.0000000001
40
0
40
0
40
0
40
0
40
0
40
0
40
0.040000000000000001
40
0.080000000000000002
40
0.12
40
0.16
40
0.20000000000000001
40
0.24000000000000002
40
0.28000000000000003
40
0.32000000000000001
40
0.35999999999999999
40
0.39999999999999997
40
0.43999999999999995
40
0.47999999999999993
40
0.51999999999999991
40
0.55999999999999994
40
0.59999999999999998
40
0.64000000000000001
40
0.68000000000000005
40
0.72000000000000008
40
0.76000000000000012
40
0.80000000000000016
40
0.84000000000000019
40
0.88000000000000023
40
0.92000000000000026
40
0.9600000000000003
40
1
40
1
40
1
40
1
40
1
40
1
41
1
41
1
41
1
41
1
41
1
41
1
41
1
41
1
41
1
41
1
41
1
41
1
41
1
41
1
41
1
41
1
41
1
41
1
41
1
41
1
41
1
41
1
41
1
41
1
41
1
41
1
41
1
41
1
41
1
41
1
10
-12.399999722838402
20
-14.556705902070865
30
0
10
-12.399999722838402
20
-14.574776062599453
30
0
10
-12.386292451201502
20
-14.612966679869137
30
0
10
-12.324611834782038
20
-14.676400101522432
30
0
10
-12.16629315405627
20
-14.766824955611176
30
0
10
-11.877620696450059
20
-14.854326276910347
30
0
10
-11.544365111701362
20
-14.875587930346324
30
0
10
-11.213411510407374
20
-14.796666841119524
30
0
10
-10.920827819668194
20
-14.606184188238458
30
0
10
-10.689694568019494
20
-14.315185986175562
30
0
10
-10.532703558029144
20
-13.948853915430735
30
0
10
-10.453111717659709
20
-13.540998734004891
30
0
10
-10.446286604823298
20
-13.127476364213157
30
0
10
-10.500759359521028
20
-12.74029925791115
30
0
10
-10.599659350999708
20
-12.401110153150896
30
0
10
-10.72318753757761
20
-12.120162273210919
30
0
10
-10.85196262007894
20
-11.890710558749294
30
0
10
-10.968050187689627
20
-11.693053705287236
30
0
10
-11.061518332248667
20
-11.475620847824878
30
0
10
-11.122437403492931
20
-11.196079067338395
30
0
10
-11.133622790992796
20
-10.860841424769943
30
0
10
-11.080300485968253
20
-10.49456893652348
30
0
10
-10.953926519249592
20
-10.135073124520728
30
0
10
-10.757926305405141
20
-9.8183756142888168
30
0
10
-10.514407947851867
20
-9.5661743631490204
30
0
10
-10.257437360877901
20
-9.3870055626588229
30
0
10
-10.069887946081565
20
-9.3028035216775002
30
0
10
-9.9524568571869292
20
-9.2715798973788353
30
0
10
-9.8861991382701806
20
-9.2646416594845853
30
0
10
-9.8560779207863494
20
-9.2646416594845853
30
0
0
LINE
5
134
100
AcDbEntity
8
0
100
AcDbLine
10
-9.852821747319048
20
-8.4589114432105372
30
0
11
-7.4999998323619366
21
-8.4589114432105372
31
0
0
ENDSEC
0
SECTION
2
OBJECTS
0
DICTIONARY
5
C
100
AcDbDictionary
3
ACAD_GROUP
350
D
3
ACAD_MLINESTYLE
350
17
0
DICTIONARY
5
D
100
AcDbDictionary
0
DICTIONARY
5
1A
330
C
100
AcDbDictionary
0
DICTIONARY
5
17
100
AcDbDictionary
0
ENDSEC
0
EOF
